<svg width="143" height="143" viewBox="0 0 143 143" fill="none" xmlns="http://www.w3.org/2000/svg">
<path fill-rule="evenodd" clip-rule="evenodd" d="M71.5 143C110.988 143 143 110.988 143 71.5C143 32.0117 110.988 0 71.5 0C32.0116 0 0 32.0117 0 71.5C0 110.988 32.0116 143 71.5 143ZM73 50L79.3494 47.114C80.7964 46.2346 82.3553 45.521 84 45C86.0507 44.3503 88.2344 44 90.5 44C102.374 44 112 53.626 112 65.5C112 73.6152 107.504 80.6802 100.867 84.3401L73 105L45.1332 84.3401C38.4961 80.6802 34 73.6152 34 65.5C34 53.626 43.6259 44 55.5 44C57.7657 44 59.9492 44.3503 62 45C63.6445 45.521 65.2037 46.2346 66.6506 47.114L73 50Z" fill="white"/>
</svg>
