<svg width="78" height="78" viewBox="0 0 78 78" fill="none" xmlns="http://www.w3.org/2000/svg">
<path fill-rule="evenodd" clip-rule="evenodd" d="M15 0C6.71573 0 0 6.71573 0 15V63C0 71.2843 6.71573 78 15 78H63C71.2843 78 78 71.2843 78 63V15C78 6.71573 71.2843 0 63 0H15ZM45.4286 8.14286C43.9509 8.14286 42.5338 8.72985 41.489 9.77469C40.4441 10.8195 39.8571 12.2367 39.8571 13.7143V19.2857H15.7143C14.2367 19.2857 12.8195 19.8727 11.7747 20.9175C10.7298 21.9624 10.1429 23.3795 10.1429 24.8571V47.1429C10.1429 48.6205 10.7298 50.0376 11.7747 51.0825C12.8195 52.1273 14.2367 52.7143 15.7143 52.7143H32.4286V60.1429H25V63.8571H60.2857C61.7634 63.8571 63.1805 63.2701 64.2253 62.2253C65.2701 61.1805 65.8571 59.7634 65.8571 58.2857V13.7143C65.8571 12.2366 65.2701 10.8195 64.2253 9.77469C63.1805 8.72985 61.7634 8.14286 60.2857 8.14286H45.4286ZM43.5714 13.7143C43.5714 13.2217 43.7671 12.7494 44.1154 12.4011C44.4637 12.0528 44.936 11.8571 45.4286 11.8571H60.2857C60.7783 11.8571 61.2506 12.0528 61.5989 12.4011C61.9472 12.7494 62.1429 13.2217 62.1429 13.7143V26.7143H43.5714V13.7143ZM43.5714 30.4286H62.1429V58.2857C62.1429 58.7783 61.9472 59.2506 61.5989 59.5989C61.2506 59.9472 60.7783 60.1429 60.2857 60.1429H45.4286C44.936 60.1429 44.4637 59.9472 44.1154 59.5989C43.7671 59.2506 43.5714 58.7783 43.5714 58.2857V30.4286ZM39.8571 58.2857C39.8571 58.9245 39.9668 59.5519 40.1758 60.1429H36.1429V52.7143H39.8571V58.2857ZM39.8571 23V49H15.7143C15.2217 49 14.7494 48.8043 14.4011 48.4561C14.0528 48.1078 13.8571 47.6354 13.8571 47.1429V24.8571C13.8571 24.3646 14.0528 23.8922 14.4011 23.5439C14.7494 23.1957 15.2217 23 15.7143 23H39.8571ZM47.2857 52.7143H58.4286V49H47.2857V52.7143Z" fill="#249ADA"/>
</svg>
