<svg width="100" height="100" viewBox="0 0 100 100" fill="none" xmlns="http://www.w3.org/2000/svg">
<path d="M80 0C91.0457 0 100 8.95431 100 20V80C100 91.0457 91.0457 100 80 100H20C8.95431 100 1.61075e-07 91.0457 0 80V20C0 8.95431 8.95431 1.61064e-07 20 0H80ZM50 13.333C45.1849 13.333 40.4164 14.3049 35.9678 16.1934C31.5193 18.0818 27.477 20.8506 24.0723 24.3398C17.1962 31.3868 13.3331 40.9444 13.333 50.9102C13.333 67.5191 23.8565 81.6106 38.4131 86.6084C40.2464 86.909 40.833 85.7441 40.833 84.7295V78.3789C30.6913 80.6301 28.52 73.3649 28.5137 73.3438C26.8361 69.0082 24.4687 67.8328 24.4434 67.8203C21.1067 65.4905 24.7002 65.5654 24.7002 65.5654C28.3455 65.8271 30.2873 69.3944 30.3096 69.4355C33.4994 75.1469 38.8892 73.4566 40.9795 72.5547C41.3095 70.1122 42.2634 68.459 43.29 67.5195C35.15 66.5801 26.6064 63.3481 26.6064 49.0312C26.6065 44.8606 27.9998 41.5165 30.3828 38.8486C30.0161 37.9092 28.7333 34.0006 30.75 28.9277C30.7702 28.9212 33.8528 27.9294 40.833 32.7607C43.7297 31.934 46.8833 31.5205 50 31.5205C53.1166 31.5205 56.2704 31.9341 59.167 32.7607C66.1702 27.9135 69.25 28.9277 69.25 28.9277C71.2667 34.0006 69.9829 37.9092 69.6162 38.8486C71.9994 41.5165 73.3935 44.8604 73.3936 49.0312C73.3936 63.3856 64.8133 66.542 56.6367 67.4814C57.9567 68.6463 59.167 70.9389 59.167 74.4336V84.7295C59.167 85.744 59.7532 86.9465 61.623 86.6084C76.1797 81.5731 86.667 67.5192 86.667 50.9102C86.667 45.9756 85.7186 41.0892 83.876 36.5303C82.0333 31.9712 79.3316 27.8292 75.9268 24.3398C72.5219 20.8505 68.4799 18.0818 64.0312 16.1934C59.5828 14.3051 54.8149 13.333 50 13.333Z" fill="#249ADA"/>
</svg>
