<svg width="868" height="501" viewBox="0 0 868 501" fill="none" xmlns="http://www.w3.org/2000/svg">
<defs>
<linearGradient id="paint0_linear_335_224" x1="28.0793" y1="28.4342" x2="158.368" y2="203.657" gradientUnits="userSpaceOnUse">
<stop stop-color="#2266A4"/>
<stop offset="1" stop-color="#249ADA"/>
</linearGradient>
<linearGradient id="paint1_linear_335_224" x1="146.498" y1="37.088" x2="248.09" y2="156.984" gradientUnits="userSpaceOnUse">
<stop stop-color="#2266A4"/>
<stop offset="1" stop-color="#249ADA"/>
</linearGradient>
<radialGradient id="paint2_radial_335_224" cx="0" cy="0" r="1" gradientUnits="userSpaceOnUse" gradientTransform="translate(337.556 12.9808) rotate(118.524) scale(90.7559 90.1421)">
<stop stop-color="#249ADA"/>
<stop offset="1" stop-color="#2266A4"/>
</radialGradient>
</defs>
<path d="M141.038 343.677H120.734V277.497L85.01 340.344C84.1318 341.946 82.8919 343.16 81.2904 343.987C79.7405 344.813 78.0615 345.226 76.2533 345.226C74.4968 345.226 72.8436 344.813 71.2937 343.987C69.7955 343.16 68.6073 341.946 67.729 340.344L31.8497 277.497V343.677H11.7015V241.153C11.7015 238.828 12.3731 236.762 13.7163 234.954C15.1112 233.145 16.9193 231.931 19.1408 231.311C20.2257 231.053 21.3106 230.976 22.3955 231.079C23.4804 231.131 24.5137 231.363 25.4953 231.776C26.5285 232.138 27.4584 232.681 28.285 233.404C29.1116 234.075 29.809 234.902 30.3773 235.884L76.2533 315.624L122.129 235.884C123.317 233.92 124.945 232.526 127.011 231.699C129.129 230.872 131.325 230.743 133.598 231.311C135.768 231.931 137.55 233.145 138.945 234.954C140.34 236.762 141.038 238.828 141.038 241.153V343.677ZM253.403 333.525C253.403 334.972 253.144 336.315 252.628 337.555C252.111 338.795 251.388 339.879 250.458 340.809C249.58 341.688 248.521 342.385 247.281 342.902C246.093 343.418 244.801 343.677 243.406 343.677H197.84C195.36 343.677 192.7 343.392 189.858 342.824C187.069 342.256 184.305 341.352 181.567 340.112C178.828 338.82 176.168 337.219 173.585 335.307C171.053 333.344 168.832 330.994 166.92 328.255C165.009 325.466 163.459 322.263 162.271 318.646C161.134 315.03 160.566 310.949 160.566 306.402V259.906H180.714V306.402C180.714 309.037 181.153 311.414 182.032 313.532C182.961 315.598 184.201 317.381 185.751 318.879C187.301 320.377 189.109 321.539 191.176 322.366C193.294 323.141 195.567 323.528 197.995 323.528H233.254V259.906H253.403V333.525ZM345.62 280.055H300.286C297.548 280.055 295.482 280.752 294.087 282.147C292.692 283.49 291.994 285.479 291.994 288.114V343.677H271.846V288.114C271.846 284.653 272.285 281.553 273.163 278.815C274.042 276.077 275.204 273.674 276.651 271.608C278.149 269.49 279.854 267.707 281.765 266.261C283.677 264.763 285.666 263.549 287.732 262.619C289.85 261.689 291.969 261.017 294.087 260.604C296.256 260.139 298.271 259.906 300.131 259.906H345.62V280.055ZM379.407 242.703H359.258V224.492H379.407V242.703ZM379.407 343.677H359.258V259.906H379.407V343.677ZM501.458 252.7H457.055V343.677H436.907V252.7H392.426V232.551H501.458V252.7ZM607.702 298.266H544.08V277.962H607.702V298.266ZM616.768 343.677H544.08C541.29 343.677 538.242 343.186 534.935 342.204C531.629 341.223 528.555 339.621 525.714 337.4C522.924 335.127 520.573 332.208 518.662 328.643C516.802 325.027 515.872 320.609 515.872 315.392V242.703C515.872 241.308 516.13 239.991 516.647 238.751C517.164 237.511 517.861 236.426 518.739 235.496C519.669 234.566 520.754 233.843 521.994 233.326C523.234 232.81 524.577 232.551 526.024 232.551H616.768V252.7H536.02V315.392C536.02 318.026 536.718 320.041 538.113 321.436C539.508 322.831 541.548 323.528 544.235 323.528H616.768V343.677ZM735.023 343.677H662.334C660.474 343.677 658.46 343.47 656.29 343.057C654.172 342.592 652.054 341.894 649.935 340.964C647.869 340.034 645.88 338.846 643.968 337.4C642.057 335.901 640.352 334.119 638.854 332.053C637.407 329.934 636.245 327.506 635.367 324.768C634.488 321.979 634.049 318.853 634.049 315.392V260.836C634.049 258.977 634.256 256.988 634.669 254.869C635.134 252.7 635.832 250.581 636.762 248.515C637.691 246.397 638.906 244.382 640.404 242.471C641.902 240.559 643.684 238.88 645.751 237.433C647.869 235.935 650.297 234.747 653.035 233.869C655.773 232.991 658.873 232.551 662.334 232.551H735.023V252.7H662.334C659.7 252.7 657.685 253.397 656.29 254.792C654.895 256.187 654.198 258.253 654.198 260.991V315.392C654.198 317.975 654.895 319.99 656.29 321.436C657.736 322.831 659.751 323.528 662.334 323.528H735.023V343.677Z" fill="white"/>
<path d="M48.3063 412.895C48.3063 414.516 48.0957 415.98 47.6744 417.286C47.2742 418.571 46.7371 419.708 46.0631 420.698C45.3892 421.688 44.5993 422.531 43.6936 423.226C42.788 423.921 41.8507 424.489 40.8818 424.932C39.913 425.374 38.923 425.7 37.9121 425.911C36.9221 426.122 35.9849 426.227 35.1002 426.227H3.41208V418.013H35.1002C36.6799 418.013 37.9015 417.549 38.7651 416.623C39.6497 415.696 40.092 414.453 40.092 412.895C40.092 412.136 39.9762 411.441 39.7445 410.809C39.5128 410.178 39.1758 409.63 38.7335 409.167C38.3122 408.703 37.7857 408.345 37.1538 408.092C36.543 407.84 35.8585 407.713 35.1002 407.713H16.2074C14.8805 407.713 13.4482 407.482 11.9107 407.018C10.3732 406.534 8.94093 405.765 7.614 404.712C6.30814 403.659 5.21291 402.279 4.32829 400.573C3.46474 398.867 3.03296 396.782 3.03296 394.318C3.03296 391.853 3.46474 389.779 4.32829 388.094C5.21291 386.388 6.30814 385.008 7.614 383.955C8.94093 382.881 10.3732 382.112 11.9107 381.649C13.4482 381.164 14.8805 380.922 16.2074 380.922H44.1675V389.136H16.2074C14.6488 389.136 13.4272 389.61 12.5426 390.558C11.679 391.506 11.2472 392.759 11.2472 394.318C11.2472 395.897 11.679 397.151 12.5426 398.077C13.4272 398.983 14.6488 399.436 16.2074 399.436H35.1002H35.1634C36.048 399.457 36.9853 399.583 37.9752 399.815C38.9652 400.026 39.9446 400.363 40.9134 400.826C41.9034 401.289 42.8406 401.879 43.7252 402.595C44.6099 403.29 45.3892 404.133 46.0631 405.123C46.7582 406.113 47.3058 407.25 47.706 408.535C48.1062 409.819 48.3063 411.273 48.3063 412.895ZM91.368 414.695C91.368 416.107 91.189 417.381 90.831 418.518C90.4729 419.634 89.999 420.624 89.4093 421.488C88.8195 422.33 88.135 423.057 87.3557 423.668C86.5764 424.258 85.755 424.742 84.8914 425.121C84.0489 425.5 83.1854 425.785 82.3008 425.974C81.4372 426.143 80.6158 426.227 79.8365 426.227H65.0192C63.8818 426.227 62.6391 426.027 61.2912 425.627C59.9432 425.227 58.69 424.574 57.5315 423.668C56.3942 422.741 55.4358 421.551 54.6565 420.098C53.8983 418.623 53.5192 416.823 53.5192 414.695V403.575C53.5192 401.468 53.8983 399.689 54.6565 398.235C55.4358 396.761 56.3942 395.571 57.5315 394.665C58.69 393.738 59.9432 393.075 61.2912 392.675C62.6391 392.275 63.8818 392.075 65.0192 392.075H79.8365C81.9427 392.075 83.733 392.454 85.2073 393.212C86.6817 393.97 87.8717 394.928 88.7774 396.087C89.6831 397.224 90.336 398.467 90.7362 399.815C91.1574 401.163 91.368 402.416 91.368 403.575V414.695ZM83.1538 403.638C83.1538 402.5 82.8694 401.658 82.3008 401.11C81.7321 400.563 80.9106 400.289 79.8365 400.289H65.0824C63.9871 400.289 63.1552 400.573 62.5865 401.142C62.0178 401.689 61.7335 402.5 61.7335 403.575V414.695C61.7335 415.77 62.0178 416.591 62.5865 417.16C63.1552 417.728 63.9871 418.013 65.0824 418.013H79.8365C80.9528 418.013 81.7847 417.728 82.3323 417.16C82.88 416.591 83.1538 415.77 83.1538 414.695V403.638ZM113.389 426.227H109.724C108.544 426.227 107.281 426.027 105.933 425.627C104.606 425.227 103.363 424.574 102.205 423.668C101.046 422.741 100.088 421.551 99.3296 420.098C98.5713 418.623 98.1922 416.823 98.1922 414.695V377.636H106.406V414.695C106.406 415.706 106.722 416.517 107.354 417.128C107.986 417.718 108.776 418.013 109.724 418.013H113.389V426.227ZM155.503 422.088C155.503 422.678 155.397 423.226 155.187 423.731C154.976 424.237 154.681 424.679 154.302 425.058C153.944 425.416 153.512 425.7 153.007 425.911C152.522 426.122 151.996 426.227 151.427 426.227H132.85C131.839 426.227 130.754 426.111 129.596 425.879C128.459 425.648 127.332 425.279 126.216 424.774C125.099 424.247 124.015 423.594 122.961 422.815C121.929 422.015 121.024 421.056 120.244 419.94C119.465 418.803 118.833 417.497 118.349 416.022C117.885 414.548 117.654 412.884 117.654 411.031V392.075H125.868V411.031C125.868 412.105 126.047 413.074 126.405 413.937C126.784 414.78 127.29 415.506 127.922 416.117C128.553 416.728 129.291 417.202 130.133 417.539C130.997 417.855 131.923 418.013 132.913 418.013H147.288V392.075H155.503V422.088ZM196.29 426.227H174.016C172.879 426.227 171.636 426.027 170.288 425.627C168.94 425.227 167.687 424.574 166.529 423.668C165.391 422.741 164.433 421.551 163.654 420.098C162.895 418.623 162.516 416.823 162.516 414.695V403.575C162.516 402.795 162.601 401.974 162.769 401.11C162.959 400.247 163.243 399.394 163.622 398.551C164.001 397.688 164.486 396.866 165.075 396.087C165.686 395.308 166.413 394.623 167.255 394.033C168.119 393.444 169.109 392.97 170.225 392.612C171.341 392.254 172.605 392.075 174.016 392.075H196.29V400.289H174.016C172.942 400.289 172.121 400.563 171.552 401.11C171.004 401.658 170.731 402.5 170.731 403.638V414.695C170.731 415.77 171.015 416.591 171.584 417.16C172.152 417.728 172.984 418.013 174.08 418.013H196.29V426.227ZM211.423 385.061H203.209V377.636H211.423V385.061ZM211.423 426.227H203.209V392.075H211.423V426.227ZM256.475 414.695C256.475 416.107 256.296 417.381 255.938 418.518C255.58 419.634 255.106 420.624 254.516 421.488C253.927 422.33 253.242 423.057 252.463 423.668C251.683 424.258 250.862 424.742 249.998 425.121C249.156 425.5 248.292 425.785 247.408 425.974C246.544 426.143 245.723 426.227 244.943 426.227H230.126C228.989 426.227 227.746 426.027 226.398 425.627C225.05 425.227 223.797 424.574 222.639 423.668C221.501 422.741 220.543 421.551 219.764 420.098C219.005 418.623 218.626 416.823 218.626 414.695V403.575C218.626 401.468 219.005 399.689 219.764 398.235C220.543 396.761 221.501 395.571 222.639 394.665C223.797 393.738 225.05 393.075 226.398 392.675C227.746 392.275 228.989 392.075 230.126 392.075H244.943C247.05 392.075 248.84 392.454 250.314 393.212C251.789 393.97 252.979 394.928 253.884 396.087C254.79 397.224 255.443 398.467 255.843 399.815C256.264 401.163 256.475 402.416 256.475 403.575V414.695ZM248.261 403.638C248.261 402.5 247.976 401.658 247.408 401.11C246.839 400.563 246.018 400.289 244.943 400.289H230.189C229.094 400.289 228.262 400.573 227.693 401.142C227.125 401.689 226.84 402.5 226.84 403.575V414.695C226.84 415.77 227.125 416.591 227.693 417.16C228.262 417.728 229.094 418.013 230.189 418.013H244.943C246.06 418.013 246.892 417.728 247.439 417.16C247.987 416.591 248.261 415.77 248.261 414.695V403.638ZM301.338 426.227H293.123V407.271C293.123 406.197 292.934 405.238 292.555 404.396C292.197 403.532 291.702 402.795 291.07 402.184C290.438 401.574 289.69 401.11 288.827 400.794C287.984 400.457 287.068 400.289 286.078 400.289H271.703V426.227H263.489V396.15C263.489 395.581 263.594 395.055 263.805 394.57C264.015 394.065 264.31 393.633 264.689 393.275C265.068 392.896 265.511 392.601 266.016 392.39C266.522 392.18 267.059 392.075 267.627 392.075H286.141C287.173 392.075 288.258 392.19 289.395 392.422C290.554 392.654 291.691 393.033 292.807 393.559C293.945 394.065 295.019 394.718 296.03 395.518C297.062 396.297 297.968 397.256 298.747 398.393C299.547 399.509 300.179 400.805 300.643 402.279C301.106 403.754 301.338 405.417 301.338 407.271V426.227ZM345.284 403.385C345.284 404.522 345.084 405.754 344.684 407.081C344.284 408.387 343.631 409.609 342.725 410.746C341.84 411.863 340.671 412.8 339.218 413.558C337.786 414.316 336.038 414.695 333.974 414.695H319.156V406.892H333.974C335.09 406.892 335.953 406.555 336.564 405.881C337.175 405.186 337.48 404.333 337.48 403.322C337.48 402.248 337.133 401.405 336.438 400.794C335.764 400.183 334.942 399.878 333.974 399.878H319.156C318.04 399.878 317.176 400.226 316.566 400.921C315.955 401.595 315.649 402.437 315.649 403.448V414.917C315.649 416.012 315.986 416.865 316.66 417.476C317.355 418.086 318.208 418.392 319.219 418.392H333.974V426.227H319.156C318.019 426.227 316.787 426.027 315.46 425.627C314.154 425.227 312.932 424.584 311.795 423.699C310.679 422.794 309.741 421.625 308.983 420.193C308.225 418.739 307.846 416.981 307.846 414.917V403.385C307.846 402.248 308.046 401.026 308.446 399.72C308.846 398.393 309.489 397.172 310.373 396.055C311.279 394.918 312.448 393.97 313.88 393.212C315.333 392.454 317.092 392.075 319.156 392.075H333.974C335.111 392.075 336.333 392.275 337.638 392.675C338.965 393.075 340.187 393.728 341.303 394.634C342.441 395.518 343.388 396.687 344.147 398.14C344.905 399.573 345.284 401.321 345.284 403.385ZM383.828 414.695C383.828 416.107 383.649 417.381 383.291 418.518C382.933 419.634 382.459 420.624 381.869 421.488C381.279 422.33 380.595 423.057 379.816 423.668C379.036 424.258 378.215 424.742 377.351 425.121C376.509 425.5 375.645 425.785 374.761 425.974C373.897 426.143 373.076 426.227 372.296 426.227H350.055V418.013H372.233C373.349 418.013 374.192 417.728 374.761 417.16C375.329 416.591 375.614 415.77 375.614 414.695C375.508 412.505 374.403 411.41 372.296 411.41H359.564C357.753 411.41 356.215 411.094 354.952 410.462C353.688 409.83 352.656 409.04 351.855 408.092C351.076 407.145 350.507 406.123 350.149 405.028C349.812 403.933 349.644 402.911 349.644 401.963C349.644 400.131 349.97 398.593 350.623 397.351C351.276 396.087 352.098 395.065 353.088 394.286C354.078 393.507 355.152 392.949 356.31 392.612C357.469 392.254 358.553 392.075 359.564 392.075H379.752V400.289H359.627C359.206 400.289 358.869 400.341 358.616 400.447C358.385 400.531 358.206 400.657 358.079 400.826C357.974 400.973 357.911 401.142 357.89 401.331C357.869 401.5 357.858 401.668 357.858 401.837C357.879 402.174 357.942 402.437 358.048 402.627C358.153 402.816 358.279 402.953 358.427 403.037C358.595 403.122 358.774 403.174 358.964 403.195C359.175 403.195 359.375 403.195 359.564 403.195H372.296C374.403 403.195 376.193 403.575 377.667 404.333C379.142 405.091 380.332 406.049 381.237 407.208C382.143 408.345 382.796 409.588 383.196 410.936C383.617 412.284 383.828 413.537 383.828 414.695ZM451.817 389.136H433.714V426.227H425.5V389.136H407.365V380.922H451.817V389.136ZM490.108 403.385C490.108 404.522 489.908 405.754 489.508 407.081C489.108 408.387 488.455 409.609 487.549 410.746C486.664 411.863 485.495 412.8 484.042 413.558C482.61 414.316 480.862 414.695 478.798 414.695H463.98V406.892H478.798C479.914 406.892 480.778 406.555 481.388 405.881C481.999 405.186 482.305 404.333 482.305 403.322C482.305 402.248 481.957 401.405 481.262 400.794C480.588 400.183 479.767 399.878 478.798 399.878H463.98C462.864 399.878 462.001 400.226 461.39 400.921C460.779 401.595 460.473 402.437 460.473 403.448V414.917C460.473 416.012 460.81 416.865 461.484 417.476C462.18 418.086 463.033 418.392 464.044 418.392H478.798V426.227H463.98C462.843 426.227 461.611 426.027 460.284 425.627C458.978 425.227 457.756 424.584 456.619 423.699C455.503 422.794 454.566 421.625 453.807 420.193C453.049 418.739 452.67 416.981 452.67 414.917V403.385C452.67 402.248 452.87 401.026 453.27 399.72C453.67 398.393 454.313 397.172 455.197 396.055C456.103 394.918 457.272 393.97 458.704 393.212C460.158 392.454 461.916 392.075 463.98 392.075H478.798C479.935 392.075 481.157 392.275 482.462 392.675C483.789 393.075 485.011 393.728 486.127 394.634C487.265 395.518 488.212 396.687 488.971 398.14C489.729 399.573 490.108 401.321 490.108 403.385ZM528.715 426.227H506.442C505.304 426.227 504.062 426.027 502.714 425.627C501.366 425.227 500.113 424.574 498.954 423.668C497.817 422.741 496.859 421.551 496.079 420.098C495.321 418.623 494.942 416.823 494.942 414.695V403.575C494.942 402.795 495.026 401.974 495.195 401.11C495.384 400.247 495.669 399.394 496.048 398.551C496.427 397.688 496.911 396.866 497.501 396.087C498.112 395.308 498.838 394.623 499.681 394.033C500.544 393.444 501.534 392.97 502.651 392.612C503.767 392.254 505.031 392.075 506.442 392.075H528.715V400.289H506.442C505.368 400.289 504.546 400.563 503.978 401.11C503.43 401.658 503.156 402.5 503.156 403.638V414.695C503.156 415.77 503.44 416.591 504.009 417.16C504.578 417.728 505.41 418.013 506.505 418.013H528.715V426.227ZM573.357 426.227H565.142V407.271C565.142 406.197 564.953 405.238 564.574 404.396C564.216 403.532 563.721 402.795 563.089 402.184C562.457 401.574 561.709 401.11 560.846 400.794C560.003 400.457 559.087 400.289 558.097 400.289H543.722V426.227H535.508V396.15C535.508 395.581 535.613 395.055 535.824 394.57C536.034 394.065 536.329 393.633 536.708 393.275C537.087 392.896 537.53 392.601 538.035 392.39C538.541 392.18 539.078 392.075 539.647 392.075H558.16C559.192 392.075 560.277 392.19 561.414 392.422C562.573 392.654 563.71 393.033 564.826 393.559C565.964 394.065 567.038 394.718 568.049 395.518C569.081 396.297 569.987 397.256 570.766 398.393C571.566 399.509 572.198 400.805 572.662 402.279C573.125 403.754 573.357 405.417 573.357 407.271V426.227ZM617.714 414.695C617.714 416.107 617.535 417.381 617.177 418.518C616.819 419.634 616.345 420.624 615.755 421.488C615.165 422.33 614.481 423.057 613.701 423.668C612.922 424.258 612.101 424.742 611.237 425.121C610.395 425.5 609.531 425.785 608.646 425.974C607.783 426.143 606.961 426.227 606.182 426.227H591.365C590.227 426.227 588.985 426.027 587.637 425.627C586.289 425.227 585.036 424.574 583.877 423.668C582.74 422.741 581.782 421.551 581.002 420.098C580.244 418.623 579.865 416.823 579.865 414.695V403.575C579.865 401.468 580.244 399.689 581.002 398.235C581.782 396.761 582.74 395.571 583.877 394.665C585.036 393.738 586.289 393.075 587.637 392.675C588.985 392.275 590.227 392.075 591.365 392.075H606.182C608.288 392.075 610.079 392.454 611.553 393.212C613.027 393.97 614.217 394.928 615.123 396.087C616.029 397.224 616.682 398.467 617.082 399.815C617.503 401.163 617.714 402.416 617.714 403.575V414.695ZM609.499 403.638C609.499 402.5 609.215 401.658 608.646 401.11C608.078 400.563 607.256 400.289 606.182 400.289H591.428C590.333 400.289 589.501 400.573 588.932 401.142C588.363 401.689 588.079 402.5 588.079 403.575V414.695C588.079 415.77 588.363 416.591 588.932 417.16C589.501 417.728 590.333 418.013 591.428 418.013H606.182C607.298 418.013 608.13 417.728 608.678 417.16C609.226 416.591 609.499 415.77 609.499 414.695V403.638ZM639.734 426.227H636.069C634.89 426.227 633.626 426.027 632.278 425.627C630.951 425.227 629.709 424.574 628.55 423.668C627.392 422.741 626.433 421.551 625.675 420.098C624.917 418.623 624.538 416.823 624.538 414.695V377.636H632.752V414.695C632.752 415.706 633.068 416.517 633.7 417.128C634.332 417.718 635.122 418.013 636.069 418.013H639.734V426.227ZM682.164 414.695C682.164 416.107 681.985 417.381 681.627 418.518C681.269 419.634 680.795 420.624 680.205 421.488C679.616 422.33 678.931 423.057 678.152 423.668C677.373 424.258 676.551 424.742 675.688 425.121C674.845 425.5 673.982 425.785 673.097 425.974C672.233 426.143 671.412 426.227 670.633 426.227H655.815C654.678 426.227 653.435 426.027 652.087 425.627C650.739 425.227 649.486 424.574 648.328 423.668C647.19 422.741 646.232 421.551 645.453 420.098C644.694 418.623 644.315 416.823 644.315 414.695V403.575C644.315 401.468 644.694 399.689 645.453 398.235C646.232 396.761 647.19 395.571 648.328 394.665C649.486 393.738 650.739 393.075 652.087 392.675C653.435 392.275 654.678 392.075 655.815 392.075H670.633C672.739 392.075 674.529 392.454 676.004 393.212C677.478 393.97 678.668 394.928 679.574 396.087C680.479 397.224 681.132 398.467 681.532 399.815C681.954 401.163 682.164 402.416 682.164 403.575V414.695ZM673.95 403.638C673.95 402.5 673.666 401.658 673.097 401.11C672.528 400.563 671.707 400.289 670.633 400.289H655.879C654.783 400.289 653.951 400.573 653.383 401.142C652.814 401.689 652.53 402.5 652.53 403.575V414.695C652.53 415.77 652.814 416.591 653.383 417.16C653.951 417.728 654.783 418.013 655.879 418.013H670.633C671.749 418.013 672.581 417.728 673.129 417.16C673.676 416.591 673.95 415.77 673.95 414.695V403.638ZM680.016 381.775L663.524 387.683L661.344 382.944L676.541 374.098L680.016 381.775ZM726.332 429.513C726.332 430.924 726.153 432.188 725.795 433.304C725.437 434.441 724.963 435.431 724.373 436.274C723.783 437.137 723.099 437.864 722.319 438.454C721.54 439.064 720.719 439.559 719.855 439.938C719.013 440.318 718.149 440.591 717.264 440.76C716.401 440.949 715.579 441.044 714.8 441.044H699.983V432.83H714.8C715.916 432.83 716.748 432.546 717.296 431.977C717.844 431.408 718.117 430.587 718.117 429.513V403.575C718.117 402.5 717.844 401.689 717.296 401.142C716.748 400.573 715.916 400.289 714.8 400.289H699.983C698.972 400.289 698.172 400.605 697.582 401.237C696.992 401.847 696.697 402.627 696.697 403.575V414.695C696.697 415.77 696.982 416.591 697.55 417.16C698.119 417.728 698.951 418.013 700.046 418.013H714.8V426.227H699.983C699.204 426.227 698.382 426.143 697.519 425.974C696.655 425.785 695.791 425.5 694.928 425.121C694.085 424.742 693.275 424.258 692.495 423.668C691.716 423.057 691.031 422.33 690.442 421.488C689.852 420.624 689.378 419.634 689.02 418.518C688.662 417.381 688.483 416.107 688.483 414.695V403.575C688.483 402.795 688.567 401.974 688.736 401.11C688.925 400.247 689.21 399.394 689.589 398.551C689.968 397.688 690.452 396.866 691.042 396.087C691.653 395.308 692.379 394.623 693.222 394.033C694.085 393.444 695.075 392.97 696.192 392.612C697.308 392.254 698.572 392.075 699.983 392.075H714.8C715.579 392.075 716.401 392.169 717.264 392.359C718.149 392.527 719.013 392.801 719.855 393.18C720.719 393.559 721.54 394.054 722.319 394.665C723.099 395.255 723.783 395.982 724.373 396.845C724.963 397.688 725.437 398.667 725.795 399.783C726.153 400.9 726.332 402.163 726.332 403.575V429.513ZM742.192 385.061H733.977V377.636H742.192V385.061ZM742.192 426.227H733.977V392.075H742.192V426.227ZM783.168 426.227H760.895C759.758 426.227 758.515 426.027 757.167 425.627C755.819 425.227 754.566 424.574 753.407 423.668C752.27 422.741 751.312 421.551 750.532 420.098C749.774 418.623 749.395 416.823 749.395 414.695V403.575C749.395 402.795 749.479 401.974 749.648 401.11C749.837 400.247 750.122 399.394 750.501 398.551C750.88 397.688 751.364 396.866 751.954 396.087C752.565 395.308 753.291 394.623 754.134 394.033C754.997 393.444 755.987 392.97 757.104 392.612C758.22 392.254 759.484 392.075 760.895 392.075H783.168V400.289H760.895C759.821 400.289 758.999 400.563 758.431 401.11C757.883 401.658 757.609 402.5 757.609 403.638V414.695C757.609 415.77 757.894 416.591 758.462 417.16C759.031 417.728 759.863 418.013 760.958 418.013H783.168V426.227ZM824.966 414.917C824.966 416.054 824.766 417.286 824.366 418.613C823.966 419.919 823.313 421.14 822.407 422.278C821.523 423.394 820.354 424.331 818.9 425.09C817.468 425.848 815.72 426.227 813.656 426.227H798.839C797.701 426.227 796.469 426.027 795.142 425.627C793.836 425.227 792.615 424.584 791.477 423.699C790.361 422.794 789.424 421.625 788.666 420.193C787.907 418.739 787.528 416.981 787.528 414.917C787.528 413.779 787.728 412.547 788.128 411.22C788.529 409.893 789.171 408.672 790.056 407.555C790.961 406.418 792.13 405.47 793.562 404.712C795.016 403.954 796.774 403.575 798.839 403.575H813.656V411.41H798.839C797.722 411.41 796.859 411.757 796.248 412.452C795.637 413.126 795.332 413.969 795.332 414.98C795.332 416.054 795.679 416.896 796.374 417.507C797.09 418.097 797.933 418.392 798.902 418.392H813.656C814.772 418.392 815.636 418.055 816.247 417.381C816.857 416.707 817.163 415.864 817.163 414.853V403.385C817.163 402.311 816.826 401.458 816.152 400.826C815.499 400.194 814.667 399.878 813.656 399.878H795.616V392.075H813.656C814.793 392.075 816.015 392.275 817.321 392.675C818.648 393.075 819.869 393.728 820.986 394.634C822.123 395.518 823.071 396.687 823.829 398.14C824.587 399.573 824.966 401.321 824.966 403.385V414.917ZM864.995 414.695C864.995 416.107 864.816 417.381 864.458 418.518C864.1 419.634 863.626 420.624 863.036 421.488C862.447 422.33 861.762 423.057 860.983 423.668C860.203 424.258 859.382 424.742 858.518 425.121C857.676 425.5 856.812 425.785 855.928 425.974C855.064 426.143 854.243 426.227 853.464 426.227H831.222V418.013H853.4C854.517 418.013 855.359 417.728 855.928 417.16C856.496 416.591 856.781 415.77 856.781 414.695C856.675 412.505 855.57 411.41 853.464 411.41H840.731C838.92 411.41 837.382 411.094 836.119 410.462C834.855 409.83 833.823 409.04 833.023 408.092C832.243 407.145 831.675 406.123 831.317 405.028C830.98 403.933 830.811 402.911 830.811 401.963C830.811 400.131 831.138 398.593 831.79 397.351C832.443 396.087 833.265 395.065 834.255 394.286C835.245 393.507 836.319 392.949 837.477 392.612C838.636 392.254 839.72 392.075 840.731 392.075H860.92V400.289H840.795C840.373 400.289 840.036 400.341 839.784 400.447C839.552 400.531 839.373 400.657 839.246 400.826C839.141 400.973 839.078 401.142 839.057 401.331C839.036 401.5 839.025 401.668 839.025 401.837C839.046 402.174 839.11 402.437 839.215 402.627C839.32 402.816 839.447 402.953 839.594 403.037C839.763 403.122 839.942 403.174 840.131 403.195C840.342 403.195 840.542 403.195 840.731 403.195H853.464C855.57 403.195 857.36 403.575 858.834 404.333C860.309 405.091 861.499 406.049 862.404 407.208C863.31 408.345 863.963 409.588 864.363 410.936C864.784 412.284 864.995 413.537 864.995 414.695Z" fill="white"/>
<path d="M28.9249 482.638C28.9249 482.848 28.9184 483.032 28.9053 483.189C28.8921 483.347 28.8659 483.484 28.8266 483.602C28.8003 483.72 28.761 483.825 28.7085 483.917C28.6561 484.009 28.5643 484.12 28.4331 484.251C28.302 484.383 28.0266 484.586 27.6069 484.861C27.1873 485.124 26.6627 485.386 26.0332 485.648C25.4169 485.897 24.7021 486.107 23.8891 486.278C23.0891 486.461 22.2104 486.553 21.2531 486.553C19.6007 486.553 18.1057 486.278 16.768 485.727C15.4435 485.176 14.3091 484.363 13.3649 483.288C12.4338 482.212 11.7125 480.888 11.201 479.314C10.7027 477.727 10.4535 475.904 10.4535 473.845C10.4535 471.734 10.7224 469.852 11.2601 468.2C11.8109 466.547 12.578 465.151 13.5616 464.01C14.5452 462.856 15.7189 461.977 17.0828 461.374C18.4598 460.77 19.981 460.469 21.6465 460.469C22.3809 460.469 23.0957 460.541 23.7907 460.685C24.4858 460.816 25.1284 460.987 25.7185 461.197C26.3086 461.406 26.8332 461.649 27.2922 461.924C27.7512 462.2 28.0659 462.429 28.2364 462.613C28.42 462.783 28.5381 462.915 28.5905 463.006C28.643 463.098 28.6823 463.21 28.7085 463.341C28.7479 463.459 28.7741 463.603 28.7872 463.774C28.8135 463.944 28.8266 464.147 28.8266 464.383C28.8266 464.646 28.8135 464.869 28.7872 465.052C28.761 465.236 28.7217 465.393 28.6692 465.524C28.6167 465.642 28.5512 465.734 28.4725 465.8C28.4069 465.852 28.3217 465.878 28.2168 465.878C28.0332 465.878 27.7774 465.754 27.4496 465.505C27.1217 465.242 26.6955 464.96 26.1709 464.659C25.6595 464.344 25.03 464.062 24.2825 463.813C23.5481 463.551 22.6629 463.42 21.6269 463.42C20.499 463.42 19.4696 463.649 18.5385 464.108C17.6205 464.554 16.8336 465.216 16.1779 466.095C15.5222 466.973 15.0107 468.049 14.6435 469.321C14.2894 470.58 14.1124 472.022 14.1124 473.649C14.1124 475.262 14.2829 476.691 14.6239 477.937C14.9779 479.17 15.4763 480.206 16.1189 481.045C16.7746 481.871 17.5746 482.501 18.5188 482.933C19.463 483.353 20.5318 483.563 21.7252 483.563C22.735 483.563 23.6137 483.438 24.3612 483.189C25.1218 482.94 25.7644 482.665 26.289 482.363C26.8267 482.048 27.266 481.766 27.6069 481.517C27.9479 481.268 28.2168 481.143 28.4135 481.143C28.5053 481.143 28.584 481.163 28.6495 481.202C28.7151 481.242 28.7676 481.32 28.8069 481.438C28.8462 481.543 28.8725 481.694 28.8856 481.891C28.9118 482.088 28.9249 482.337 28.9249 482.638ZM54.3797 473.216C54.3797 475.275 54.137 477.13 53.6518 478.783C53.1666 480.435 52.4388 481.845 51.4683 483.012C50.511 484.166 49.3044 485.058 47.8488 485.687C46.3931 486.304 44.6948 486.612 42.7539 486.612C40.8392 486.612 39.1803 486.33 37.777 485.766C36.3869 485.189 35.2329 484.356 34.3149 483.268C33.41 482.179 32.7346 480.829 32.2887 479.216C31.8428 477.603 31.6199 475.747 31.6199 473.649C31.6199 471.642 31.8625 469.819 32.3477 468.18C32.833 466.541 33.5608 465.151 34.5313 464.01C35.5017 462.856 36.7148 461.97 38.1705 461.354C39.6261 460.725 41.3244 460.41 43.2653 460.41C45.1407 460.41 46.7734 460.692 48.1635 461.256C49.5536 461.82 50.7077 462.646 51.6257 463.734C52.5568 464.81 53.2453 466.147 53.6912 467.747C54.1502 469.334 54.3797 471.157 54.3797 473.216ZM50.8191 473.452C50.8191 472.009 50.688 470.672 50.4257 469.439C50.1765 468.193 49.7503 467.118 49.1471 466.213C48.5569 465.295 47.7635 464.58 46.7668 464.069C45.7702 463.557 44.5374 463.301 43.0686 463.301C41.5998 463.301 40.3671 463.577 39.3704 464.128C38.3737 464.678 37.5607 465.413 36.9312 466.331C36.3148 467.249 35.8689 468.324 35.5935 469.557C35.3312 470.777 35.2001 472.062 35.2001 473.413C35.2001 474.908 35.3247 476.285 35.5738 477.544C35.823 478.803 36.2427 479.891 36.8328 480.809C37.423 481.714 38.2098 482.422 39.1934 482.933C40.1901 483.432 41.4359 483.681 42.9309 483.681C44.4128 483.681 45.6587 483.406 46.6685 482.855C47.6783 482.304 48.4914 481.563 49.1077 480.632C49.7241 479.688 50.1634 478.599 50.4257 477.367C50.688 476.134 50.8191 474.829 50.8191 473.452ZM87.4079 485.727C87.4079 485.832 87.3816 485.924 87.3292 486.002C87.2767 486.081 87.1849 486.146 87.0538 486.199C86.9226 486.238 86.7521 486.271 86.5423 486.297C86.3456 486.337 86.0833 486.356 85.7555 486.356C85.4538 486.356 85.1916 486.337 84.9686 486.297C84.7588 486.271 84.5883 486.238 84.4572 486.199C84.3391 486.146 84.2539 486.081 84.2014 486.002C84.149 485.924 84.1227 485.832 84.1227 485.727V463.557H84.0834L75.0149 485.825C74.9756 485.917 74.9165 485.996 74.8379 486.061C74.7723 486.127 74.6674 486.186 74.5231 486.238C74.392 486.278 74.2281 486.304 74.0313 486.317C73.8477 486.343 73.6248 486.356 73.3625 486.356C73.0871 486.356 72.8511 486.343 72.6543 486.317C72.4576 486.291 72.2937 486.258 72.1626 486.219C72.0314 486.166 71.9265 486.107 71.8478 486.042C71.7822 485.976 71.7363 485.904 71.7101 485.825L63.0351 463.557H63.0154V485.727C63.0154 485.832 62.9892 485.924 62.9367 486.002C62.8842 486.081 62.7924 486.146 62.6613 486.199C62.5302 486.238 62.3597 486.271 62.1498 486.297C61.94 486.337 61.6712 486.356 61.3433 486.356C61.0286 486.356 60.7663 486.337 60.5565 486.297C60.3466 486.271 60.1762 486.238 60.045 486.199C59.927 486.146 59.8417 486.081 59.7893 486.002C59.7499 485.924 59.7303 485.832 59.7303 485.727V462.318C59.7303 461.767 59.8745 461.374 60.163 461.138C60.4515 460.902 60.7728 460.784 61.1269 460.784H63.1728C63.5924 460.784 63.9596 460.823 64.2743 460.902C64.5891 460.98 64.8645 461.105 65.1005 461.275C65.3366 461.446 65.5333 461.662 65.6907 461.924C65.8481 462.187 65.9858 462.495 66.1038 462.849L73.4805 481.281H73.5789L81.2507 462.908C81.395 462.515 81.5524 462.18 81.7228 461.905C81.8933 461.629 82.0769 461.413 82.2736 461.256C82.4835 461.085 82.713 460.967 82.9621 460.902C83.2113 460.823 83.4998 460.784 83.8277 460.784H85.9718C86.1686 460.784 86.3522 460.816 86.5226 460.882C86.7062 460.934 86.8571 461.026 86.9751 461.157C87.1062 461.275 87.2111 461.433 87.2898 461.629C87.3685 461.813 87.4079 462.043 87.4079 462.318V485.727ZM113.335 476.835C113.335 478.383 113.105 479.766 112.646 480.986C112.2 482.193 111.558 483.215 110.718 484.055C109.879 484.894 108.856 485.53 107.65 485.963C106.443 486.396 105.073 486.612 103.538 486.612C102.135 486.612 100.857 486.409 99.7024 486.002C98.5484 485.596 97.5583 484.999 96.7321 484.212C95.9059 483.412 95.2698 482.415 94.824 481.222C94.3781 480.029 94.1551 478.652 94.1551 477.091V461.295C94.1551 461.19 94.1814 461.098 94.2338 461.02C94.2863 460.941 94.3781 460.882 94.5092 460.843C94.6404 460.79 94.8108 460.751 95.0207 460.725C95.2305 460.685 95.5059 460.666 95.8469 460.666C96.1616 460.666 96.4304 460.685 96.6534 460.725C96.8763 460.751 97.0468 460.79 97.1648 460.843C97.296 460.882 97.3878 460.941 97.4402 461.02C97.4927 461.098 97.5189 461.19 97.5189 461.295V476.678C97.5189 477.858 97.6632 478.888 97.9517 479.766C98.2402 480.645 98.6533 481.379 99.191 481.97C99.7418 482.547 100.398 482.986 101.158 483.288C101.932 483.576 102.797 483.72 103.755 483.72C104.738 483.72 105.61 483.576 106.371 483.288C107.145 482.999 107.794 482.566 108.318 481.989C108.856 481.412 109.263 480.698 109.538 479.845C109.827 478.993 109.971 477.996 109.971 476.855V461.295C109.971 461.19 109.997 461.098 110.05 461.02C110.102 460.941 110.194 460.882 110.325 460.843C110.456 460.79 110.627 460.751 110.836 460.725C111.059 460.685 111.335 460.666 111.663 460.666C111.977 460.666 112.24 460.685 112.449 460.725C112.672 460.751 112.843 460.79 112.961 460.843C113.092 460.882 113.184 460.941 113.236 461.02C113.302 461.098 113.335 461.19 113.335 461.295V476.835ZM139.281 484.842C139.281 485.104 139.235 485.327 139.144 485.51C139.065 485.694 138.953 485.845 138.809 485.963C138.678 486.081 138.527 486.166 138.357 486.219C138.186 486.271 138.016 486.297 137.845 486.297H136.763C136.422 486.297 136.121 486.265 135.858 486.199C135.609 486.12 135.367 485.989 135.131 485.806C134.908 485.609 134.678 485.347 134.442 485.019C134.219 484.691 133.97 484.271 133.695 483.76L125.669 469.282C125.249 468.534 124.823 467.754 124.39 466.941C123.97 466.114 123.577 465.315 123.21 464.541H123.17C123.197 465.485 123.216 466.449 123.229 467.432C123.242 468.416 123.249 469.393 123.249 470.364V485.727C123.249 485.819 123.223 485.91 123.17 486.002C123.118 486.081 123.026 486.146 122.895 486.199C122.777 486.238 122.613 486.271 122.403 486.297C122.206 486.337 121.951 486.356 121.636 486.356C121.321 486.356 121.059 486.337 120.849 486.297C120.652 486.271 120.495 486.238 120.377 486.199C120.259 486.146 120.174 486.081 120.121 486.002C120.069 485.91 120.043 485.819 120.043 485.727V462.239C120.043 461.715 120.187 461.341 120.475 461.118C120.764 460.895 121.079 460.784 121.42 460.784H123.033C123.413 460.784 123.728 460.816 123.977 460.882C124.239 460.947 124.469 461.059 124.665 461.216C124.875 461.361 125.072 461.57 125.256 461.846C125.452 462.108 125.662 462.443 125.885 462.849L132.062 474.022C132.442 474.704 132.809 475.373 133.163 476.029C133.517 476.671 133.858 477.307 134.186 477.937C134.514 478.566 134.835 479.189 135.15 479.806C135.478 480.409 135.799 481.019 136.114 481.635H136.134C136.108 480.599 136.088 479.524 136.075 478.409C136.075 477.281 136.075 476.199 136.075 475.163V461.354C136.075 461.262 136.101 461.177 136.153 461.098C136.206 461.02 136.291 460.954 136.409 460.902C136.54 460.836 136.704 460.79 136.901 460.764C137.111 460.738 137.38 460.725 137.707 460.725C137.996 460.725 138.245 460.738 138.455 460.764C138.665 460.79 138.829 460.836 138.947 460.902C139.065 460.954 139.15 461.02 139.203 461.098C139.255 461.177 139.281 461.262 139.281 461.354V484.842ZM149.432 485.727C149.432 485.832 149.405 485.924 149.353 486.002C149.3 486.081 149.209 486.146 149.078 486.199C148.946 486.238 148.769 486.271 148.546 486.297C148.337 486.337 148.068 486.356 147.74 486.356C147.425 486.356 147.156 486.337 146.933 486.297C146.71 486.271 146.533 486.238 146.402 486.199C146.271 486.146 146.179 486.081 146.127 486.002C146.074 485.924 146.048 485.832 146.048 485.727V461.295C146.048 461.19 146.074 461.098 146.127 461.02C146.192 460.941 146.291 460.882 146.422 460.843C146.566 460.79 146.743 460.751 146.953 460.725C147.176 460.685 147.438 460.666 147.74 460.666C148.068 460.666 148.337 460.685 148.546 460.725C148.769 460.751 148.946 460.79 149.078 460.843C149.209 460.882 149.3 460.941 149.353 461.02C149.405 461.098 149.432 461.19 149.432 461.295V485.727ZM173.195 482.638C173.195 482.848 173.188 483.032 173.175 483.189C173.162 483.347 173.136 483.484 173.096 483.602C173.07 483.72 173.031 483.825 172.978 483.917C172.926 484.009 172.834 484.12 172.703 484.251C172.572 484.383 172.296 484.586 171.877 484.861C171.457 485.124 170.932 485.386 170.303 485.648C169.687 485.897 168.972 486.107 168.159 486.278C167.359 486.461 166.48 486.553 165.523 486.553C163.87 486.553 162.375 486.278 161.038 485.727C159.713 485.176 158.579 484.363 157.635 483.288C156.703 482.212 155.982 480.888 155.471 479.314C154.972 477.727 154.723 475.904 154.723 473.845C154.723 471.734 154.992 469.852 155.53 468.2C156.081 466.547 156.848 465.151 157.831 464.01C158.815 462.856 159.989 461.977 161.352 461.374C162.729 460.77 164.251 460.469 165.916 460.469C166.651 460.469 167.365 460.541 168.06 460.685C168.755 460.816 169.398 460.987 169.988 461.197C170.578 461.406 171.103 461.649 171.562 461.924C172.021 462.2 172.336 462.429 172.506 462.613C172.69 462.783 172.808 462.915 172.86 463.006C172.913 463.098 172.952 463.21 172.978 463.341C173.018 463.459 173.044 463.603 173.057 463.774C173.083 463.944 173.096 464.147 173.096 464.383C173.096 464.646 173.083 464.869 173.057 465.052C173.031 465.236 172.991 465.393 172.939 465.524C172.886 465.642 172.821 465.734 172.742 465.8C172.677 465.852 172.591 465.878 172.486 465.878C172.303 465.878 172.047 465.754 171.719 465.505C171.391 465.242 170.965 464.96 170.441 464.659C169.929 464.344 169.3 464.062 168.552 463.813C167.818 463.551 166.933 463.42 165.897 463.42C164.769 463.42 163.739 463.649 162.808 464.108C161.89 464.554 161.103 465.216 160.448 466.095C159.792 466.973 159.28 468.049 158.913 469.321C158.559 470.58 158.382 472.022 158.382 473.649C158.382 475.262 158.553 476.691 158.894 477.937C159.248 479.17 159.746 480.206 160.389 481.045C161.044 481.871 161.844 482.501 162.788 482.933C163.733 483.353 164.802 483.563 165.995 483.563C167.005 483.563 167.883 483.438 168.631 483.189C169.391 482.94 170.034 482.665 170.559 482.363C171.096 482.048 171.536 481.766 171.877 481.517C172.218 481.268 172.486 481.143 172.683 481.143C172.775 481.143 172.854 481.163 172.919 481.202C172.985 481.242 173.037 481.32 173.077 481.438C173.116 481.543 173.142 481.694 173.155 481.891C173.181 482.088 173.195 482.337 173.195 482.638ZM196.741 485.038C196.846 485.327 196.899 485.563 196.899 485.746C196.912 485.917 196.866 486.048 196.761 486.14C196.656 486.232 196.479 486.291 196.23 486.317C195.994 486.343 195.672 486.356 195.266 486.356C194.859 486.356 194.531 486.343 194.282 486.317C194.046 486.304 193.863 486.278 193.731 486.238C193.613 486.186 193.522 486.12 193.456 486.042C193.404 485.963 193.351 485.865 193.299 485.746L191.115 479.55H180.532L178.447 485.668C178.408 485.786 178.355 485.891 178.289 485.983C178.224 486.061 178.126 486.133 177.994 486.199C177.876 486.251 177.699 486.291 177.463 486.317C177.24 486.343 176.945 486.356 176.578 486.356C176.198 486.356 175.883 486.337 175.634 486.297C175.398 486.271 175.227 486.212 175.122 486.12C175.031 486.028 174.985 485.897 174.985 485.727C174.998 485.543 175.057 485.307 175.162 485.019L183.699 461.374C183.752 461.229 183.817 461.111 183.896 461.02C183.988 460.928 184.112 460.856 184.27 460.803C184.44 460.751 184.65 460.718 184.899 460.705C185.161 460.679 185.489 460.666 185.883 460.666C186.302 460.666 186.65 460.679 186.925 460.705C187.201 460.718 187.424 460.751 187.594 460.803C187.765 460.856 187.896 460.934 187.987 461.039C188.079 461.131 188.151 461.249 188.204 461.393L196.741 485.038ZM185.784 464.167H185.765L181.378 476.855H190.23L185.784 464.167ZM217.691 482.638C217.691 482.848 217.685 483.032 217.672 483.189C217.658 483.347 217.632 483.484 217.593 483.602C217.567 483.72 217.527 483.825 217.475 483.917C217.422 484.009 217.331 484.12 217.199 484.251C217.068 484.383 216.793 484.586 216.373 484.861C215.954 485.124 215.429 485.386 214.8 485.648C214.183 485.897 213.468 486.107 212.655 486.278C211.855 486.461 210.977 486.553 210.019 486.553C208.367 486.553 206.872 486.278 205.534 485.727C204.21 485.176 203.075 484.363 202.131 483.288C201.2 482.212 200.479 480.888 199.967 479.314C199.469 477.727 199.22 475.904 199.22 473.845C199.22 471.734 199.489 469.852 200.026 468.2C200.577 466.547 201.344 465.151 202.328 464.01C203.311 462.856 204.485 461.977 205.849 461.374C207.226 460.77 208.747 460.469 210.413 460.469C211.147 460.469 211.862 460.541 212.557 460.685C213.252 460.816 213.895 460.987 214.485 461.197C215.075 461.406 215.599 461.649 216.058 461.924C216.517 462.2 216.832 462.429 217.003 462.613C217.186 462.783 217.304 462.915 217.357 463.006C217.409 463.098 217.449 463.21 217.475 463.341C217.514 463.459 217.54 463.603 217.554 463.774C217.58 463.944 217.593 464.147 217.593 464.383C217.593 464.646 217.58 464.869 217.554 465.052C217.527 465.236 217.488 465.393 217.435 465.524C217.383 465.642 217.317 465.734 217.239 465.8C217.173 465.852 217.088 465.878 216.983 465.878C216.799 465.878 216.544 465.754 216.216 465.505C215.888 465.242 215.462 464.96 214.937 464.659C214.426 464.344 213.796 464.062 213.049 463.813C212.314 463.551 211.429 463.42 210.393 463.42C209.265 463.42 208.236 463.649 207.305 464.108C206.387 464.554 205.6 465.216 204.944 466.095C204.288 466.973 203.777 468.049 203.41 469.321C203.056 470.58 202.879 472.022 202.879 473.649C202.879 475.262 203.049 476.691 203.39 477.937C203.744 479.17 204.243 480.206 204.885 481.045C205.541 481.871 206.341 482.501 207.285 482.933C208.229 483.353 209.298 483.563 210.491 483.563C211.501 483.563 212.38 483.438 213.127 483.189C213.888 482.94 214.531 482.665 215.055 482.363C215.593 482.048 216.032 481.766 216.373 481.517C216.714 481.268 216.983 481.143 217.18 481.143C217.272 481.143 217.35 481.163 217.416 481.202C217.481 481.242 217.534 481.32 217.573 481.438C217.613 481.543 217.639 481.694 217.652 481.891C217.678 482.088 217.691 482.337 217.691 482.638ZM225.56 485.727C225.56 485.832 225.534 485.924 225.481 486.002C225.429 486.081 225.337 486.146 225.206 486.199C225.075 486.238 224.897 486.271 224.675 486.297C224.465 486.337 224.196 486.356 223.868 486.356C223.553 486.356 223.284 486.337 223.061 486.297C222.839 486.271 222.661 486.238 222.53 486.199C222.399 486.146 222.307 486.081 222.255 486.002C222.203 485.924 222.176 485.832 222.176 485.727V461.295C222.176 461.19 222.203 461.098 222.255 461.02C222.321 460.941 222.419 460.882 222.55 460.843C222.694 460.79 222.871 460.751 223.081 460.725C223.304 460.685 223.566 460.666 223.868 460.666C224.196 460.666 224.465 460.685 224.675 460.725C224.897 460.751 225.075 460.79 225.206 460.843C225.337 460.882 225.429 460.941 225.481 461.02C225.534 461.098 225.56 461.19 225.56 461.295V485.727ZM253.65 473.216C253.65 475.275 253.408 477.13 252.923 478.783C252.437 480.435 251.71 481.845 250.739 483.012C249.782 484.166 248.575 485.058 247.12 485.687C245.664 486.304 243.966 486.612 242.025 486.612C240.11 486.612 238.451 486.33 237.048 485.766C235.658 485.189 234.504 484.356 233.586 483.268C232.681 482.179 232.005 480.829 231.56 479.216C231.114 477.603 230.891 475.747 230.891 473.649C230.891 471.642 231.133 469.819 231.619 468.18C232.104 466.541 232.832 465.151 233.802 464.01C234.772 462.856 235.986 461.97 237.441 461.354C238.897 460.725 240.595 460.41 242.536 460.41C244.411 460.41 246.044 460.692 247.434 461.256C248.824 461.82 249.978 462.646 250.896 463.734C251.828 464.81 252.516 466.147 252.962 467.747C253.421 469.334 253.65 471.157 253.65 473.216ZM250.09 473.452C250.09 472.009 249.959 470.672 249.696 469.439C249.447 468.193 249.021 467.118 248.418 466.213C247.828 465.295 247.034 464.58 246.038 464.069C245.041 463.557 243.808 463.301 242.339 463.301C240.871 463.301 239.638 463.577 238.641 464.128C237.645 464.678 236.831 465.413 236.202 466.331C235.586 467.249 235.14 468.324 234.864 469.557C234.602 470.777 234.471 472.062 234.471 473.413C234.471 474.908 234.595 476.285 234.845 477.544C235.094 478.803 235.513 479.891 236.104 480.809C236.694 481.714 237.481 482.422 238.464 482.933C239.461 483.432 240.707 483.681 242.202 483.681C243.684 483.681 244.929 483.406 245.939 482.855C246.949 482.304 247.762 481.563 248.379 480.632C248.995 479.688 249.434 478.599 249.696 477.367C249.959 476.134 250.09 474.829 250.09 473.452ZM278.24 484.842C278.24 485.104 278.194 485.327 278.102 485.51C278.023 485.694 277.912 485.845 277.768 485.963C277.636 486.081 277.486 486.166 277.315 486.219C277.145 486.271 276.974 486.297 276.804 486.297H275.722C275.381 486.297 275.079 486.265 274.817 486.199C274.568 486.12 274.325 485.989 274.089 485.806C273.866 485.609 273.637 485.347 273.4 485.019C273.178 484.691 272.928 484.271 272.653 483.76L264.627 469.282C264.207 468.534 263.781 467.754 263.348 466.941C262.929 466.114 262.535 465.315 262.168 464.541H262.129C262.155 465.485 262.175 466.449 262.188 467.432C262.201 468.416 262.207 469.393 262.207 470.364V485.727C262.207 485.819 262.181 485.91 262.129 486.002C262.076 486.081 261.985 486.146 261.853 486.199C261.735 486.238 261.571 486.271 261.362 486.297C261.165 486.337 260.909 486.356 260.594 486.356C260.28 486.356 260.017 486.337 259.808 486.297C259.611 486.271 259.453 486.238 259.335 486.199C259.217 486.146 259.132 486.081 259.08 486.002C259.027 485.91 259.001 485.819 259.001 485.727V462.239C259.001 461.715 259.145 461.341 259.434 461.118C259.722 460.895 260.037 460.784 260.378 460.784H261.991C262.371 460.784 262.686 460.816 262.935 460.882C263.198 460.947 263.427 461.059 263.624 461.216C263.834 461.361 264.03 461.57 264.214 461.846C264.411 462.108 264.62 462.443 264.843 462.849L271.02 474.022C271.401 474.704 271.768 475.373 272.122 476.029C272.476 476.671 272.817 477.307 273.145 477.937C273.473 478.566 273.794 479.189 274.109 479.806C274.436 480.409 274.758 481.019 275.073 481.635H275.092C275.066 480.599 275.046 479.524 275.033 478.409C275.033 477.281 275.033 476.199 275.033 475.163V461.354C275.033 461.262 275.059 461.177 275.112 461.098C275.164 461.02 275.25 460.954 275.368 460.902C275.499 460.836 275.663 460.79 275.859 460.764C276.069 460.738 276.338 460.725 276.666 460.725C276.954 460.725 277.204 460.738 277.413 460.764C277.623 460.79 277.787 460.836 277.905 460.902C278.023 460.954 278.108 461.02 278.161 461.098C278.213 461.177 278.24 461.262 278.24 461.354V484.842ZM299.17 484.842C299.17 485.078 299.157 485.287 299.131 485.471C299.104 485.642 299.058 485.786 298.993 485.904C298.927 486.022 298.849 486.107 298.757 486.16C298.678 486.212 298.586 486.238 298.481 486.238H286.266C285.964 486.238 285.675 486.14 285.4 485.943C285.138 485.733 285.007 485.373 285.007 484.861V462.161C285.007 461.649 285.138 461.295 285.4 461.098C285.675 460.888 285.964 460.784 286.266 460.784H298.344C298.449 460.784 298.54 460.81 298.619 460.862C298.711 460.915 298.783 461 298.836 461.118C298.888 461.236 298.927 461.387 298.954 461.57C298.993 461.741 299.013 461.957 299.013 462.22C299.013 462.456 298.993 462.665 298.954 462.849C298.927 463.02 298.888 463.164 298.836 463.282C298.783 463.387 298.711 463.465 298.619 463.518C298.54 463.57 298.449 463.597 298.344 463.597H288.39V471.583H296.927C297.032 471.583 297.124 471.616 297.203 471.681C297.295 471.734 297.367 471.813 297.419 471.918C297.485 472.022 297.531 472.167 297.557 472.35C297.583 472.534 297.596 472.75 297.596 472.999C297.596 473.236 297.583 473.439 297.557 473.609C297.531 473.78 297.485 473.917 297.419 474.022C297.367 474.127 297.295 474.206 297.203 474.258C297.124 474.298 297.032 474.317 296.927 474.317H288.39V483.425H298.481C298.586 483.425 298.678 483.452 298.757 483.504C298.849 483.556 298.927 483.642 298.993 483.76C299.058 483.865 299.104 484.009 299.131 484.192C299.157 484.363 299.17 484.579 299.17 484.842ZM317.956 479.098C317.956 480.291 317.733 481.353 317.287 482.284C316.854 483.215 316.245 484.009 315.458 484.665C314.684 485.307 313.766 485.792 312.704 486.12C311.655 486.448 310.52 486.612 309.301 486.612C308.448 486.612 307.655 486.54 306.92 486.396C306.199 486.251 305.55 486.074 304.973 485.865C304.409 485.655 303.93 485.438 303.537 485.215C303.157 484.992 302.888 484.802 302.73 484.645C302.586 484.488 302.475 484.291 302.396 484.055C302.33 483.806 302.298 483.478 302.298 483.071C302.298 482.783 302.311 482.547 302.337 482.363C302.363 482.166 302.403 482.009 302.455 481.891C302.508 481.773 302.573 481.694 302.652 481.655C302.73 481.602 302.822 481.576 302.927 481.576C303.111 481.576 303.367 481.688 303.694 481.911C304.035 482.134 304.468 482.376 304.993 482.638C305.517 482.901 306.147 483.15 306.881 483.386C307.629 483.609 308.488 483.72 309.458 483.72C310.192 483.72 310.861 483.622 311.465 483.425C312.081 483.229 312.605 482.953 313.038 482.599C313.484 482.232 313.825 481.786 314.061 481.261C314.297 480.737 314.415 480.14 314.415 479.471C314.415 478.75 314.251 478.134 313.923 477.622C313.596 477.111 313.163 476.665 312.625 476.285C312.087 475.891 311.471 475.537 310.776 475.222C310.094 474.894 309.392 474.567 308.671 474.239C307.95 473.898 307.248 473.524 306.566 473.117C305.884 472.711 305.275 472.232 304.737 471.681C304.199 471.131 303.76 470.488 303.419 469.754C303.091 469.006 302.927 468.114 302.927 467.078C302.927 466.016 303.117 465.072 303.498 464.246C303.891 463.406 304.429 462.705 305.111 462.141C305.806 461.577 306.625 461.151 307.57 460.862C308.527 460.561 309.556 460.41 310.658 460.41C311.222 460.41 311.786 460.462 312.35 460.567C312.927 460.659 313.464 460.79 313.963 460.961C314.474 461.118 314.927 461.302 315.32 461.511C315.714 461.708 315.969 461.872 316.087 462.003C316.218 462.121 316.304 462.22 316.343 462.298C316.382 462.364 316.415 462.456 316.441 462.574C316.468 462.679 316.487 462.81 316.5 462.967C316.514 463.124 316.52 463.328 316.52 463.577C316.52 463.813 316.507 464.023 316.481 464.206C316.468 464.39 316.441 464.547 316.402 464.678C316.363 464.797 316.304 464.888 316.225 464.954C316.159 465.006 316.081 465.033 315.989 465.033C315.845 465.033 315.615 464.941 315.3 464.757C314.999 464.574 314.625 464.37 314.179 464.147C313.733 463.911 313.202 463.701 312.586 463.518C311.983 463.321 311.301 463.223 310.54 463.223C309.832 463.223 309.215 463.321 308.691 463.518C308.166 463.701 307.734 463.951 307.393 464.265C307.052 464.58 306.796 464.954 306.625 465.387C306.455 465.819 306.37 466.278 306.37 466.764C306.37 467.472 306.534 468.082 306.861 468.593C307.189 469.105 307.622 469.557 308.16 469.95C308.711 470.344 309.333 470.704 310.029 471.032C310.724 471.36 311.432 471.695 312.153 472.036C312.874 472.363 313.582 472.731 314.278 473.137C314.973 473.531 315.589 474.003 316.127 474.553C316.677 475.091 317.117 475.734 317.445 476.481C317.786 477.216 317.956 478.088 317.956 479.098ZM339.359 492.789C339.359 492.894 339.332 492.986 339.28 493.064C339.24 493.143 339.162 493.208 339.044 493.261C338.926 493.313 338.768 493.353 338.572 493.379C338.375 493.405 338.126 493.418 337.824 493.418C337.536 493.418 337.293 493.405 337.096 493.379C336.9 493.353 336.742 493.313 336.624 493.261C336.506 493.208 336.421 493.143 336.368 493.064C336.329 492.986 336.309 492.894 336.309 492.789V458.639C336.309 458.548 336.329 458.462 336.368 458.384C336.421 458.305 336.506 458.239 336.624 458.187C336.742 458.134 336.9 458.095 337.096 458.069C337.293 458.043 337.536 458.03 337.824 458.03C338.126 458.03 338.375 458.043 338.572 458.069C338.768 458.095 338.926 458.134 339.044 458.187C339.162 458.239 339.24 458.305 339.28 458.384C339.332 458.462 339.359 458.548 339.359 458.639V492.789ZM363.023 485.727C363.023 485.832 362.997 485.924 362.944 486.002C362.892 486.081 362.8 486.146 362.669 486.199C362.538 486.238 362.361 486.271 362.138 486.297C361.928 486.337 361.659 486.356 361.331 486.356C361.017 486.356 360.748 486.337 360.525 486.297C360.302 486.271 360.125 486.238 359.994 486.199C359.863 486.146 359.771 486.081 359.718 486.002C359.666 485.924 359.64 485.832 359.64 485.727V461.295C359.64 461.19 359.666 461.098 359.718 461.02C359.784 460.941 359.882 460.882 360.013 460.843C360.158 460.79 360.335 460.751 360.545 460.725C360.767 460.685 361.03 460.666 361.331 460.666C361.659 460.666 361.928 460.685 362.138 460.725C362.361 460.751 362.538 460.79 362.669 460.843C362.8 460.882 362.892 460.941 362.944 461.02C362.997 461.098 363.023 461.19 363.023 461.295V485.727ZM389.029 484.842C389.029 485.104 388.983 485.327 388.891 485.51C388.812 485.694 388.701 485.845 388.557 485.963C388.425 486.081 388.275 486.166 388.104 486.219C387.934 486.271 387.763 486.297 387.593 486.297H386.511C386.17 486.297 385.868 486.265 385.606 486.199C385.357 486.12 385.114 485.989 384.878 485.806C384.655 485.609 384.426 485.347 384.19 485.019C383.967 484.691 383.717 484.271 383.442 483.76L375.416 469.282C374.996 468.534 374.57 467.754 374.137 466.941C373.718 466.114 373.324 465.315 372.957 464.541H372.918C372.944 465.485 372.964 466.449 372.977 467.432C372.99 468.416 372.997 469.393 372.997 470.364V485.727C372.997 485.819 372.97 485.91 372.918 486.002C372.865 486.081 372.774 486.146 372.642 486.199C372.524 486.238 372.36 486.271 372.151 486.297C371.954 486.337 371.698 486.356 371.383 486.356C371.069 486.356 370.806 486.337 370.597 486.297C370.4 486.271 370.243 486.238 370.125 486.199C370.006 486.146 369.921 486.081 369.869 486.002C369.816 485.91 369.79 485.819 369.79 485.727V462.239C369.79 461.715 369.934 461.341 370.223 461.118C370.511 460.895 370.826 460.784 371.167 460.784H372.78C373.16 460.784 373.475 460.816 373.724 460.882C373.987 460.947 374.216 461.059 374.413 461.216C374.623 461.361 374.819 461.57 375.003 461.846C375.2 462.108 375.41 462.443 375.632 462.849L381.809 474.022C382.19 474.704 382.557 475.373 382.911 476.029C383.265 476.671 383.606 477.307 383.934 477.937C384.262 478.566 384.583 479.189 384.898 479.806C385.226 480.409 385.547 481.019 385.862 481.635H385.881C385.855 480.599 385.835 479.524 385.822 478.409C385.822 477.281 385.822 476.199 385.822 475.163V461.354C385.822 461.262 385.848 461.177 385.901 461.098C385.953 461.02 386.039 460.954 386.157 460.902C386.288 460.836 386.452 460.79 386.648 460.764C386.858 460.738 387.127 460.725 387.455 460.725C387.743 460.725 387.993 460.738 388.202 460.764C388.412 460.79 388.576 460.836 388.694 460.902C388.812 460.954 388.898 461.02 388.95 461.098C389.002 461.177 389.029 461.262 389.029 461.354V484.842ZM409.172 462.239C409.172 462.488 409.159 462.705 409.133 462.888C409.107 463.072 409.061 463.223 408.995 463.341C408.93 463.446 408.851 463.524 408.759 463.577C408.68 463.629 408.595 463.656 408.503 463.656H399.179V472.311H407.992C408.084 472.311 408.169 472.337 408.248 472.39C408.339 472.429 408.418 472.501 408.484 472.606C408.549 472.711 408.595 472.855 408.621 473.039C408.648 473.209 408.661 473.432 408.661 473.708C408.661 473.957 408.648 474.173 408.621 474.357C408.595 474.527 408.549 474.672 408.484 474.79C408.418 474.894 408.339 474.98 408.248 475.045C408.169 475.098 408.084 475.124 407.992 475.124H399.179V485.727C399.179 485.819 399.153 485.91 399.1 486.002C399.048 486.081 398.956 486.146 398.825 486.199C398.694 486.238 398.523 486.271 398.314 486.297C398.104 486.337 397.828 486.356 397.487 486.356C397.173 486.356 396.904 486.337 396.681 486.297C396.458 486.271 396.281 486.238 396.15 486.199C396.019 486.146 395.927 486.081 395.874 486.002C395.822 485.91 395.796 485.819 395.796 485.727V462.161C395.796 461.649 395.927 461.295 396.189 461.098C396.464 460.888 396.753 460.784 397.055 460.784H408.503C408.595 460.784 408.68 460.81 408.759 460.862C408.851 460.915 408.93 461 408.995 461.118C409.061 461.236 409.107 461.393 409.133 461.59C409.159 461.774 409.172 461.99 409.172 462.239ZM435.296 473.216C435.296 475.275 435.053 477.13 434.568 478.783C434.083 480.435 433.355 481.845 432.384 483.012C431.427 484.166 430.22 485.058 428.765 485.687C427.309 486.304 425.611 486.612 423.67 486.612C421.755 486.612 420.096 486.33 418.693 485.766C417.303 485.189 416.149 484.356 415.231 483.268C414.326 482.179 413.651 480.829 413.205 479.216C412.759 477.603 412.536 475.747 412.536 473.649C412.536 471.642 412.779 469.819 413.264 468.18C413.749 466.541 414.477 465.151 415.447 464.01C416.418 462.856 417.631 461.97 419.086 461.354C420.542 460.725 422.24 460.41 424.181 460.41C426.057 460.41 427.689 460.692 429.08 461.256C430.47 461.82 431.624 462.646 432.542 463.734C433.473 464.81 434.161 466.147 434.607 467.747C435.066 469.334 435.296 471.157 435.296 473.216ZM431.735 473.452C431.735 472.009 431.604 470.672 431.342 469.439C431.093 468.193 430.666 467.118 430.063 466.213C429.473 465.295 428.68 464.58 427.683 464.069C426.686 463.557 425.453 463.301 423.985 463.301C422.516 463.301 421.283 463.577 420.286 464.128C419.29 464.678 418.477 465.413 417.847 466.331C417.231 467.249 416.785 468.324 416.51 469.557C416.247 470.777 416.116 472.062 416.116 473.413C416.116 474.908 416.241 476.285 416.49 477.544C416.739 478.803 417.159 479.891 417.749 480.809C418.339 481.714 419.126 482.422 420.109 482.933C421.106 483.432 422.352 483.681 423.847 483.681C425.329 483.681 426.575 483.406 427.585 482.855C428.594 482.304 429.407 481.563 430.024 480.632C430.64 479.688 431.079 478.599 431.342 477.367C431.604 476.134 431.735 474.829 431.735 473.452ZM457.623 485.727C457.623 485.832 457.603 485.924 457.564 486.002C457.524 486.081 457.439 486.146 457.308 486.199C457.177 486.251 456.993 486.291 456.757 486.317C456.521 486.343 456.206 486.356 455.813 486.356C455.472 486.356 455.19 486.343 454.967 486.317C454.757 486.291 454.587 486.251 454.456 486.199C454.324 486.133 454.22 486.048 454.141 485.943C454.075 485.838 454.016 485.707 453.964 485.55L451.623 479.55C451.348 478.868 451.059 478.245 450.757 477.681C450.469 477.104 450.121 476.612 449.715 476.206C449.308 475.786 448.83 475.465 448.279 475.242C447.728 475.006 447.066 474.888 446.292 474.888H444.03V485.727C444.03 485.832 443.997 485.924 443.931 486.002C443.879 486.081 443.787 486.146 443.656 486.199C443.538 486.238 443.367 486.271 443.145 486.297C442.935 486.337 442.666 486.356 442.338 486.356C442.01 486.356 441.735 486.337 441.512 486.297C441.302 486.271 441.132 486.238 441 486.199C440.869 486.146 440.777 486.081 440.725 486.002C440.673 485.924 440.646 485.832 440.646 485.727V462.161C440.646 461.649 440.777 461.295 441.04 461.098C441.315 460.888 441.604 460.784 441.905 460.784H447.315C447.957 460.784 448.489 460.803 448.908 460.843C449.341 460.869 449.728 460.902 450.069 460.941C451.052 461.111 451.918 461.38 452.665 461.747C453.426 462.115 454.062 462.58 454.574 463.144C455.085 463.708 455.465 464.357 455.715 465.092C455.977 465.813 456.108 466.613 456.108 467.491C456.108 468.344 455.99 469.111 455.754 469.793C455.531 470.462 455.203 471.059 454.77 471.583C454.338 472.095 453.82 472.54 453.216 472.921C452.613 473.301 451.938 473.622 451.19 473.885C451.61 474.068 451.99 474.304 452.331 474.593C452.672 474.868 452.987 475.203 453.275 475.596C453.577 475.99 453.859 476.442 454.121 476.953C454.383 477.465 454.646 478.042 454.908 478.684L457.19 484.291C457.373 484.763 457.492 485.097 457.544 485.294C457.596 485.478 457.623 485.622 457.623 485.727ZM452.528 467.846C452.528 466.849 452.305 466.01 451.859 465.328C451.413 464.633 450.666 464.134 449.616 463.833C449.289 463.741 448.915 463.675 448.495 463.636C448.089 463.597 447.551 463.577 446.882 463.577H444.03V472.154H447.335C448.226 472.154 448.993 472.049 449.636 471.839C450.292 471.616 450.836 471.314 451.269 470.934C451.702 470.541 452.016 470.082 452.213 469.557C452.423 469.032 452.528 468.462 452.528 467.846ZM490.198 485.727C490.198 485.832 490.172 485.924 490.12 486.002C490.067 486.081 489.975 486.146 489.844 486.199C489.713 486.238 489.543 486.271 489.333 486.297C489.136 486.337 488.874 486.356 488.546 486.356C488.244 486.356 487.982 486.337 487.759 486.297C487.549 486.271 487.379 486.238 487.248 486.199C487.13 486.146 487.044 486.081 486.992 486.002C486.94 485.924 486.913 485.832 486.913 485.727V463.557H486.874L477.805 485.825C477.766 485.917 477.707 485.996 477.628 486.061C477.563 486.127 477.458 486.186 477.314 486.238C477.183 486.278 477.019 486.304 476.822 486.317C476.638 486.343 476.415 486.356 476.153 486.356C475.878 486.356 475.642 486.343 475.445 486.317C475.248 486.291 475.084 486.258 474.953 486.219C474.822 486.166 474.717 486.107 474.638 486.042C474.573 485.976 474.527 485.904 474.501 485.825L465.826 463.557H465.806V485.727C465.806 485.832 465.78 485.924 465.727 486.002C465.675 486.081 465.583 486.146 465.452 486.199C465.321 486.238 465.15 486.271 464.94 486.297C464.731 486.337 464.462 486.356 464.134 486.356C463.819 486.356 463.557 486.337 463.347 486.297C463.137 486.271 462.967 486.238 462.836 486.199C462.718 486.146 462.632 486.081 462.58 486.002C462.541 485.924 462.521 485.832 462.521 485.727V462.318C462.521 461.767 462.665 461.374 462.954 461.138C463.242 460.902 463.563 460.784 463.917 460.784H465.963C466.383 460.784 466.75 460.823 467.065 460.902C467.38 460.98 467.655 461.105 467.891 461.275C468.127 461.446 468.324 461.662 468.481 461.924C468.639 462.187 468.776 462.495 468.894 462.849L476.271 481.281H476.369L484.041 462.908C484.186 462.515 484.343 462.18 484.513 461.905C484.684 461.629 484.867 461.413 485.064 461.256C485.274 461.085 485.504 460.967 485.753 460.902C486.002 460.823 486.29 460.784 486.618 460.784H488.762C488.959 460.784 489.143 460.816 489.313 460.882C489.497 460.934 489.648 461.026 489.766 461.157C489.897 461.275 490.002 461.433 490.08 461.629C490.159 461.813 490.198 462.043 490.198 462.318V485.727ZM516.047 485.038C516.151 485.327 516.204 485.563 516.204 485.746C516.217 485.917 516.171 486.048 516.066 486.14C515.961 486.232 515.784 486.291 515.535 486.317C515.299 486.343 514.978 486.356 514.571 486.356C514.165 486.356 513.837 486.343 513.588 486.317C513.352 486.304 513.168 486.278 513.037 486.238C512.919 486.186 512.827 486.12 512.761 486.042C512.709 485.963 512.657 485.865 512.604 485.746L510.421 479.55H499.837L497.752 485.668C497.713 485.786 497.66 485.891 497.595 485.983C497.529 486.061 497.431 486.133 497.3 486.199C497.182 486.251 497.005 486.291 496.769 486.317C496.546 486.343 496.251 486.356 495.883 486.356C495.503 486.356 495.188 486.337 494.939 486.297C494.703 486.271 494.533 486.212 494.428 486.12C494.336 486.028 494.29 485.897 494.29 485.727C494.303 485.543 494.362 485.307 494.467 485.019L503.004 461.374C503.057 461.229 503.122 461.111 503.201 461.02C503.293 460.928 503.418 460.856 503.575 460.803C503.745 460.751 503.955 460.718 504.204 460.705C504.467 460.679 504.795 460.666 505.188 460.666C505.608 460.666 505.955 460.679 506.231 460.705C506.506 460.718 506.729 460.751 506.899 460.803C507.07 460.856 507.201 460.934 507.293 461.039C507.385 461.131 507.457 461.249 507.509 461.393L516.047 485.038ZM505.09 464.167H505.07L500.683 476.855H509.535L505.09 464.167ZM533.121 462.239C533.121 462.488 533.108 462.705 533.082 462.888C533.056 463.072 533.01 463.223 532.944 463.341C532.892 463.446 532.82 463.524 532.728 463.577C532.649 463.629 532.557 463.656 532.453 463.656H525.292V485.727C525.292 485.832 525.266 485.924 525.213 486.002C525.161 486.081 525.069 486.146 524.938 486.199C524.807 486.238 524.63 486.271 524.407 486.297C524.197 486.337 523.928 486.356 523.6 486.356C523.286 486.356 523.017 486.337 522.794 486.297C522.571 486.271 522.394 486.238 522.263 486.199C522.132 486.146 522.04 486.081 521.987 486.002C521.935 485.924 521.909 485.832 521.909 485.727V463.656H514.748C514.643 463.656 514.545 463.629 514.453 463.577C514.375 463.524 514.309 463.446 514.257 463.341C514.204 463.223 514.158 463.072 514.119 462.888C514.093 462.705 514.079 462.488 514.079 462.239C514.079 461.99 514.093 461.774 514.119 461.59C514.158 461.393 514.204 461.236 514.257 461.118C514.309 461 514.375 460.915 514.453 460.862C514.545 460.81 514.643 460.784 514.748 460.784H532.453C532.557 460.784 532.649 460.81 532.728 460.862C532.82 460.915 532.892 461 532.944 461.118C533.01 461.236 533.056 461.393 533.082 461.59C533.108 461.774 533.121 461.99 533.121 462.239ZM540.183 485.727C540.183 485.832 540.157 485.924 540.105 486.002C540.052 486.081 539.96 486.146 539.829 486.199C539.698 486.238 539.521 486.271 539.298 486.297C539.088 486.337 538.819 486.356 538.492 486.356C538.177 486.356 537.908 486.337 537.685 486.297C537.462 486.271 537.285 486.238 537.154 486.199C537.023 486.146 536.931 486.081 536.879 486.002C536.826 485.924 536.8 485.832 536.8 485.727V461.295C536.8 461.19 536.826 461.098 536.879 461.02C536.944 460.941 537.042 460.882 537.174 460.843C537.318 460.79 537.495 460.751 537.705 460.725C537.928 460.685 538.19 460.666 538.492 460.666C538.819 460.666 539.088 460.685 539.298 460.725C539.521 460.751 539.698 460.79 539.829 460.843C539.96 460.882 540.052 460.941 540.105 461.02C540.157 461.098 540.183 461.19 540.183 461.295V485.727ZM563.946 482.638C563.946 482.848 563.94 483.032 563.927 483.189C563.914 483.347 563.887 483.484 563.848 483.602C563.822 483.72 563.782 483.825 563.73 483.917C563.678 484.009 563.586 484.12 563.455 484.251C563.323 484.383 563.048 484.586 562.628 484.861C562.209 485.124 561.684 485.386 561.055 485.648C560.438 485.897 559.724 486.107 558.91 486.278C558.111 486.461 557.232 486.553 556.275 486.553C554.622 486.553 553.127 486.278 551.789 485.727C550.465 485.176 549.331 484.363 548.386 483.288C547.455 482.212 546.734 480.888 546.222 479.314C545.724 477.727 545.475 475.904 545.475 473.845C545.475 471.734 545.744 469.852 546.281 468.2C546.832 466.547 547.599 465.151 548.583 464.01C549.567 462.856 550.74 461.977 552.104 461.374C553.481 460.77 555.002 460.469 556.668 460.469C557.402 460.469 558.117 460.541 558.812 460.685C559.507 460.816 560.15 460.987 560.74 461.197C561.33 461.406 561.855 461.649 562.314 461.924C562.773 462.2 563.087 462.429 563.258 462.613C563.441 462.783 563.559 462.915 563.612 463.006C563.664 463.098 563.704 463.21 563.73 463.341C563.769 463.459 563.796 463.603 563.809 463.774C563.835 463.944 563.848 464.147 563.848 464.383C563.848 464.646 563.835 464.869 563.809 465.052C563.782 465.236 563.743 465.393 563.691 465.524C563.638 465.642 563.573 465.734 563.494 465.8C563.428 465.852 563.343 465.878 563.238 465.878C563.055 465.878 562.799 465.754 562.471 465.505C562.143 465.242 561.717 464.96 561.192 464.659C560.681 464.344 560.051 464.062 559.304 463.813C558.57 463.551 557.684 463.42 556.648 463.42C555.52 463.42 554.491 463.649 553.56 464.108C552.642 464.554 551.855 465.216 551.199 466.095C550.544 466.973 550.032 468.049 549.665 469.321C549.311 470.58 549.134 472.022 549.134 473.649C549.134 475.262 549.304 476.691 549.645 477.937C549.999 479.17 550.498 480.206 551.14 481.045C551.796 481.871 552.596 482.501 553.54 482.933C554.484 483.353 555.553 483.563 556.747 483.563C557.756 483.563 558.635 483.438 559.383 483.189C560.143 482.94 560.786 482.665 561.31 482.363C561.848 482.048 562.287 481.766 562.628 481.517C562.969 481.268 563.238 481.143 563.435 481.143C563.527 481.143 563.605 481.163 563.671 481.202C563.737 481.242 563.789 481.32 563.828 481.438C563.868 481.543 563.894 481.694 563.907 481.891C563.933 482.088 563.946 482.337 563.946 482.638ZM587.493 485.038C587.598 485.327 587.65 485.563 587.65 485.746C587.663 485.917 587.618 486.048 587.513 486.14C587.408 486.232 587.231 486.291 586.981 486.317C586.745 486.343 586.424 486.356 586.018 486.356C585.611 486.356 585.283 486.343 585.034 486.317C584.798 486.304 584.614 486.278 584.483 486.238C584.365 486.186 584.273 486.12 584.208 486.042C584.155 485.963 584.103 485.865 584.05 485.746L581.867 479.55H571.284L569.199 485.668C569.159 485.786 569.107 485.891 569.041 485.983C568.976 486.061 568.877 486.133 568.746 486.199C568.628 486.251 568.451 486.291 568.215 486.317C567.992 486.343 567.697 486.356 567.33 486.356C566.949 486.356 566.635 486.337 566.386 486.297C566.15 486.271 565.979 486.212 565.874 486.12C565.782 486.028 565.736 485.897 565.736 485.727C565.75 485.543 565.809 485.307 565.913 485.019L574.451 461.374C574.503 461.229 574.569 461.111 574.648 461.02C574.739 460.928 574.864 460.856 575.021 460.803C575.192 460.751 575.402 460.718 575.651 460.705C575.913 460.679 576.241 460.666 576.634 460.666C577.054 460.666 577.402 460.679 577.677 460.705C577.952 460.718 578.175 460.751 578.346 460.803C578.516 460.856 578.647 460.934 578.739 461.039C578.831 461.131 578.903 461.249 578.956 461.393L587.493 485.038ZM576.536 464.167H576.516L572.13 476.855H580.982L576.536 464.167ZM608.305 492.789C608.305 492.894 608.279 492.986 608.227 493.064C608.187 493.143 608.109 493.208 607.991 493.261C607.872 493.313 607.715 493.353 607.518 493.379C607.322 493.405 607.073 493.418 606.771 493.418C606.482 493.418 606.24 493.405 606.043 493.379C605.846 493.353 605.689 493.313 605.571 493.261C605.453 493.208 605.368 493.143 605.315 493.064C605.276 492.986 605.256 492.894 605.256 492.789V458.639C605.256 458.548 605.276 458.462 605.315 458.384C605.368 458.305 605.453 458.239 605.571 458.187C605.689 458.134 605.846 458.095 606.043 458.069C606.24 458.043 606.482 458.03 606.771 458.03C607.073 458.03 607.322 458.043 607.518 458.069C607.715 458.095 607.872 458.134 607.991 458.187C608.109 458.239 608.187 458.305 608.227 458.384C608.279 458.462 608.305 458.548 608.305 458.639V492.789ZM642.75 484.842C642.75 485.078 642.737 485.287 642.71 485.471C642.684 485.642 642.638 485.786 642.573 485.904C642.507 486.022 642.428 486.107 642.337 486.16C642.258 486.212 642.166 486.238 642.061 486.238H629.845C629.544 486.238 629.255 486.14 628.98 485.943C628.717 485.733 628.586 485.373 628.586 484.861V462.161C628.586 461.649 628.717 461.295 628.98 461.098C629.255 460.888 629.544 460.784 629.845 460.784H641.924C642.028 460.784 642.12 460.81 642.199 460.862C642.291 460.915 642.363 461 642.415 461.118C642.468 461.236 642.507 461.387 642.533 461.57C642.573 461.741 642.592 461.957 642.592 462.22C642.592 462.456 642.573 462.665 642.533 462.849C642.507 463.02 642.468 463.164 642.415 463.282C642.363 463.387 642.291 463.465 642.199 463.518C642.12 463.57 642.028 463.597 641.924 463.597H631.97V471.583H640.507C640.612 471.583 640.704 471.616 640.783 471.681C640.874 471.734 640.947 471.813 640.999 471.918C641.065 472.022 641.11 472.167 641.137 472.35C641.163 472.534 641.176 472.75 641.176 472.999C641.176 473.236 641.163 473.439 641.137 473.609C641.11 473.78 641.065 473.917 640.999 474.022C640.947 474.127 640.874 474.206 640.783 474.258C640.704 474.298 640.612 474.317 640.507 474.317H631.97V483.425H642.061C642.166 483.425 642.258 483.452 642.337 483.504C642.428 483.556 642.507 483.642 642.573 483.76C642.638 483.865 642.684 484.009 642.71 484.192C642.737 484.363 642.75 484.579 642.75 484.842ZM661.457 484.763C661.457 485.025 661.444 485.248 661.418 485.432C661.392 485.602 661.346 485.753 661.28 485.884C661.228 486.002 661.156 486.094 661.064 486.16C660.985 486.212 660.887 486.238 660.769 486.238H649.517C649.215 486.238 648.927 486.14 648.651 485.943C648.389 485.733 648.258 485.373 648.258 484.861V461.295C648.258 461.19 648.284 461.098 648.336 461.02C648.389 460.941 648.481 460.882 648.612 460.843C648.743 460.79 648.92 460.751 649.143 460.725C649.366 460.685 649.635 460.666 649.949 460.666C650.277 460.666 650.546 460.685 650.756 460.725C650.979 460.751 651.156 460.79 651.287 460.843C651.418 460.882 651.51 460.941 651.563 461.02C651.615 461.098 651.641 461.19 651.641 461.295V483.307H660.769C660.887 483.307 660.985 483.34 661.064 483.406C661.156 483.458 661.228 483.543 661.28 483.661C661.346 483.766 661.392 483.911 661.418 484.094C661.444 484.278 661.457 484.501 661.457 484.763ZM679.378 484.842C679.378 485.078 679.365 485.287 679.338 485.471C679.312 485.642 679.266 485.786 679.201 485.904C679.135 486.022 679.057 486.107 678.965 486.16C678.886 486.212 678.794 486.238 678.689 486.238H666.473C666.172 486.238 665.883 486.14 665.608 485.943C665.346 485.733 665.214 485.373 665.214 484.861V462.161C665.214 461.649 665.346 461.295 665.608 461.098C665.883 460.888 666.172 460.784 666.473 460.784H678.552C678.657 460.784 678.748 460.81 678.827 460.862C678.919 460.915 678.991 461 679.043 461.118C679.096 461.236 679.135 461.387 679.161 461.57C679.201 461.741 679.22 461.957 679.22 462.22C679.22 462.456 679.201 462.665 679.161 462.849C679.135 463.02 679.096 463.164 679.043 463.282C678.991 463.387 678.919 463.465 678.827 463.518C678.748 463.57 678.657 463.597 678.552 463.597H668.598V471.583H677.135C677.24 471.583 677.332 471.616 677.411 471.681C677.503 471.734 677.575 471.813 677.627 471.918C677.693 472.022 677.739 472.167 677.765 472.35C677.791 472.534 677.804 472.75 677.804 472.999C677.804 473.236 677.791 473.439 677.765 473.609C677.739 473.78 677.693 473.917 677.627 474.022C677.575 474.127 677.503 474.206 677.411 474.258C677.332 474.298 677.24 474.317 677.135 474.317H668.598V483.425H678.689C678.794 483.425 678.886 483.452 678.965 483.504C679.057 483.556 679.135 483.642 679.201 483.76C679.266 483.865 679.312 484.009 679.338 484.192C679.365 484.363 679.378 484.579 679.378 484.842ZM701.41 482.638C701.41 482.848 701.403 483.032 701.39 483.189C701.377 483.347 701.351 483.484 701.311 483.602C701.285 483.72 701.246 483.825 701.193 483.917C701.141 484.009 701.049 484.12 700.918 484.251C700.787 484.383 700.511 484.586 700.092 484.861C699.672 485.124 699.148 485.386 698.518 485.648C697.902 485.897 697.187 486.107 696.374 486.278C695.574 486.461 694.695 486.553 693.738 486.553C692.086 486.553 690.59 486.278 689.253 485.727C687.928 485.176 686.794 484.363 685.85 483.288C684.919 482.212 684.197 480.888 683.686 479.314C683.188 477.727 682.938 475.904 682.938 473.845C682.938 471.734 683.207 469.852 683.745 468.2C684.296 466.547 685.063 465.151 686.046 464.01C687.03 462.856 688.204 461.977 689.568 461.374C690.945 460.77 692.466 460.469 694.131 460.469C694.866 460.469 695.58 460.541 696.276 460.685C696.971 460.816 697.613 460.987 698.203 461.197C698.793 461.406 699.318 461.649 699.777 461.924C700.236 462.2 700.551 462.429 700.721 462.613C700.905 462.783 701.023 462.915 701.075 463.006C701.128 463.098 701.167 463.21 701.193 463.341C701.233 463.459 701.259 463.603 701.272 463.774C701.298 463.944 701.311 464.147 701.311 464.383C701.311 464.646 701.298 464.869 701.272 465.052C701.246 465.236 701.206 465.393 701.154 465.524C701.102 465.642 701.036 465.734 700.957 465.8C700.892 465.852 700.806 465.878 700.702 465.878C700.518 465.878 700.262 465.754 699.934 465.505C699.607 465.242 699.18 464.96 698.656 464.659C698.144 464.344 697.515 464.062 696.767 463.813C696.033 463.551 695.148 463.42 694.112 463.42C692.984 463.42 691.954 463.649 691.023 464.108C690.105 464.554 689.318 465.216 688.663 466.095C688.007 466.973 687.496 468.049 687.128 469.321C686.774 470.58 686.597 472.022 686.597 473.649C686.597 475.262 686.768 476.691 687.109 477.937C687.463 479.17 687.961 480.206 688.604 481.045C689.259 481.871 690.059 482.501 691.004 482.933C691.948 483.353 693.017 483.563 694.21 483.563C695.22 483.563 696.098 483.438 696.846 483.189C697.607 482.94 698.249 482.665 698.774 482.363C699.311 482.048 699.751 481.766 700.092 481.517C700.433 481.268 700.702 481.143 700.898 481.143C700.99 481.143 701.069 481.163 701.134 481.202C701.2 481.242 701.252 481.32 701.292 481.438C701.331 481.543 701.357 481.694 701.37 481.891C701.397 482.088 701.41 482.337 701.41 482.638ZM722.045 462.239C722.045 462.488 722.032 462.705 722.006 462.888C721.979 463.072 721.933 463.223 721.868 463.341C721.815 463.446 721.743 463.524 721.652 463.577C721.573 463.629 721.481 463.656 721.376 463.656H714.216V485.727C714.216 485.832 714.19 485.924 714.137 486.002C714.085 486.081 713.993 486.146 713.862 486.199C713.731 486.238 713.553 486.271 713.331 486.297C713.121 486.337 712.852 486.356 712.524 486.356C712.209 486.356 711.94 486.337 711.717 486.297C711.495 486.271 711.318 486.238 711.186 486.199C711.055 486.146 710.963 486.081 710.911 486.002C710.859 485.924 710.832 485.832 710.832 485.727V463.656H703.672C703.567 463.656 703.469 463.629 703.377 463.577C703.298 463.524 703.233 463.446 703.18 463.341C703.128 463.223 703.082 463.072 703.042 462.888C703.016 462.705 703.003 462.488 703.003 462.239C703.003 461.99 703.016 461.774 703.042 461.59C703.082 461.393 703.128 461.236 703.18 461.118C703.233 461 703.298 460.915 703.377 460.862C703.469 460.81 703.567 460.784 703.672 460.784H721.376C721.481 460.784 721.573 460.81 721.652 460.862C721.743 460.915 721.815 461 721.868 461.118C721.933 461.236 721.979 461.393 722.006 461.59C722.032 461.774 722.045 461.99 722.045 462.239ZM742.7 485.727C742.7 485.832 742.68 485.924 742.641 486.002C742.602 486.081 742.516 486.146 742.385 486.199C742.254 486.251 742.07 486.291 741.834 486.317C741.598 486.343 741.284 486.356 740.89 486.356C740.549 486.356 740.267 486.343 740.044 486.317C739.834 486.291 739.664 486.251 739.533 486.199C739.402 486.133 739.297 486.048 739.218 485.943C739.152 485.838 739.093 485.707 739.041 485.55L736.7 479.55C736.425 478.868 736.136 478.245 735.835 477.681C735.546 477.104 735.199 476.612 734.792 476.206C734.385 475.786 733.907 475.465 733.356 475.242C732.805 475.006 732.143 474.888 731.369 474.888H729.107V485.727C729.107 485.832 729.074 485.924 729.009 486.002C728.956 486.081 728.864 486.146 728.733 486.199C728.615 486.238 728.445 486.271 728.222 486.297C728.012 486.337 727.743 486.356 727.415 486.356C727.087 486.356 726.812 486.337 726.589 486.297C726.379 486.271 726.209 486.238 726.078 486.199C725.946 486.146 725.855 486.081 725.802 486.002C725.75 485.924 725.723 485.832 725.723 485.727V462.161C725.723 461.649 725.855 461.295 726.117 461.098C726.392 460.888 726.681 460.784 726.982 460.784H732.392C733.035 460.784 733.566 460.803 733.985 460.843C734.418 460.869 734.805 460.902 735.146 460.941C736.13 461.111 736.995 461.38 737.743 461.747C738.503 462.115 739.139 462.58 739.651 463.144C740.162 463.708 740.543 464.357 740.792 465.092C741.054 465.813 741.185 466.613 741.185 467.491C741.185 468.344 741.067 469.111 740.831 469.793C740.608 470.462 740.28 471.059 739.848 471.583C739.415 472.095 738.897 472.54 738.293 472.921C737.69 473.301 737.015 473.622 736.267 473.885C736.687 474.068 737.067 474.304 737.408 474.593C737.749 474.868 738.064 475.203 738.353 475.596C738.654 475.99 738.936 476.442 739.198 476.953C739.461 477.465 739.723 478.042 739.985 478.684L742.267 484.291C742.451 484.763 742.569 485.097 742.621 485.294C742.674 485.478 742.7 485.622 742.7 485.727ZM737.605 467.846C737.605 466.849 737.382 466.01 736.936 465.328C736.49 464.633 735.743 464.134 734.694 463.833C734.366 463.741 733.992 463.675 733.572 463.636C733.166 463.597 732.628 463.577 731.959 463.577H729.107V472.154H732.412C733.304 472.154 734.071 472.049 734.713 471.839C735.369 471.616 735.913 471.314 736.346 470.934C736.779 470.541 737.094 470.082 737.29 469.557C737.5 469.032 737.605 468.462 737.605 467.846ZM750.982 485.727C750.982 485.832 750.955 485.924 750.903 486.002C750.85 486.081 750.759 486.146 750.627 486.199C750.496 486.238 750.319 486.271 750.096 486.297C749.887 486.337 749.618 486.356 749.29 486.356C748.975 486.356 748.706 486.337 748.483 486.297C748.26 486.271 748.083 486.238 747.952 486.199C747.821 486.146 747.729 486.081 747.677 486.002C747.624 485.924 747.598 485.832 747.598 485.727V461.295C747.598 461.19 747.624 461.098 747.677 461.02C747.742 460.941 747.841 460.882 747.972 460.843C748.116 460.79 748.293 460.751 748.503 460.725C748.726 460.685 748.988 460.666 749.29 460.666C749.618 460.666 749.887 460.685 750.096 460.725C750.319 460.751 750.496 460.79 750.627 460.843C750.759 460.882 750.85 460.941 750.903 461.02C750.955 461.098 750.982 461.19 750.982 461.295V485.727ZM774.745 482.638C774.745 482.848 774.738 483.032 774.725 483.189C774.712 483.347 774.685 483.484 774.646 483.602C774.62 483.72 774.581 483.825 774.528 483.917C774.476 484.009 774.384 484.12 774.253 484.251C774.122 484.383 773.846 484.586 773.427 484.861C773.007 485.124 772.482 485.386 771.853 485.648C771.236 485.897 770.522 486.107 769.709 486.278C768.909 486.461 768.03 486.553 767.073 486.553C765.42 486.553 763.925 486.278 762.588 485.727C761.263 485.176 760.129 484.363 759.184 483.288C758.253 482.212 757.532 480.888 757.021 479.314C756.522 477.727 756.273 475.904 756.273 473.845C756.273 471.734 756.542 469.852 757.08 468.2C757.63 466.547 758.398 465.151 759.381 464.01C760.365 462.856 761.538 461.977 762.902 461.374C764.279 460.77 765.801 460.469 767.466 460.469C768.201 460.469 768.915 460.541 769.61 460.685C770.305 460.816 770.948 460.987 771.538 461.197C772.128 461.406 772.653 461.649 773.112 461.924C773.571 462.2 773.886 462.429 774.056 462.613C774.24 462.783 774.358 462.915 774.41 463.006C774.463 463.098 774.502 463.21 774.528 463.341C774.567 463.459 774.594 463.603 774.607 463.774C774.633 463.944 774.646 464.147 774.646 464.383C774.646 464.646 774.633 464.869 774.607 465.052C774.581 465.236 774.541 465.393 774.489 465.524C774.436 465.642 774.371 465.734 774.292 465.8C774.226 465.852 774.141 465.878 774.036 465.878C773.853 465.878 773.597 465.754 773.269 465.505C772.941 465.242 772.515 464.96 771.991 464.659C771.479 464.344 770.85 464.062 770.102 463.813C769.368 463.551 768.482 463.42 767.446 463.42C766.319 463.42 765.289 463.649 764.358 464.108C763.44 464.554 762.653 465.216 761.997 466.095C761.342 466.973 760.83 468.049 760.463 469.321C760.109 470.58 759.932 472.022 759.932 473.649C759.932 475.262 760.102 476.691 760.443 477.937C760.798 479.17 761.296 480.206 761.938 481.045C762.594 481.871 763.394 482.501 764.338 482.933C765.283 483.353 766.351 483.563 767.545 483.563C768.555 483.563 769.433 483.438 770.181 483.189C770.941 482.94 771.584 482.665 772.109 482.363C772.646 482.048 773.086 481.766 773.427 481.517C773.767 481.268 774.036 481.143 774.233 481.143C774.325 481.143 774.404 481.163 774.469 481.202C774.535 481.242 774.587 481.32 774.626 481.438C774.666 481.543 774.692 481.694 774.705 481.891C774.731 482.088 774.745 482.337 774.745 482.638ZM782.613 485.727C782.613 485.832 782.587 485.924 782.534 486.002C782.482 486.081 782.39 486.146 782.259 486.199C782.128 486.238 781.951 486.271 781.728 486.297C781.518 486.337 781.249 486.356 780.921 486.356C780.607 486.356 780.338 486.337 780.115 486.297C779.892 486.271 779.715 486.238 779.584 486.199C779.453 486.146 779.361 486.081 779.308 486.002C779.256 485.924 779.23 485.832 779.23 485.727V461.295C779.23 461.19 779.256 461.098 779.308 461.02C779.374 460.941 779.472 460.882 779.603 460.843C779.748 460.79 779.925 460.751 780.134 460.725C780.357 460.685 780.62 460.666 780.921 460.666C781.249 460.666 781.518 460.685 781.728 460.725C781.951 460.751 782.128 460.79 782.259 460.843C782.39 460.882 782.482 460.941 782.534 461.02C782.587 461.098 782.613 461.19 782.613 461.295V485.727ZM808.953 473.137C808.953 475.34 808.671 477.268 808.107 478.921C807.543 480.56 806.717 481.924 805.629 483.012C804.553 484.088 803.229 484.894 801.655 485.432C800.081 485.969 798.206 486.238 796.029 486.238H790.639C790.337 486.238 790.049 486.14 789.773 485.943C789.511 485.733 789.38 485.373 789.38 484.861V462.161C789.38 461.649 789.511 461.295 789.773 461.098C790.049 460.888 790.337 460.784 790.639 460.784H796.403C798.606 460.784 800.468 461.072 801.989 461.649C803.511 462.213 804.783 463.033 805.806 464.108C806.842 465.17 807.622 466.462 808.146 467.983C808.684 469.505 808.953 471.222 808.953 473.137ZM805.392 473.275C805.392 471.898 805.222 470.619 804.881 469.439C804.54 468.246 804.002 467.216 803.268 466.351C802.547 465.485 801.629 464.81 800.514 464.324C799.399 463.839 797.963 463.597 796.206 463.597H792.763V483.406H796.245C797.871 483.406 799.242 483.202 800.357 482.796C801.471 482.389 802.402 481.766 803.15 480.927C803.897 480.088 804.455 479.039 804.822 477.78C805.202 476.508 805.392 475.006 805.392 473.275ZM832.637 485.038C832.742 485.327 832.795 485.563 832.795 485.746C832.808 485.917 832.762 486.048 832.657 486.14C832.552 486.232 832.375 486.291 832.126 486.317C831.89 486.343 831.569 486.356 831.162 486.356C830.755 486.356 830.428 486.343 830.178 486.317C829.942 486.304 829.759 486.278 829.628 486.238C829.51 486.186 829.418 486.12 829.352 486.042C829.3 485.963 829.247 485.865 829.195 485.746L827.011 479.55H816.428L814.343 485.668C814.304 485.786 814.251 485.891 814.186 485.983C814.12 486.061 814.022 486.133 813.891 486.199C813.773 486.251 813.595 486.291 813.359 486.317C813.136 486.343 812.841 486.356 812.474 486.356C812.094 486.356 811.779 486.337 811.53 486.297C811.294 486.271 811.123 486.212 811.019 486.12C810.927 486.028 810.881 485.897 810.881 485.727C810.894 485.543 810.953 485.307 811.058 485.019L819.595 461.374C819.648 461.229 819.713 461.111 819.792 461.02C819.884 460.928 820.008 460.856 820.166 460.803C820.336 460.751 820.546 460.718 820.795 460.705C821.057 460.679 821.385 460.666 821.779 460.666C822.198 460.666 822.546 460.679 822.821 460.705C823.097 460.718 823.32 460.751 823.49 460.803C823.661 460.856 823.792 460.934 823.884 461.039C823.975 461.131 824.048 461.249 824.1 461.393L832.637 485.038ZM821.68 464.167H821.661L817.274 476.855H826.126L821.68 464.167ZM856.479 473.137C856.479 475.34 856.197 477.268 855.633 478.921C855.069 480.56 854.243 481.924 853.155 483.012C852.079 484.088 850.755 484.894 849.181 485.432C847.607 485.969 845.732 486.238 843.555 486.238H838.165C837.863 486.238 837.575 486.14 837.299 485.943C837.037 485.733 836.906 485.373 836.906 484.861V462.161C836.906 461.649 837.037 461.295 837.299 461.098C837.575 460.888 837.863 460.784 838.165 460.784H843.929C846.132 460.784 847.994 461.072 849.515 461.649C851.037 462.213 852.309 463.033 853.332 464.108C854.368 465.17 855.148 466.462 855.672 467.983C856.21 469.505 856.479 471.222 856.479 473.137ZM852.918 473.275C852.918 471.898 852.748 470.619 852.407 469.439C852.066 468.246 851.528 467.216 850.794 466.351C850.073 465.485 849.155 464.81 848.04 464.324C846.925 463.839 845.489 463.597 843.732 463.597H840.289V483.406H843.771C845.397 483.406 846.768 483.202 847.883 482.796C848.997 482.389 849.928 481.766 850.676 480.927C851.423 480.088 851.981 479.039 852.348 477.78C852.728 476.508 852.918 475.006 852.918 473.275Z" fill="white"/>
<path d="M116.588 125.481C98.032 69.6019 50.2574 47.8024 28.6897 43.8875C50.1761 26.5798 80.7778 27.61 93.3929 30.2886C112.112 32.9671 154.312 51.7997 173.356 105.701C192.401 159.602 254.948 178.435 283.84 181.113C248.681 208.311 211.405 207.693 197.162 203.984C178.036 201.1 135.145 181.361 116.588 125.481Z" fill="url(#paint0_linear_335_224)"/>
<path d="M195.331 106.937C184.188 76.6486 161.962 50.893 146.498 37.088C200.825 40.1787 198.993 64.9041 245.384 110.028C282.497 146.127 328.4 138.256 346.712 129.808C334.504 154.534 305.001 159.067 291.775 158.242C228.781 155.77 206.474 137.226 195.331 106.937Z" fill="url(#paint1_linear_335_224)"/>
<ellipse cx="313.14" cy="61.1953" rx="60.4304" ry="61.1953" fill="url(#paint2_radial_335_224)"/>
</svg>
