<svg width="306" height="175" viewBox="0 0 306 175" fill="none" xmlns="http://www.w3.org/2000/svg">
<defs>
<linearGradient id="paint0_linear_9_36" x1="9.89882" y1="9.89874" x2="55.0887" y2="71.443" gradientUnits="userSpaceOnUse">
<stop stop-color="#2266A4"/>
<stop offset="1" stop-color="#249ADA"/>
</linearGradient>
<linearGradient id="paint1_linear_9_36" x1="51.6456" y1="12.9114" x2="86.9368" y2="55.0886" gradientUnits="userSpaceOnUse">
<stop stop-color="#2266A4"/>
<stop offset="1" stop-color="#249ADA"/>
</linearGradient>
<radialGradient id="paint2_radial_9_36" cx="0" cy="0" r="1" gradientUnits="userSpaceOnUse" gradientTransform="translate(119 4.51899) rotate(118.828) scale(31.6863)">
<stop stop-color="#249ADA"/>
<stop offset="1" stop-color="#2266A4"/>
</radialGradient>
</defs>
<path d="M49.7206 119.987H42.563V96.6569L29.969 118.813C29.6594 119.377 29.2223 119.805 28.6577 120.097C28.1113 120.388 27.5194 120.534 26.8819 120.534C26.2627 120.534 25.6799 120.388 25.1335 120.097C24.6053 119.805 24.1864 119.377 23.8768 118.813L11.2281 96.6569V119.987H4.12517V83.8443C4.12517 83.0247 4.36194 82.2962 4.83547 81.6587C5.32721 81.0213 5.96465 80.5933 6.7478 80.3748C7.13027 80.2837 7.51273 80.2564 7.8952 80.2928C8.27767 80.311 8.64192 80.393 8.98796 80.5387C9.35221 80.6662 9.68004 80.8574 9.97144 81.1124C10.2628 81.3491 10.5087 81.6405 10.7091 81.9866L26.8819 110.098L43.0548 81.9866C43.4737 81.2945 44.0474 80.8028 44.7759 80.5113C45.5226 80.2199 46.2966 80.1744 47.098 80.3748C47.8629 80.5933 48.4913 81.0213 48.983 81.6587C49.4748 82.2962 49.7206 83.0247 49.7206 83.8443V119.987ZM89.3332 116.409C89.3332 116.919 89.2422 117.392 89.06 117.829C88.8779 118.266 88.6229 118.649 88.2951 118.977C87.9855 119.286 87.6121 119.532 87.175 119.714C86.7561 119.896 86.3008 119.987 85.8091 119.987H69.7455C68.8713 119.987 67.9333 119.887 66.9316 119.687C65.9481 119.486 64.9738 119.168 64.0085 118.731C63.0432 118.275 62.1053 117.711 61.1946 117.037C60.3022 116.345 59.5191 115.516 58.8452 114.551C58.1713 113.567 57.6249 112.438 57.206 111.163C56.8054 109.888 56.605 108.45 56.605 106.847V90.4555H63.708V106.847C63.708 107.776 63.8628 108.614 64.1724 109.36C64.5002 110.089 64.9373 110.717 65.4837 111.245C66.0301 111.773 66.6675 112.183 67.396 112.475C68.1428 112.748 68.9441 112.884 69.8001 112.884H82.2303V90.4555H89.3332V116.409ZM121.843 97.5584H105.861C104.896 97.5584 104.167 97.8043 103.676 98.296C103.184 98.7696 102.938 99.4708 102.938 100.4V119.987H95.8351V100.4C95.8351 99.1794 95.99 98.0866 96.2996 97.1213C96.6092 96.156 97.019 95.3092 97.5289 94.5806C98.0571 93.8339 98.6581 93.2056 99.332 92.6956C100.006 92.1675 100.707 91.7395 101.436 91.4116C102.182 91.0838 102.929 90.847 103.676 90.7013C104.441 90.5374 105.151 90.4555 105.807 90.4555H121.843V97.5584ZM133.754 84.3907H126.651V77.9707H133.754V84.3907ZM133.754 119.987H126.651V90.4555H133.754V119.987ZM176.781 87.9148H161.128V119.987H154.025V87.9148H138.344V80.8119H176.781V87.9148ZM214.236 103.978H191.807V96.8208H214.236V103.978ZM217.432 119.987H191.807C190.823 119.987 189.749 119.814 188.583 119.468C187.418 119.122 186.334 118.558 185.332 117.775C184.349 116.973 183.52 115.944 182.846 114.687C182.191 113.413 181.863 111.855 181.863 110.016V84.3907C181.863 83.8989 181.954 83.4345 182.136 82.9974C182.318 82.5603 182.564 82.1778 182.874 81.85C183.201 81.5222 183.584 81.2672 184.021 81.085C184.458 80.9029 184.932 80.8119 185.442 80.8119H217.432V87.9148H188.966V110.016C188.966 110.945 189.212 111.655 189.703 112.147C190.195 112.639 190.914 112.884 191.862 112.884H217.432V119.987ZM259.121 119.987H233.496C232.84 119.987 232.13 119.914 231.365 119.769C230.618 119.605 229.871 119.359 229.125 119.031C228.396 118.703 227.695 118.284 227.021 117.775C226.347 117.246 225.746 116.618 225.218 115.889C224.708 115.143 224.298 114.287 223.989 113.322C223.679 112.338 223.524 111.236 223.524 110.016V90.7833C223.524 90.1276 223.597 89.4265 223.743 88.6797C223.907 87.9148 224.153 87.1681 224.48 86.4396C224.808 85.6929 225.236 84.9826 225.764 84.3087C226.293 83.6348 226.921 83.0429 227.649 82.533C228.396 82.0048 229.252 81.5859 230.217 81.2763C231.183 80.9667 232.275 80.8119 233.496 80.8119H259.121V87.9148H233.496C232.567 87.9148 231.857 88.1607 231.365 88.6524C230.873 89.1442 230.627 89.8727 230.627 90.8379V110.016C230.627 110.927 230.873 111.637 231.365 112.147C231.875 112.639 232.585 112.884 233.496 112.884H259.121V119.987Z" fill="#454545"/>
<path d="M17.0296 144.401C17.0296 144.973 16.9554 145.489 16.8069 145.949C16.6658 146.402 16.4765 146.803 16.2389 147.152C16.0012 147.501 15.7228 147.798 15.4035 148.043C15.0842 148.288 14.7538 148.489 14.4123 148.645C14.0707 148.801 13.7217 148.916 13.3653 148.99C13.0163 149.064 12.6859 149.101 12.374 149.101H1.20288V146.205H12.374C12.9309 146.205 13.3616 146.042 13.666 145.715C13.9779 145.389 14.1338 144.951 14.1338 144.401C14.1338 144.134 14.093 143.889 14.0113 143.666C13.9296 143.443 13.8108 143.25 13.6549 143.087C13.5064 142.924 13.3208 142.797 13.098 142.708C12.8827 142.619 12.6414 142.575 12.374 142.575H5.71367C5.24588 142.575 4.74097 142.493 4.19893 142.33C3.6569 142.159 3.15199 141.888 2.6842 141.516C2.22384 141.145 1.83773 140.659 1.52587 140.057C1.22144 139.456 1.06922 138.721 1.06922 137.852C1.06922 136.983 1.22144 136.252 1.52587 135.658C1.83773 135.057 2.22384 134.57 2.6842 134.199C3.15199 133.82 3.6569 133.549 4.19893 133.386C4.74097 133.215 5.24588 133.13 5.71367 133.13H15.5706V136.026H5.71367C5.16421 136.026 4.73355 136.193 4.42169 136.527C4.11726 136.861 3.96504 137.303 3.96504 137.852C3.96504 138.409 4.11726 138.851 4.42169 139.178C4.73355 139.497 5.16421 139.656 5.71367 139.656H12.374H12.3963C12.7082 139.664 13.0386 139.708 13.3876 139.79C13.7366 139.864 14.0818 139.983 14.4234 140.147C14.7724 140.31 15.1028 140.518 15.4147 140.77C15.7265 141.015 16.0012 141.312 16.2389 141.661C16.4839 142.01 16.6769 142.411 16.818 142.864C16.9591 143.317 17.0296 143.829 17.0296 144.401ZM32.2104 145.036C32.2104 145.533 32.1473 145.983 32.0211 146.384C31.8948 146.777 31.7278 147.126 31.5199 147.431C31.3119 147.728 31.0706 147.984 30.7959 148.199C30.5212 148.407 30.2316 148.578 29.9272 148.711C29.6301 148.845 29.3257 148.945 29.0139 149.012C28.7094 149.072 28.4198 149.101 28.1451 149.101H22.9215C22.5205 149.101 22.0825 149.031 21.6072 148.89C21.132 148.749 20.6902 148.518 20.2819 148.199C19.8809 147.872 19.5431 147.453 19.2683 146.941C19.001 146.421 18.8674 145.786 18.8674 145.036V141.116C18.8674 140.373 19.001 139.746 19.2683 139.233C19.5431 138.713 19.8809 138.294 20.2819 137.975C20.6902 137.648 21.132 137.414 21.6072 137.273C22.0825 137.132 22.5205 137.061 22.9215 137.061H28.1451C28.8876 137.061 29.5188 137.195 30.0385 137.462C30.5583 137.73 30.9778 138.067 31.2971 138.476C31.6164 138.877 31.8466 139.315 31.9876 139.79C32.1361 140.265 32.2104 140.707 32.2104 141.116V145.036ZM29.3146 141.138C29.3146 140.737 29.2143 140.44 29.0139 140.247C28.8134 140.054 28.5238 139.957 28.1451 139.957H22.9438C22.5577 139.957 22.2644 140.057 22.0639 140.258C21.8634 140.451 21.7632 140.737 21.7632 141.116V145.036C21.7632 145.415 21.8634 145.704 22.0639 145.905C22.2644 146.105 22.5577 146.205 22.9438 146.205H28.1451C28.5386 146.205 28.8319 146.105 29.025 145.905C29.2181 145.704 29.3146 145.415 29.3146 145.036V141.138ZM39.9734 149.101H38.6814C38.2656 149.101 37.8201 149.031 37.3449 148.89C36.8771 148.749 36.439 148.518 36.0306 148.199C35.6223 147.872 35.2844 147.453 35.0171 146.941C34.7498 146.421 34.6162 145.786 34.6162 145.036V131.971H37.512V145.036C37.512 145.392 37.6233 145.678 37.8461 145.894C38.0689 146.102 38.3473 146.205 38.6814 146.205H39.9734V149.101ZM54.82 147.642C54.82 147.85 54.7829 148.043 54.7087 148.221C54.6344 148.4 54.5305 148.556 54.3968 148.689C54.2706 148.815 54.1184 148.916 53.9402 148.99C53.7694 149.064 53.5838 149.101 53.3833 149.101H46.8343C46.4779 149.101 46.0955 149.06 45.6871 148.979C45.2861 148.897 44.8889 148.767 44.4953 148.589C44.1018 148.403 43.7194 148.173 43.3482 147.898C42.9843 147.616 42.665 147.278 42.3903 146.885C42.1156 146.484 41.8928 146.024 41.722 145.504C41.5587 144.984 41.477 144.397 41.477 143.744V137.061H44.3728V143.744C44.3728 144.123 44.4359 144.464 44.5622 144.769C44.6958 145.066 44.874 145.322 45.0968 145.537C45.3195 145.753 45.5794 145.92 45.8764 146.038C46.1809 146.15 46.5076 146.205 46.8565 146.205H51.9242V137.061H54.82V147.642ZM69.1989 149.101H61.3468C60.9458 149.101 60.5077 149.031 60.0325 148.89C59.5573 148.749 59.1155 148.518 58.7071 148.199C58.3062 147.872 57.9683 147.453 57.6936 146.941C57.4263 146.421 57.2926 145.786 57.2926 145.036V141.116C57.2926 140.841 57.3223 140.551 57.3817 140.247C57.4486 139.942 57.5488 139.642 57.6824 139.345C57.8161 139.04 57.9869 138.751 58.1948 138.476C58.4101 138.201 58.6663 137.96 58.9633 137.752C59.2677 137.544 59.6167 137.377 60.0102 137.251C60.4038 137.124 60.8493 137.061 61.3468 137.061H69.1989V139.957H61.3468C60.9681 139.957 60.6785 140.054 60.478 140.247C60.285 140.44 60.1884 140.737 60.1884 141.138V145.036C60.1884 145.415 60.2887 145.704 60.4892 145.905C60.6896 146.105 60.9829 146.205 61.369 146.205H69.1989V149.101ZM74.5339 134.589H71.6381V131.971H74.5339V134.589ZM74.5339 149.101H71.6381V137.061H74.5339V149.101ZM90.4163 145.036C90.4163 145.533 90.3532 145.983 90.227 146.384C90.1007 146.777 89.9337 147.126 89.7258 147.431C89.5179 147.728 89.2765 147.984 89.0018 148.199C88.7271 148.407 88.4375 148.578 88.1331 148.711C87.8361 148.845 87.5316 148.945 87.2198 149.012C86.9153 149.072 86.6258 149.101 86.351 149.101H81.1274C80.7265 149.101 80.2884 149.031 79.8132 148.89C79.338 148.749 78.8962 148.518 78.4878 148.199C78.0868 147.872 77.749 147.453 77.4742 146.941C77.2069 146.421 77.0733 145.786 77.0733 145.036V141.116C77.0733 140.373 77.2069 139.746 77.4742 139.233C77.749 138.713 78.0868 138.294 78.4878 137.975C78.8962 137.648 79.338 137.414 79.8132 137.273C80.2884 137.132 80.7265 137.061 81.1274 137.061H86.351C87.0935 137.061 87.7247 137.195 88.2444 137.462C88.7642 137.73 89.1837 138.067 89.503 138.476C89.8223 138.877 90.0525 139.315 90.1936 139.79C90.3421 140.265 90.4163 140.707 90.4163 141.116V145.036ZM87.5205 141.138C87.5205 140.737 87.4203 140.44 87.2198 140.247C87.0193 140.054 86.7297 139.957 86.351 139.957H81.1497C80.7636 139.957 80.4703 140.057 80.2698 140.258C80.0693 140.451 79.9691 140.737 79.9691 141.116V145.036C79.9691 145.415 80.0693 145.704 80.2698 145.905C80.4703 146.105 80.7636 146.205 81.1497 146.205H86.351C86.7446 146.205 87.0379 146.105 87.2309 145.905C87.424 145.704 87.5205 145.415 87.5205 145.036V141.138ZM106.232 149.101H103.336V142.419C103.336 142.04 103.269 141.702 103.136 141.405C103.009 141.101 102.835 140.841 102.612 140.625C102.389 140.41 102.126 140.247 101.821 140.135C101.524 140.017 101.201 139.957 100.852 139.957H95.7847V149.101H92.8889V138.498C92.8889 138.298 92.926 138.112 93.0003 137.941C93.0745 137.763 93.1785 137.611 93.3121 137.485C93.4458 137.351 93.6017 137.247 93.7799 137.173C93.9581 137.098 94.1475 137.061 94.3479 137.061H100.875C101.239 137.061 101.621 137.102 102.022 137.184C102.43 137.266 102.831 137.399 103.225 137.585C103.626 137.763 104.004 137.993 104.361 138.275C104.725 138.55 105.044 138.888 105.319 139.289C105.601 139.682 105.824 140.139 105.987 140.659C106.15 141.179 106.232 141.765 106.232 142.419V149.101ZM121.725 141.049C121.725 141.45 121.654 141.884 121.513 142.352C121.372 142.812 121.142 143.243 120.822 143.644C120.511 144.037 120.098 144.368 119.586 144.635C119.081 144.902 118.465 145.036 117.737 145.036H112.514V142.285H117.737C118.131 142.285 118.435 142.166 118.651 141.929C118.866 141.684 118.974 141.383 118.974 141.026C118.974 140.648 118.851 140.351 118.606 140.135C118.368 139.92 118.079 139.812 117.737 139.812H112.514C112.12 139.812 111.816 139.935 111.6 140.18C111.385 140.418 111.277 140.715 111.277 141.071V145.114C111.277 145.5 111.396 145.801 111.634 146.016C111.879 146.231 112.179 146.339 112.536 146.339H117.737V149.101H112.514C112.113 149.101 111.678 149.031 111.211 148.89C110.75 148.749 110.319 148.522 109.919 148.21C109.525 147.891 109.195 147.479 108.927 146.974C108.66 146.462 108.526 145.842 108.526 145.114V141.049C108.526 140.648 108.597 140.217 108.738 139.757C108.879 139.289 109.105 138.858 109.417 138.465C109.737 138.064 110.149 137.73 110.654 137.462C111.166 137.195 111.786 137.061 112.514 137.061H117.737C118.138 137.061 118.569 137.132 119.029 137.273C119.497 137.414 119.928 137.644 120.321 137.964C120.722 138.275 121.056 138.687 121.324 139.2C121.591 139.705 121.725 140.321 121.725 141.049ZM135.313 145.036C135.313 145.533 135.25 145.983 135.123 146.384C134.997 146.777 134.83 147.126 134.622 147.431C134.414 147.728 134.173 147.984 133.898 148.199C133.623 148.407 133.334 148.578 133.029 148.711C132.732 148.845 132.428 148.945 132.116 149.012C131.812 149.072 131.522 149.101 131.247 149.101H123.406V146.205H131.225C131.619 146.205 131.916 146.105 132.116 145.905C132.317 145.704 132.417 145.415 132.417 145.036C132.38 144.264 131.99 143.878 131.247 143.878H126.759C126.12 143.878 125.578 143.766 125.133 143.544C124.687 143.321 124.323 143.042 124.041 142.708C123.766 142.374 123.566 142.014 123.44 141.628C123.321 141.242 123.262 140.882 123.262 140.547C123.262 139.901 123.377 139.359 123.607 138.921C123.837 138.476 124.127 138.116 124.476 137.841C124.825 137.566 125.203 137.37 125.612 137.251C126.02 137.124 126.402 137.061 126.759 137.061H133.876V139.957H126.781C126.633 139.957 126.514 139.976 126.425 140.013C126.343 140.043 126.28 140.087 126.235 140.147C126.198 140.198 126.176 140.258 126.169 140.325C126.161 140.384 126.157 140.444 126.157 140.503C126.165 140.622 126.187 140.715 126.224 140.781C126.261 140.848 126.306 140.896 126.358 140.926C126.417 140.956 126.48 140.974 126.547 140.982C126.621 140.982 126.692 140.982 126.759 140.982H131.247C131.99 140.982 132.621 141.116 133.141 141.383C133.661 141.65 134.08 141.988 134.399 142.396C134.719 142.797 134.949 143.235 135.09 143.711C135.238 144.186 135.313 144.628 135.313 145.036ZM159.281 136.026H152.899V149.101H150.003V136.026H143.61V133.13H159.281V136.026ZM172.78 141.049C172.78 141.45 172.709 141.884 172.568 142.352C172.427 142.812 172.197 143.243 171.878 143.644C171.566 144.037 171.154 144.368 170.642 144.635C170.137 144.902 169.52 145.036 168.793 145.036H163.569V142.285H168.793C169.186 142.285 169.491 142.166 169.706 141.929C169.921 141.684 170.029 141.383 170.029 141.026C170.029 140.648 169.906 140.351 169.661 140.135C169.424 139.92 169.134 139.812 168.793 139.812H163.569C163.176 139.812 162.871 139.935 162.656 140.18C162.44 140.418 162.333 140.715 162.333 141.071V145.114C162.333 145.5 162.452 145.801 162.689 146.016C162.934 146.231 163.235 146.339 163.591 146.339H168.793V149.101H163.569C163.168 149.101 162.734 149.031 162.266 148.89C161.806 148.749 161.375 148.522 160.974 148.21C160.58 147.891 160.25 147.479 159.983 146.974C159.715 146.462 159.582 145.842 159.582 145.114V141.049C159.582 140.648 159.652 140.217 159.793 139.757C159.934 139.289 160.161 138.858 160.473 138.465C160.792 138.064 161.204 137.73 161.709 137.462C162.221 137.195 162.841 137.061 163.569 137.061H168.793C169.194 137.061 169.624 137.132 170.085 137.273C170.552 137.414 170.983 137.644 171.377 137.964C171.778 138.275 172.112 138.687 172.379 139.2C172.646 139.705 172.78 140.321 172.78 141.049ZM186.39 149.101H178.538C178.137 149.101 177.699 149.031 177.224 148.89C176.749 148.749 176.307 148.518 175.899 148.199C175.498 147.872 175.16 147.453 174.885 146.941C174.618 146.421 174.484 145.786 174.484 145.036V141.116C174.484 140.841 174.514 140.551 174.573 140.247C174.64 139.942 174.74 139.642 174.874 139.345C175.008 139.04 175.178 138.751 175.386 138.476C175.602 138.201 175.858 137.96 176.155 137.752C176.459 137.544 176.808 137.377 177.202 137.251C177.595 137.124 178.041 137.061 178.538 137.061H186.39V139.957H178.538C178.16 139.957 177.87 140.054 177.67 140.247C177.476 140.44 177.38 140.737 177.38 141.138V145.036C177.38 145.415 177.48 145.704 177.681 145.905C177.881 146.105 178.174 146.205 178.561 146.205H186.39V149.101ZM202.128 149.101H199.232V142.419C199.232 142.04 199.165 141.702 199.032 141.405C198.905 141.101 198.731 140.841 198.508 140.625C198.285 140.41 198.022 140.247 197.717 140.135C197.42 140.017 197.097 139.957 196.748 139.957H191.681V149.101H188.785V138.498C188.785 138.298 188.822 138.112 188.896 137.941C188.971 137.763 189.075 137.611 189.208 137.485C189.342 137.351 189.498 137.247 189.676 137.173C189.854 137.098 190.044 137.061 190.244 137.061H196.771C197.135 137.061 197.517 137.102 197.918 137.184C198.326 137.266 198.727 137.399 199.121 137.585C199.522 137.763 199.9 137.993 200.257 138.275C200.621 138.55 200.94 138.888 201.215 139.289C201.497 139.682 201.72 140.139 201.883 140.659C202.046 141.179 202.128 141.765 202.128 142.419V149.101ZM217.765 145.036C217.765 145.533 217.702 145.983 217.576 146.384C217.45 146.777 217.283 147.126 217.075 147.431C216.867 147.728 216.626 147.984 216.351 148.199C216.076 148.407 215.787 148.578 215.482 148.711C215.185 148.845 214.881 148.945 214.569 149.012C214.264 149.072 213.975 149.101 213.7 149.101H208.477C208.076 149.101 207.637 149.031 207.162 148.89C206.687 148.749 206.245 148.518 205.837 148.199C205.436 147.872 205.098 147.453 204.823 146.941C204.556 146.421 204.422 145.786 204.422 145.036V141.116C204.422 140.373 204.556 139.746 204.823 139.233C205.098 138.713 205.436 138.294 205.837 137.975C206.245 137.648 206.687 137.414 207.162 137.273C207.637 137.132 208.076 137.061 208.477 137.061H213.7C214.443 137.061 215.074 137.195 215.594 137.462C216.113 137.73 216.533 138.067 216.852 138.476C217.171 138.877 217.402 139.315 217.543 139.79C217.691 140.265 217.765 140.707 217.765 141.116V145.036ZM214.87 141.138C214.87 140.737 214.769 140.44 214.569 140.247C214.368 140.054 214.079 139.957 213.7 139.957H208.499C208.113 139.957 207.819 140.057 207.619 140.258C207.418 140.451 207.318 140.737 207.318 141.116V145.036C207.318 145.415 207.418 145.704 207.619 145.905C207.819 146.105 208.113 146.205 208.499 146.205H213.7C214.094 146.205 214.387 146.105 214.58 145.905C214.773 145.704 214.87 145.415 214.87 145.036V141.138ZM225.528 149.101H224.236C223.821 149.101 223.375 149.031 222.9 148.89C222.432 148.749 221.994 148.518 221.586 148.199C221.177 147.872 220.839 147.453 220.572 146.941C220.305 146.421 220.171 145.786 220.171 145.036V131.971H223.067V145.036C223.067 145.392 223.178 145.678 223.401 145.894C223.624 146.102 223.902 146.205 224.236 146.205H225.528V149.101ZM240.486 145.036C240.486 145.533 240.423 145.983 240.297 146.384C240.171 146.777 240.004 147.126 239.796 147.431C239.588 147.728 239.347 147.984 239.072 148.199C238.797 148.407 238.508 148.578 238.203 148.711C237.906 148.845 237.602 148.945 237.29 149.012C236.985 149.072 236.696 149.101 236.421 149.101H231.198C230.797 149.101 230.359 149.031 229.883 148.89C229.408 148.749 228.966 148.518 228.558 148.199C228.157 147.872 227.819 147.453 227.544 146.941C227.277 146.421 227.143 145.786 227.143 145.036V141.116C227.143 140.373 227.277 139.746 227.544 139.233C227.819 138.713 228.157 138.294 228.558 137.975C228.966 137.648 229.408 137.414 229.883 137.273C230.359 137.132 230.797 137.061 231.198 137.061H236.421C237.164 137.061 237.795 137.195 238.315 137.462C238.834 137.73 239.254 138.067 239.573 138.476C239.892 138.877 240.123 139.315 240.264 139.79C240.412 140.265 240.486 140.707 240.486 141.116V145.036ZM237.591 141.138C237.591 140.737 237.49 140.44 237.29 140.247C237.089 140.054 236.8 139.957 236.421 139.957H231.22C230.834 139.957 230.54 140.057 230.34 140.258C230.139 140.451 230.039 140.737 230.039 141.116V145.036C230.039 145.415 230.139 145.704 230.34 145.905C230.54 146.105 230.834 146.205 231.22 146.205H236.421C236.815 146.205 237.108 146.105 237.301 145.905C237.494 145.704 237.591 145.415 237.591 145.036V141.138ZM239.729 133.43L233.915 135.513L233.147 133.843L238.504 130.724L239.729 133.43ZM256.057 150.26C256.057 150.757 255.994 151.203 255.868 151.596C255.741 151.997 255.574 152.346 255.367 152.643C255.159 152.948 254.917 153.204 254.643 153.412C254.368 153.627 254.078 153.801 253.774 153.935C253.477 154.069 253.172 154.165 252.861 154.225C252.556 154.291 252.266 154.325 251.992 154.325H246.768V151.429H251.992C252.385 151.429 252.679 151.329 252.872 151.128C253.065 150.928 253.161 150.638 253.161 150.26V141.116C253.161 140.737 253.065 140.451 252.872 140.258C252.679 140.057 252.385 139.957 251.992 139.957H246.768C246.412 139.957 246.13 140.069 245.922 140.291C245.714 140.507 245.61 140.781 245.61 141.116V145.036C245.61 145.415 245.71 145.704 245.911 145.905C246.111 146.105 246.404 146.205 246.79 146.205H251.992V149.101H246.768C246.493 149.101 246.204 149.072 245.899 149.012C245.595 148.945 245.291 148.845 244.986 148.711C244.689 148.578 244.403 148.407 244.129 148.199C243.854 147.984 243.612 147.728 243.405 147.431C243.197 147.126 243.03 146.777 242.903 146.384C242.777 145.983 242.714 145.533 242.714 145.036V141.116C242.714 140.841 242.744 140.551 242.803 140.247C242.87 139.942 242.97 139.642 243.104 139.345C243.237 139.04 243.408 138.751 243.616 138.476C243.831 138.201 244.088 137.96 244.385 137.752C244.689 137.544 245.038 137.377 245.432 137.251C245.825 137.124 246.271 137.061 246.768 137.061H251.992C252.266 137.061 252.556 137.095 252.861 137.162C253.172 137.221 253.477 137.318 253.774 137.451C254.078 137.585 254.368 137.759 254.643 137.975C254.917 138.183 255.159 138.439 255.367 138.743C255.574 139.04 255.741 139.385 255.868 139.779C255.994 140.173 256.057 140.618 256.057 141.116V150.26ZM261.648 134.589H258.752V131.971H261.648V134.589ZM261.648 149.101H258.752V137.061H261.648V149.101ZM276.094 149.101H268.242C267.841 149.101 267.403 149.031 266.927 148.89C266.452 148.749 266.01 148.518 265.602 148.199C265.201 147.872 264.863 147.453 264.589 146.941C264.321 146.421 264.188 145.786 264.188 145.036V141.116C264.188 140.841 264.217 140.551 264.277 140.247C264.344 139.942 264.444 139.642 264.577 139.345C264.711 139.04 264.882 138.751 265.09 138.476C265.305 138.201 265.561 137.96 265.858 137.752C266.163 137.544 266.512 137.377 266.905 137.251C267.299 137.124 267.744 137.061 268.242 137.061H276.094V139.957H268.242C267.863 139.957 267.573 140.054 267.373 140.247C267.18 140.44 267.083 140.737 267.083 141.138V145.036C267.083 145.415 267.184 145.704 267.384 145.905C267.585 146.105 267.878 146.205 268.264 146.205H276.094V149.101ZM290.829 145.114C290.829 145.515 290.759 145.949 290.618 146.417C290.476 146.877 290.246 147.308 289.927 147.709C289.615 148.103 289.203 148.433 288.691 148.7C288.186 148.968 287.569 149.101 286.842 149.101H281.618C281.217 149.101 280.783 149.031 280.315 148.89C279.855 148.749 279.424 148.522 279.023 148.21C278.63 147.891 278.299 147.479 278.032 146.974C277.765 146.462 277.631 145.842 277.631 145.114C277.631 144.713 277.701 144.279 277.843 143.811C277.984 143.343 278.21 142.912 278.522 142.519C278.841 142.118 279.253 141.784 279.758 141.516C280.271 141.249 280.891 141.116 281.618 141.116H286.842V143.878H281.618C281.225 143.878 280.92 144 280.705 144.245C280.49 144.483 280.382 144.78 280.382 145.136C280.382 145.515 280.504 145.812 280.749 146.027C281.002 146.235 281.299 146.339 281.64 146.339H286.842C287.235 146.339 287.54 146.22 287.755 145.983C287.97 145.745 288.078 145.448 288.078 145.092V141.049C288.078 140.67 287.959 140.369 287.722 140.147C287.492 139.924 287.198 139.812 286.842 139.812H280.482V137.061H286.842C287.243 137.061 287.673 137.132 288.134 137.273C288.602 137.414 289.032 137.644 289.426 137.964C289.827 138.275 290.161 138.687 290.428 139.2C290.695 139.705 290.829 140.321 290.829 141.049V145.114ZM304.941 145.036C304.941 145.533 304.878 145.983 304.751 146.384C304.625 146.777 304.458 147.126 304.25 147.431C304.042 147.728 303.801 147.984 303.526 148.199C303.251 148.407 302.962 148.578 302.657 148.711C302.36 148.845 302.056 148.945 301.744 149.012C301.44 149.072 301.15 149.101 300.875 149.101H293.034V146.205H300.853C301.247 146.205 301.544 146.105 301.744 145.905C301.945 145.704 302.045 145.415 302.045 145.036C302.008 144.264 301.618 143.878 300.875 143.878H296.387C295.748 143.878 295.206 143.766 294.761 143.544C294.315 143.321 293.951 143.042 293.669 142.708C293.395 142.374 293.194 142.014 293.068 141.628C292.949 141.242 292.89 140.882 292.89 140.547C292.89 139.901 293.005 139.359 293.235 138.921C293.465 138.476 293.755 138.116 294.104 137.841C294.453 137.566 294.831 137.37 295.24 137.251C295.648 137.124 296.03 137.061 296.387 137.061H303.504V139.957H296.409C296.261 139.957 296.142 139.976 296.053 140.013C295.971 140.043 295.908 140.087 295.863 140.147C295.826 140.198 295.804 140.258 295.797 140.325C295.789 140.384 295.785 140.444 295.785 140.503C295.793 140.622 295.815 140.715 295.852 140.781C295.889 140.848 295.934 140.896 295.986 140.926C296.045 140.956 296.108 140.974 296.175 140.982C296.25 140.982 296.32 140.982 296.387 140.982H300.875C301.618 140.982 302.249 141.116 302.769 141.383C303.289 141.65 303.708 141.988 304.027 142.396C304.347 142.797 304.577 143.235 304.718 143.711C304.866 144.186 304.941 144.628 304.941 145.036Z" fill="#454545"/>
<path d="M10.1971 167.82C10.1971 167.894 10.1948 167.958 10.1902 168.014C10.1856 168.069 10.1763 168.118 10.1624 168.159C10.1532 168.201 10.1393 168.238 10.1208 168.27C10.1023 168.303 10.07 168.342 10.0237 168.388C9.97752 168.434 9.88043 168.506 9.73248 168.603C9.58454 168.696 9.39961 168.788 9.1777 168.881C8.96041 168.968 8.70844 169.042 8.4218 169.102C8.13979 169.167 7.83003 169.2 7.49253 169.2C6.91001 169.2 6.38296 169.102 5.91139 168.908C5.44445 168.714 5.04454 168.427 4.71167 168.048C4.38342 167.669 4.12914 167.202 3.94884 166.648C3.77315 166.088 3.68531 165.446 3.68531 164.72C3.68531 163.975 3.78009 163.312 3.96964 162.729C4.16382 162.147 4.43427 161.654 4.78102 161.252C5.12776 160.845 5.54154 160.536 6.02235 160.323C6.50779 160.11 7.04408 160.004 7.63123 160.004C7.89013 160.004 8.1421 160.029 8.38713 160.08C8.63216 160.127 8.8587 160.187 9.06674 160.261C9.27479 160.335 9.45971 160.42 9.62153 160.517C9.78334 160.614 9.8943 160.695 9.9544 160.76C10.0191 160.82 10.0607 160.866 10.0792 160.899C10.0977 160.931 10.1116 160.97 10.1208 161.016C10.1347 161.058 10.144 161.109 10.1486 161.169C10.1578 161.229 10.1624 161.301 10.1624 161.384C10.1624 161.476 10.1578 161.555 10.1486 161.62C10.1393 161.685 10.1255 161.74 10.107 161.786C10.0885 161.828 10.0654 161.86 10.0376 161.883C10.0145 161.902 9.98445 161.911 9.94746 161.911C9.88274 161.911 9.79259 161.867 9.67701 161.779C9.56143 161.687 9.41117 161.587 9.22624 161.481C9.04594 161.37 8.82402 161.271 8.5605 161.183C8.3016 161.09 7.98953 161.044 7.6243 161.044C7.2267 161.044 6.86378 161.125 6.53553 161.287C6.2119 161.444 5.93451 161.678 5.70335 161.987C5.47219 162.297 5.29188 162.676 5.16243 163.125C5.0376 163.568 4.97519 164.077 4.97519 164.65C4.97519 165.219 5.03529 165.723 5.1555 166.162C5.28032 166.597 5.45601 166.962 5.68254 167.258C5.9137 167.549 6.19572 167.771 6.52859 167.924C6.86146 168.072 7.23826 168.145 7.65897 168.145C8.01496 168.145 8.32471 168.102 8.58824 168.014C8.85638 167.926 9.08292 167.829 9.26785 167.722C9.4574 167.611 9.61228 167.512 9.73248 167.424C9.85269 167.336 9.94746 167.292 10.0168 167.292C10.0492 167.292 10.0769 167.299 10.1 167.313C10.1231 167.327 10.1416 167.355 10.1555 167.397C10.1694 167.434 10.1786 167.487 10.1832 167.556C10.1925 167.625 10.1971 167.713 10.1971 167.82ZM19.1708 164.498C19.1708 165.224 19.0853 165.878 18.9142 166.46C18.7431 167.043 18.4866 167.54 18.1444 167.951C17.8069 168.358 17.3816 168.673 16.8684 168.894C16.3552 169.112 15.7565 169.22 15.0723 169.22C14.3973 169.22 13.8125 169.121 13.3178 168.922C12.8277 168.719 12.4209 168.425 12.0973 168.041C11.7783 167.658 11.5402 167.182 11.383 166.613C11.2258 166.044 11.1472 165.39 11.1472 164.65C11.1472 163.943 11.2327 163.3 11.4038 162.722C11.5748 162.145 11.8314 161.654 12.1735 161.252C12.5157 160.845 12.9433 160.533 13.4565 160.316C13.9697 160.094 14.5684 159.983 15.2526 159.983C15.9137 159.983 16.4893 160.083 16.9794 160.281C17.4694 160.48 17.8763 160.771 18.1999 161.155C18.5282 161.534 18.7709 162.006 18.9281 162.57C19.0899 163.129 19.1708 163.772 19.1708 164.498ZM17.9156 164.581C17.9156 164.072 17.8694 163.601 17.7769 163.166C17.689 162.727 17.5388 162.348 17.3261 162.029C17.1181 161.705 16.8384 161.453 16.487 161.273C16.1356 161.093 15.7011 161.003 15.1833 161.003C14.6655 161.003 14.2309 161.1 13.8795 161.294C13.5281 161.488 13.2415 161.747 13.0196 162.071C12.8023 162.394 12.6451 162.773 12.548 163.208C12.4556 163.638 12.4093 164.091 12.4093 164.567C12.4093 165.094 12.4532 165.58 12.5411 166.023C12.6289 166.467 12.7769 166.851 12.9849 167.175C13.193 167.494 13.4704 167.743 13.8171 167.924C14.1685 168.099 14.6077 168.187 15.1347 168.187C15.6571 168.187 16.0963 168.09 16.4523 167.896C16.8083 167.702 17.095 167.44 17.3123 167.112C17.5295 166.779 17.6844 166.396 17.7769 165.961C17.8694 165.526 17.9156 165.066 17.9156 164.581ZM30.8144 168.908C30.8144 168.945 30.8051 168.978 30.7866 169.005C30.7681 169.033 30.7358 169.056 30.6895 169.075C30.6433 169.089 30.5832 169.1 30.5092 169.109C30.4399 169.123 30.3474 169.13 30.2318 169.13C30.1255 169.13 30.033 169.123 29.9544 169.109C29.8805 169.1 29.8204 169.089 29.7741 169.075C29.7325 169.056 29.7025 169.033 29.684 169.005C29.6655 168.978 29.6563 168.945 29.6563 168.908V161.093H29.6424L26.4454 168.943C26.4316 168.975 26.4108 169.003 26.383 169.026C26.3599 169.049 26.3229 169.07 26.2721 169.089C26.2258 169.102 26.168 169.112 26.0987 169.116C26.034 169.126 25.9554 169.13 25.8629 169.13C25.7658 169.13 25.6826 169.126 25.6132 169.116C25.5439 169.107 25.4861 169.096 25.4399 169.082C25.3936 169.063 25.3567 169.042 25.3289 169.019C25.3058 168.996 25.2896 168.971 25.2804 168.943L22.2221 161.093H22.2152V168.908C22.2152 168.945 22.2059 168.978 22.1874 169.005C22.1689 169.033 22.1366 169.056 22.0904 169.075C22.0441 169.089 21.984 169.1 21.91 169.109C21.8361 169.123 21.7413 169.13 21.6257 169.13C21.5148 169.13 21.4223 169.123 21.3483 169.109C21.2744 169.1 21.2143 169.089 21.168 169.075C21.1264 169.056 21.0964 169.033 21.0779 169.005C21.064 168.978 21.0571 168.945 21.0571 168.908V160.656C21.0571 160.462 21.1079 160.323 21.2096 160.24C21.3113 160.157 21.4246 160.115 21.5494 160.115H22.2707C22.4186 160.115 22.5481 160.129 22.659 160.157C22.77 160.184 22.8671 160.228 22.9503 160.288C23.0335 160.348 23.1028 160.425 23.1583 160.517C23.2138 160.61 23.2623 160.718 23.3039 160.843L25.9045 167.341H25.9392L28.6438 160.864C28.6946 160.725 28.7501 160.607 28.8102 160.51C28.8703 160.413 28.935 160.337 29.0044 160.281C29.0783 160.221 29.1593 160.18 29.2471 160.157C29.3349 160.129 29.4366 160.115 29.5522 160.115H30.3081C30.3775 160.115 30.4422 160.127 30.5023 160.15C30.567 160.168 30.6202 160.2 30.6618 160.247C30.708 160.288 30.745 160.344 30.7728 160.413C30.8005 160.478 30.8144 160.559 30.8144 160.656V168.908ZM39.9545 165.774C39.9545 166.319 39.8736 166.807 39.7118 167.237C39.5546 167.662 39.328 168.023 39.0321 168.319C38.7363 168.615 38.3756 168.839 37.9503 168.992C37.525 169.144 37.0418 169.22 36.5009 169.22C36.0062 169.22 35.5555 169.149 35.1486 169.005C34.7418 168.862 34.3927 168.652 34.1015 168.374C33.8102 168.092 33.586 167.741 33.4288 167.32C33.2716 166.9 33.193 166.414 33.193 165.864V160.295C33.193 160.258 33.2023 160.226 33.2208 160.198C33.2392 160.17 33.2716 160.15 33.3178 160.136C33.3641 160.117 33.4242 160.103 33.4981 160.094C33.5721 160.08 33.6692 160.073 33.7894 160.073C33.9004 160.073 33.9951 160.08 34.0737 160.094C34.1523 160.103 34.2124 160.117 34.254 160.136C34.3003 160.15 34.3326 160.17 34.3511 160.198C34.3696 160.226 34.3789 160.258 34.3789 160.295V165.718C34.3789 166.134 34.4297 166.497 34.5314 166.807C34.6331 167.117 34.7788 167.376 34.9683 167.584C35.1625 167.787 35.3937 167.942 35.6618 168.048C35.9346 168.15 36.2397 168.201 36.5772 168.201C36.924 168.201 37.2314 168.15 37.4995 168.048C37.7723 167.947 38.0012 167.794 38.1861 167.591C38.3756 167.387 38.519 167.135 38.6161 166.835C38.7178 166.534 38.7686 166.183 38.7686 165.781V160.295C38.7686 160.258 38.7779 160.226 38.7964 160.198C38.8149 160.17 38.8472 160.15 38.8934 160.136C38.9397 160.117 38.9998 160.103 39.0738 160.094C39.1523 160.08 39.2494 160.073 39.365 160.073C39.476 160.073 39.5684 160.08 39.6424 160.094C39.721 160.103 39.7811 160.117 39.8227 160.136C39.8689 160.15 39.9013 160.17 39.9198 160.198C39.9429 160.226 39.9545 160.258 39.9545 160.295V165.774ZM49.1015 168.596C49.1015 168.689 49.0853 168.767 49.053 168.832C49.0252 168.897 48.9859 168.95 48.9351 168.992C48.8888 169.033 48.8357 169.063 48.7756 169.082C48.7155 169.1 48.6554 169.109 48.5953 169.109H48.2139C48.0937 169.109 47.9873 169.098 47.8949 169.075C47.807 169.047 47.7215 169.001 47.6383 168.936C47.5597 168.867 47.4788 168.774 47.3955 168.659C47.317 168.543 47.2291 168.395 47.132 168.215L44.3026 163.111C44.1547 162.847 44.0044 162.572 43.8518 162.286C43.7039 161.994 43.5652 161.712 43.4358 161.439H43.4219C43.4311 161.772 43.4381 162.112 43.4427 162.459C43.4473 162.806 43.4496 163.15 43.4496 163.492V168.908C43.4496 168.941 43.4404 168.973 43.4219 169.005C43.4034 169.033 43.371 169.056 43.3248 169.075C43.2832 169.089 43.2254 169.1 43.1514 169.109C43.0821 169.123 42.9919 169.13 42.881 169.13C42.77 169.13 42.6776 169.123 42.6036 169.109C42.5342 169.1 42.4788 169.089 42.4371 169.075C42.3955 169.056 42.3655 169.033 42.347 169.005C42.3285 168.973 42.3193 168.941 42.3193 168.908V160.628C42.3193 160.443 42.3701 160.311 42.4718 160.233C42.5735 160.154 42.6845 160.115 42.8047 160.115H43.3733C43.5074 160.115 43.6184 160.127 43.7062 160.15C43.7987 160.173 43.8796 160.212 43.9489 160.268C44.0229 160.318 44.0923 160.392 44.157 160.489C44.2263 160.582 44.3003 160.7 44.3789 160.843L46.5564 164.782C46.6905 165.022 46.82 165.258 46.9448 165.489C47.0696 165.716 47.1898 165.94 47.3054 166.162C47.421 166.384 47.5342 166.604 47.6452 166.821C47.7608 167.034 47.8741 167.249 47.985 167.466H47.9919C47.9827 167.101 47.9758 166.722 47.9711 166.329C47.9711 165.931 47.9711 165.55 47.9711 165.184V160.316C47.9711 160.284 47.9804 160.254 47.9989 160.226C48.0174 160.198 48.0474 160.175 48.089 160.157C48.1353 160.133 48.1931 160.117 48.2624 160.108C48.3364 160.099 48.4311 160.094 48.5467 160.094C48.6484 160.094 48.7363 160.099 48.8103 160.108C48.8842 160.117 48.942 160.133 48.9836 160.157C49.0252 160.175 49.0553 160.198 49.0738 160.226C49.0923 160.254 49.1015 160.284 49.1015 160.316V168.596ZM52.6799 168.908C52.6799 168.945 52.6706 168.978 52.6521 169.005C52.6337 169.033 52.6013 169.056 52.5551 169.075C52.5088 169.089 52.4464 169.1 52.3678 169.109C52.2938 169.123 52.1991 169.13 52.0835 169.13C51.9725 169.13 51.8778 169.123 51.7992 169.109C51.7206 169.1 51.6582 169.089 51.6119 169.075C51.5657 169.056 51.5333 169.033 51.5148 169.005C51.4963 168.978 51.4871 168.945 51.4871 168.908V160.295C51.4871 160.258 51.4963 160.226 51.5148 160.198C51.538 160.17 51.5726 160.15 51.6189 160.136C51.6697 160.117 51.7321 160.103 51.8061 160.094C51.8847 160.08 51.9772 160.073 52.0835 160.073C52.1991 160.073 52.2938 160.08 52.3678 160.094C52.4464 160.103 52.5088 160.117 52.5551 160.136C52.6013 160.15 52.6337 160.17 52.6521 160.198C52.6706 160.226 52.6799 160.258 52.6799 160.295V168.908ZM61.0572 167.82C61.0572 167.894 61.0548 167.958 61.0502 168.014C61.0456 168.069 61.0364 168.118 61.0225 168.159C61.0132 168.201 60.9994 168.238 60.9809 168.27C60.9624 168.303 60.93 168.342 60.8838 168.388C60.8376 168.434 60.7405 168.506 60.5925 168.603C60.4446 168.696 60.2597 168.788 60.0377 168.881C59.8204 168.968 59.5685 169.042 59.2818 169.102C58.9998 169.167 58.6901 169.2 58.3526 169.2C57.7701 169.2 57.243 169.102 56.7714 168.908C56.3045 168.714 55.9046 168.427 55.5717 168.048C55.2435 167.669 54.9892 167.202 54.8089 166.648C54.6332 166.088 54.5454 165.446 54.5454 164.72C54.5454 163.975 54.6401 163.312 54.8297 162.729C55.0239 162.147 55.2943 161.654 55.6411 161.252C55.9878 160.845 56.4016 160.536 56.8824 160.323C57.3678 160.11 57.9041 160.004 58.4913 160.004C58.7502 160.004 59.0021 160.029 59.2472 160.08C59.4922 160.127 59.7187 160.187 59.9268 160.261C60.1348 160.335 60.3198 160.42 60.4816 160.517C60.6434 160.614 60.7543 160.695 60.8144 160.76C60.8792 160.82 60.9208 160.866 60.9393 160.899C60.9578 160.931 60.9716 160.97 60.9809 161.016C60.9947 161.058 61.004 161.109 61.0086 161.169C61.0179 161.229 61.0225 161.301 61.0225 161.384C61.0225 161.476 61.0179 161.555 61.0086 161.62C60.9994 161.685 60.9855 161.74 60.967 161.786C60.9485 161.828 60.9254 161.86 60.8977 161.883C60.8745 161.902 60.8445 161.911 60.8075 161.911C60.7428 161.911 60.6526 161.867 60.537 161.779C60.4215 161.687 60.2712 161.587 60.0863 161.481C59.906 161.37 59.6841 161.271 59.4205 161.183C59.1616 161.09 58.8496 161.044 58.4843 161.044C58.0867 161.044 57.7238 161.125 57.3956 161.287C57.0719 161.444 56.7946 161.678 56.5634 161.987C56.3322 162.297 56.1519 162.676 56.0225 163.125C55.8976 163.568 55.8352 164.077 55.8352 164.65C55.8352 165.219 55.8953 165.723 56.0155 166.162C56.1404 166.597 56.316 166.962 56.5426 167.258C56.7737 167.549 57.0558 167.771 57.3886 167.924C57.7215 168.072 58.0983 168.145 58.519 168.145C58.875 168.145 59.1848 168.102 59.4483 168.014C59.7164 167.926 59.943 167.829 60.1279 167.722C60.3174 167.611 60.4723 167.512 60.5925 167.424C60.7127 167.336 60.8075 167.292 60.8769 167.292C60.9092 167.292 60.937 167.299 60.9601 167.313C60.9832 167.327 61.0017 167.355 61.0156 167.397C61.0294 167.434 61.0387 167.487 61.0433 167.556C61.0525 167.625 61.0572 167.713 61.0572 167.82ZM69.3582 168.666C69.3951 168.767 69.4136 168.851 69.4136 168.915C69.4183 168.975 69.4021 169.022 69.3651 169.054C69.3281 169.086 69.2657 169.107 69.1778 169.116C69.0946 169.126 68.9814 169.13 68.838 169.13C68.6947 169.13 68.5791 169.126 68.4913 169.116C68.4081 169.112 68.3434 169.102 68.2971 169.089C68.2555 169.07 68.2232 169.047 68.2 169.019C68.1815 168.992 68.163 168.957 68.1446 168.915L67.3748 166.731H63.6439L62.9088 168.888C62.8949 168.929 62.8764 168.966 62.8533 168.998C62.8302 169.026 62.7955 169.052 62.7493 169.075C62.7076 169.093 62.6452 169.107 62.562 169.116C62.4834 169.126 62.3794 169.13 62.25 169.13C62.1159 169.13 62.0049 169.123 61.9171 169.109C61.8339 169.1 61.7738 169.079 61.7368 169.047C61.7044 169.015 61.6882 168.968 61.6882 168.908C61.6929 168.844 61.7137 168.76 61.7506 168.659L64.7604 160.323C64.7789 160.272 64.802 160.231 64.8297 160.198C64.8621 160.166 64.906 160.14 64.9615 160.122C65.0216 160.103 65.0955 160.092 65.1834 160.087C65.2758 160.078 65.3914 160.073 65.5301 160.073C65.6781 160.073 65.8006 160.078 65.8977 160.087C65.9948 160.092 66.0734 160.103 66.1335 160.122C66.1936 160.14 66.2398 160.168 66.2722 160.205C66.3045 160.237 66.3299 160.279 66.3484 160.33L69.3582 168.666ZM65.4955 161.308H65.4885L63.942 165.781H67.0627L65.4955 161.308ZM76.7437 167.82C76.7437 167.894 76.7414 167.958 76.7368 168.014C76.7322 168.069 76.7229 168.118 76.7091 168.159C76.6998 168.201 76.686 168.238 76.6675 168.27C76.649 168.303 76.6166 168.342 76.5704 168.388C76.5241 168.434 76.4271 168.506 76.2791 168.603C76.1312 168.696 75.9462 168.788 75.7243 168.881C75.507 168.968 75.2551 169.042 74.9684 169.102C74.6864 169.167 74.3767 169.2 74.0392 169.2C73.4566 169.2 72.9296 169.102 72.458 168.908C71.9911 168.714 71.5912 168.427 71.2583 168.048C70.93 167.669 70.6758 167.202 70.4955 166.648C70.3198 166.088 70.2319 165.446 70.2319 164.72C70.2319 163.975 70.3267 163.312 70.5163 162.729C70.7104 162.147 70.9809 161.654 71.3276 161.252C71.6744 160.845 72.0882 160.536 72.569 160.323C73.0544 160.11 73.5907 160.004 74.1779 160.004C74.4368 160.004 74.6887 160.029 74.9338 160.08C75.1788 160.127 75.4053 160.187 75.6134 160.261C75.8214 160.335 76.0063 160.42 76.1682 160.517C76.33 160.614 76.4409 160.695 76.501 160.76C76.5658 160.82 76.6074 160.866 76.6259 160.899C76.6443 160.931 76.6582 160.97 76.6675 161.016C76.6813 161.058 76.6906 161.109 76.6952 161.169C76.7045 161.229 76.7091 161.301 76.7091 161.384C76.7091 161.476 76.7045 161.555 76.6952 161.62C76.686 161.685 76.6721 161.74 76.6536 161.786C76.6351 161.828 76.612 161.86 76.5842 161.883C76.5611 161.902 76.5311 161.911 76.4941 161.911C76.4294 161.911 76.3392 161.867 76.2236 161.779C76.1081 161.687 75.9578 161.587 75.7729 161.481C75.5926 161.37 75.3707 161.271 75.1071 161.183C74.8482 161.09 74.5362 161.044 74.1709 161.044C73.7733 161.044 73.4104 161.125 73.0822 161.287C72.7585 161.444 72.4811 161.678 72.25 161.987C72.0188 162.297 71.8385 162.676 71.7091 163.125C71.5842 163.568 71.5218 164.077 71.5218 164.65C71.5218 165.219 71.5819 165.723 71.7021 166.162C71.827 166.597 72.0026 166.962 72.2292 167.258C72.4603 167.549 72.7424 167.771 73.0752 167.924C73.4081 168.072 73.7849 168.145 74.2056 168.145C74.5616 168.145 74.8713 168.102 75.1349 168.014C75.403 167.926 75.6296 167.829 75.8145 167.722C76.004 167.611 76.1589 167.512 76.2791 167.424C76.3993 167.336 76.4941 167.292 76.5634 167.292C76.5958 167.292 76.6235 167.299 76.6467 167.313C76.6698 167.327 76.6883 167.355 76.7021 167.397C76.716 167.434 76.7253 167.487 76.7299 167.556C76.7391 167.625 76.7437 167.713 76.7437 167.82ZM79.5177 168.908C79.5177 168.945 79.5084 168.978 79.4899 169.005C79.4714 169.033 79.4391 169.056 79.3928 169.075C79.3466 169.089 79.2842 169.1 79.2056 169.109C79.1316 169.123 79.0369 169.13 78.9213 169.13C78.8103 169.13 78.7155 169.123 78.637 169.109C78.5584 169.1 78.4959 169.089 78.4497 169.075C78.4035 169.056 78.3711 169.033 78.3526 169.005C78.3341 168.978 78.3249 168.945 78.3249 168.908V160.295C78.3249 160.258 78.3341 160.226 78.3526 160.198C78.3757 160.17 78.4104 160.15 78.4566 160.136C78.5075 160.117 78.5699 160.103 78.6439 160.094C78.7225 160.08 78.8149 160.073 78.9213 160.073C79.0369 160.073 79.1316 160.08 79.2056 160.094C79.2842 160.103 79.3466 160.117 79.3928 160.136C79.4391 160.15 79.4714 160.17 79.4899 160.198C79.5084 160.226 79.5177 160.258 79.5177 160.295V168.908ZM89.4206 164.498C89.4206 165.224 89.3351 165.878 89.164 166.46C88.993 167.043 88.7364 167.54 88.3943 167.951C88.0568 168.358 87.6314 168.673 87.1183 168.894C86.6051 169.112 86.0064 169.22 85.3221 169.22C84.6471 169.22 84.0623 169.121 83.5676 168.922C83.0776 168.719 82.6707 168.425 82.3471 168.041C82.0281 167.658 81.79 167.182 81.6328 166.613C81.4756 166.044 81.397 165.39 81.397 164.65C81.397 163.943 81.4825 163.3 81.6536 162.722C81.8247 162.145 82.0813 161.654 82.4234 161.252C82.7655 160.845 83.1931 160.533 83.7063 160.316C84.2195 160.094 84.8182 159.983 85.5024 159.983C86.1636 159.983 86.7392 160.083 87.2292 160.281C87.7193 160.48 88.1261 160.771 88.4497 161.155C88.778 161.534 89.0207 162.006 89.1779 162.57C89.3397 163.129 89.4206 163.772 89.4206 164.498ZM88.1654 164.581C88.1654 164.072 88.1192 163.601 88.0267 163.166C87.9389 162.727 87.7886 162.348 87.576 162.029C87.3679 161.705 87.0882 161.453 86.7368 161.273C86.3855 161.093 85.9509 161.003 85.4331 161.003C84.9153 161.003 84.4807 161.1 84.1293 161.294C83.778 161.488 83.4913 161.747 83.2694 162.071C83.0521 162.394 82.8949 162.773 82.7979 163.208C82.7054 163.638 82.6592 164.091 82.6592 164.567C82.6592 165.094 82.7031 165.58 82.7909 166.023C82.8788 166.467 83.0267 166.851 83.2348 167.175C83.4428 167.494 83.7202 167.743 84.0669 167.924C84.4183 168.099 84.8575 168.187 85.3845 168.187C85.907 168.187 86.3462 168.09 86.7022 167.896C87.0582 167.702 87.3448 167.44 87.5621 167.112C87.7794 166.779 87.9343 166.396 88.0267 165.961C88.1192 165.526 88.1654 165.066 88.1654 164.581ZM98.0892 168.596C98.0892 168.689 98.073 168.767 98.0406 168.832C98.0129 168.897 97.9736 168.95 97.9227 168.992C97.8765 169.033 97.8233 169.063 97.7632 169.082C97.7031 169.1 97.643 169.109 97.5829 169.109H97.2015C97.0813 169.109 96.975 169.098 96.8825 169.075C96.7947 169.047 96.7091 169.001 96.6259 168.936C96.5473 168.867 96.4664 168.774 96.3832 168.659C96.3046 168.543 96.2167 168.395 96.1197 168.215L93.2902 163.111C93.1423 162.847 92.9921 162.572 92.8395 162.286C92.6915 161.994 92.5528 161.712 92.4234 161.439H92.4095C92.4188 161.772 92.4257 162.112 92.4303 162.459C92.435 162.806 92.4373 163.15 92.4373 163.492V168.908C92.4373 168.941 92.428 168.973 92.4095 169.005C92.391 169.033 92.3587 169.056 92.3124 169.075C92.2708 169.089 92.213 169.1 92.1391 169.109C92.0697 169.123 91.9796 169.13 91.8686 169.13C91.7577 169.13 91.6652 169.123 91.5912 169.109C91.5219 169.1 91.4664 169.089 91.4248 169.075C91.3832 169.056 91.3531 169.033 91.3346 169.005C91.3161 168.973 91.3069 168.941 91.3069 168.908V160.628C91.3069 160.443 91.3577 160.311 91.4595 160.233C91.5612 160.154 91.6721 160.115 91.7923 160.115H92.361C92.4951 160.115 92.606 160.127 92.6939 160.15C92.7863 160.173 92.8672 160.212 92.9366 160.268C93.0105 160.318 93.0799 160.392 93.1446 160.489C93.214 160.582 93.2879 160.7 93.3665 160.843L95.5441 164.782C95.6781 165.022 95.8076 165.258 95.9324 165.489C96.0572 165.716 96.1775 165.94 96.293 166.162C96.4086 166.384 96.5219 166.604 96.6328 166.821C96.7484 167.034 96.8617 167.249 96.9726 167.466H96.9796C96.9703 167.101 96.9634 166.722 96.9588 166.329C96.9588 165.931 96.9588 165.55 96.9588 165.184V160.316C96.9588 160.284 96.968 160.254 96.9865 160.226C97.005 160.198 97.0351 160.175 97.0767 160.157C97.1229 160.133 97.1807 160.117 97.25 160.108C97.324 160.099 97.4188 160.094 97.5344 160.094C97.6361 160.094 97.7239 160.099 97.7979 160.108C97.8719 160.117 97.9297 160.133 97.9713 160.157C98.0129 160.175 98.0429 160.198 98.0614 160.226C98.0799 160.254 98.0892 160.284 98.0892 160.316V168.596ZM105.468 168.596C105.468 168.679 105.463 168.753 105.454 168.818C105.445 168.878 105.429 168.929 105.405 168.971C105.382 169.012 105.355 169.042 105.322 169.061C105.294 169.079 105.262 169.089 105.225 169.089H100.919C100.812 169.089 100.711 169.054 100.613 168.985C100.521 168.911 100.475 168.783 100.475 168.603V160.6C100.475 160.42 100.521 160.295 100.613 160.226C100.711 160.152 100.812 160.115 100.919 160.115H105.177C105.214 160.115 105.246 160.124 105.274 160.143C105.306 160.161 105.331 160.191 105.35 160.233C105.368 160.274 105.382 160.328 105.392 160.392C105.405 160.452 105.412 160.529 105.412 160.621C105.412 160.704 105.405 160.778 105.392 160.843C105.382 160.903 105.368 160.954 105.35 160.996C105.331 161.033 105.306 161.06 105.274 161.079C105.246 161.097 105.214 161.107 105.177 161.107H101.668V163.922H104.677C104.714 163.922 104.747 163.934 104.774 163.957C104.807 163.975 104.832 164.003 104.851 164.04C104.874 164.077 104.89 164.128 104.899 164.193C104.908 164.257 104.913 164.334 104.913 164.421C104.913 164.505 104.908 164.576 104.899 164.636C104.89 164.697 104.874 164.745 104.851 164.782C104.832 164.819 104.807 164.847 104.774 164.865C104.747 164.879 104.714 164.886 104.677 164.886H101.668V168.097H105.225C105.262 168.097 105.294 168.106 105.322 168.125C105.355 168.143 105.382 168.173 105.405 168.215C105.429 168.252 105.445 168.303 105.454 168.367C105.463 168.427 105.468 168.504 105.468 168.596ZM112.091 166.571C112.091 166.992 112.012 167.366 111.855 167.695C111.702 168.023 111.487 168.303 111.21 168.534C110.937 168.76 110.613 168.931 110.239 169.047C109.869 169.163 109.469 169.22 109.039 169.22C108.739 169.22 108.459 169.195 108.2 169.144C107.946 169.093 107.717 169.031 107.514 168.957C107.315 168.883 107.146 168.807 107.007 168.728C106.873 168.649 106.778 168.582 106.723 168.527C106.672 168.471 106.633 168.402 106.605 168.319C106.582 168.231 106.57 168.115 106.57 167.972C106.57 167.87 106.575 167.787 106.584 167.722C106.594 167.653 106.607 167.598 106.626 167.556C106.644 167.514 106.668 167.487 106.695 167.473C106.723 167.454 106.755 167.445 106.792 167.445C106.857 167.445 106.947 167.484 107.063 167.563C107.183 167.642 107.336 167.727 107.521 167.82C107.705 167.912 107.927 168 108.186 168.083C108.45 168.162 108.753 168.201 109.095 168.201C109.354 168.201 109.589 168.166 109.802 168.097C110.019 168.028 110.204 167.93 110.357 167.806C110.514 167.676 110.634 167.519 110.717 167.334C110.801 167.149 110.842 166.939 110.842 166.703C110.842 166.449 110.785 166.231 110.669 166.051C110.553 165.871 110.401 165.714 110.211 165.58C110.022 165.441 109.804 165.316 109.559 165.205C109.319 165.09 109.072 164.974 108.817 164.858C108.563 164.738 108.316 164.606 108.075 164.463C107.835 164.32 107.62 164.151 107.43 163.957C107.241 163.763 107.086 163.536 106.966 163.277C106.85 163.014 106.792 162.699 106.792 162.334C106.792 161.96 106.859 161.627 106.993 161.335C107.132 161.04 107.322 160.792 107.562 160.593C107.807 160.395 108.096 160.244 108.429 160.143C108.766 160.036 109.129 159.983 109.518 159.983C109.717 159.983 109.915 160.002 110.114 160.039C110.318 160.071 110.507 160.117 110.683 160.177C110.863 160.233 111.023 160.298 111.161 160.372C111.3 160.441 111.39 160.499 111.432 160.545C111.478 160.587 111.508 160.621 111.522 160.649C111.536 160.672 111.547 160.704 111.557 160.746C111.566 160.783 111.573 160.829 111.577 160.885C111.582 160.94 111.584 161.012 111.584 161.1C111.584 161.183 111.58 161.257 111.57 161.322C111.566 161.386 111.557 161.442 111.543 161.488C111.529 161.53 111.508 161.562 111.48 161.585C111.457 161.604 111.429 161.613 111.397 161.613C111.346 161.613 111.265 161.581 111.154 161.516C111.048 161.451 110.916 161.379 110.759 161.301C110.602 161.218 110.415 161.144 110.197 161.079C109.985 161.01 109.744 160.975 109.476 160.975C109.226 160.975 109.009 161.01 108.824 161.079C108.639 161.144 108.487 161.231 108.367 161.342C108.246 161.453 108.156 161.585 108.096 161.738C108.036 161.89 108.006 162.052 108.006 162.223C108.006 162.473 108.064 162.688 108.179 162.868C108.295 163.048 108.447 163.208 108.637 163.347C108.831 163.485 109.051 163.612 109.296 163.728C109.541 163.844 109.791 163.961 110.045 164.082C110.299 164.197 110.549 164.327 110.794 164.47C111.039 164.609 111.256 164.775 111.446 164.969C111.64 165.159 111.795 165.385 111.91 165.649C112.03 165.908 112.091 166.215 112.091 166.571ZM119.636 171.398C119.636 171.435 119.626 171.467 119.608 171.495C119.594 171.523 119.566 171.546 119.525 171.564C119.483 171.583 119.428 171.597 119.358 171.606C119.289 171.615 119.201 171.62 119.095 171.62C118.993 171.62 118.908 171.615 118.838 171.606C118.769 171.597 118.713 171.583 118.672 171.564C118.63 171.546 118.6 171.523 118.582 171.495C118.568 171.467 118.561 171.435 118.561 171.398V159.359C118.561 159.327 118.568 159.297 118.582 159.269C118.6 159.241 118.63 159.218 118.672 159.2C118.713 159.181 118.769 159.167 118.838 159.158C118.908 159.149 118.993 159.144 119.095 159.144C119.201 159.144 119.289 159.149 119.358 159.158C119.428 159.167 119.483 159.181 119.525 159.2C119.566 159.218 119.594 159.241 119.608 159.269C119.626 159.297 119.636 159.327 119.636 159.359V171.398ZM127.978 168.908C127.978 168.945 127.969 168.978 127.951 169.005C127.932 169.033 127.9 169.056 127.853 169.075C127.807 169.089 127.745 169.1 127.666 169.109C127.592 169.123 127.497 169.13 127.382 169.13C127.271 169.13 127.176 169.123 127.098 169.109C127.019 169.1 126.957 169.089 126.91 169.075C126.864 169.056 126.832 169.033 126.813 169.005C126.795 168.978 126.785 168.945 126.785 168.908V160.295C126.785 160.258 126.795 160.226 126.813 160.198C126.836 160.17 126.871 160.15 126.917 160.136C126.968 160.117 127.031 160.103 127.104 160.094C127.183 160.08 127.276 160.073 127.382 160.073C127.497 160.073 127.592 160.08 127.666 160.094C127.745 160.103 127.807 160.117 127.853 160.136C127.9 160.15 127.932 160.17 127.951 160.198C127.969 160.226 127.978 160.258 127.978 160.295V168.908ZM137.146 168.596C137.146 168.689 137.13 168.767 137.098 168.832C137.07 168.897 137.031 168.95 136.98 168.992C136.933 169.033 136.88 169.063 136.82 169.082C136.76 169.1 136.7 169.109 136.64 169.109H136.258C136.138 169.109 136.032 169.098 135.939 169.075C135.852 169.047 135.766 169.001 135.683 168.936C135.604 168.867 135.523 168.774 135.44 168.659C135.362 168.543 135.274 168.395 135.177 168.215L132.347 163.111C132.199 162.847 132.049 162.572 131.896 162.286C131.749 161.994 131.61 161.712 131.48 161.439H131.466C131.476 161.772 131.483 162.112 131.487 162.459C131.492 162.806 131.494 163.15 131.494 163.492V168.908C131.494 168.941 131.485 168.973 131.466 169.005C131.448 169.033 131.416 169.056 131.369 169.075C131.328 169.089 131.27 169.1 131.196 169.109C131.127 169.123 131.037 169.13 130.926 169.13C130.815 169.13 130.722 169.123 130.648 169.109C130.579 169.1 130.523 169.089 130.482 169.075C130.44 169.056 130.41 169.033 130.392 169.005C130.373 168.973 130.364 168.941 130.364 168.908V160.628C130.364 160.443 130.415 160.311 130.516 160.233C130.618 160.154 130.729 160.115 130.849 160.115H131.418C131.552 160.115 131.663 160.127 131.751 160.15C131.843 160.173 131.924 160.212 131.994 160.268C132.068 160.318 132.137 160.392 132.202 160.489C132.271 160.582 132.345 160.7 132.423 160.843L134.601 164.782C134.735 165.022 134.865 165.258 134.989 165.489C135.114 165.716 135.234 165.94 135.35 166.162C135.466 166.384 135.579 166.604 135.69 166.821C135.805 167.034 135.919 167.249 136.03 167.466H136.037C136.027 167.101 136.02 166.722 136.016 166.329C136.016 165.931 136.016 165.55 136.016 165.184V160.316C136.016 160.284 136.025 160.254 136.043 160.226C136.062 160.198 136.092 160.175 136.134 160.157C136.18 160.133 136.238 160.117 136.307 160.108C136.381 160.099 136.476 160.094 136.591 160.094C136.693 160.094 136.781 160.099 136.855 160.108C136.929 160.117 136.987 160.133 137.028 160.157C137.07 160.175 137.1 160.198 137.118 160.226C137.137 160.254 137.146 160.284 137.146 160.316V168.596ZM144.247 160.628C144.247 160.716 144.243 160.792 144.234 160.857C144.224 160.922 144.208 160.975 144.185 161.016C144.162 161.053 144.134 161.081 144.102 161.1C144.074 161.118 144.044 161.127 144.012 161.127H140.724V164.179H143.831C143.864 164.179 143.894 164.188 143.921 164.206C143.954 164.22 143.982 164.246 144.005 164.283C144.028 164.32 144.044 164.371 144.053 164.435C144.062 164.495 144.067 164.574 144.067 164.671C144.067 164.759 144.062 164.835 144.053 164.9C144.044 164.96 144.028 165.011 144.005 165.053C143.982 165.09 143.954 165.12 143.921 165.143C143.894 165.161 143.864 165.17 143.831 165.17H140.724V168.908C140.724 168.941 140.715 168.973 140.697 169.005C140.678 169.033 140.646 169.056 140.6 169.075C140.553 169.089 140.493 169.1 140.419 169.109C140.345 169.123 140.248 169.13 140.128 169.13C140.017 169.13 139.922 169.123 139.844 169.109C139.765 169.1 139.703 169.089 139.657 169.075C139.61 169.056 139.578 169.033 139.559 169.005C139.541 168.973 139.532 168.941 139.532 168.908V160.6C139.532 160.42 139.578 160.295 139.67 160.226C139.767 160.152 139.869 160.115 139.976 160.115H144.012C144.044 160.115 144.074 160.124 144.102 160.143C144.134 160.161 144.162 160.191 144.185 160.233C144.208 160.274 144.224 160.33 144.234 160.399C144.243 160.464 144.247 160.54 144.247 160.628ZM153.457 164.498C153.457 165.224 153.371 165.878 153.2 166.46C153.029 167.043 152.773 167.54 152.43 167.951C152.093 168.358 151.668 168.673 151.154 168.894C150.641 169.112 150.043 169.22 149.358 169.22C148.683 169.22 148.099 169.121 147.604 168.922C147.114 168.719 146.707 168.425 146.383 168.041C146.064 167.658 145.826 167.182 145.669 166.613C145.512 166.044 145.433 165.39 145.433 164.65C145.433 163.943 145.519 163.3 145.69 162.722C145.861 162.145 146.117 161.654 146.46 161.252C146.802 160.845 147.229 160.533 147.743 160.316C148.256 160.094 148.854 159.983 149.539 159.983C150.2 159.983 150.775 160.083 151.265 160.281C151.755 160.48 152.162 160.771 152.486 161.155C152.814 161.534 153.057 162.006 153.214 162.57C153.376 163.129 153.457 163.772 153.457 164.498ZM152.202 164.581C152.202 164.072 152.155 163.601 152.063 163.166C151.975 162.727 151.825 162.348 151.612 162.029C151.404 161.705 151.124 161.453 150.773 161.273C150.422 161.093 149.987 161.003 149.469 161.003C148.952 161.003 148.517 161.1 148.166 161.294C147.814 161.488 147.528 161.747 147.306 162.071C147.088 162.394 146.931 162.773 146.834 163.208C146.742 163.638 146.695 164.091 146.695 164.567C146.695 165.094 146.739 165.58 146.827 166.023C146.915 166.467 147.063 166.851 147.271 167.175C147.479 167.494 147.756 167.743 148.103 167.924C148.455 168.099 148.894 168.187 149.421 168.187C149.943 168.187 150.382 168.09 150.738 167.896C151.094 167.702 151.381 167.44 151.598 167.112C151.816 166.779 151.97 166.396 152.063 165.961C152.155 165.526 152.202 165.066 152.202 164.581ZM161.328 168.908C161.328 168.945 161.321 168.978 161.307 169.005C161.293 169.033 161.263 169.056 161.217 169.075C161.171 169.093 161.106 169.107 161.023 169.116C160.94 169.126 160.829 169.13 160.69 169.13C160.57 169.13 160.47 169.126 160.392 169.116C160.318 169.107 160.258 169.093 160.211 169.075C160.165 169.052 160.128 169.022 160.1 168.985C160.077 168.948 160.056 168.901 160.038 168.846L159.213 166.731C159.116 166.49 159.014 166.271 158.908 166.072C158.806 165.869 158.683 165.695 158.54 165.552C158.397 165.404 158.228 165.291 158.034 165.212C157.84 165.129 157.606 165.087 157.333 165.087H156.536V168.908C156.536 168.945 156.524 168.978 156.501 169.005C156.483 169.033 156.45 169.056 156.404 169.075C156.363 169.089 156.302 169.1 156.224 169.109C156.15 169.123 156.055 169.13 155.94 169.13C155.824 169.13 155.727 169.123 155.648 169.109C155.574 169.1 155.514 169.089 155.468 169.075C155.422 169.056 155.389 169.033 155.371 169.005C155.352 168.978 155.343 168.945 155.343 168.908V160.6C155.343 160.42 155.389 160.295 155.482 160.226C155.579 160.152 155.681 160.115 155.787 160.115H157.694C157.921 160.115 158.108 160.122 158.256 160.136C158.408 160.145 158.545 160.157 158.665 160.17C159.012 160.231 159.317 160.325 159.58 160.455C159.848 160.584 160.073 160.748 160.253 160.947C160.433 161.146 160.567 161.375 160.655 161.634C160.748 161.888 160.794 162.17 160.794 162.48C160.794 162.78 160.752 163.051 160.669 163.291C160.59 163.527 160.475 163.737 160.322 163.922C160.17 164.102 159.987 164.26 159.774 164.394C159.562 164.528 159.324 164.641 159.06 164.734C159.208 164.798 159.342 164.881 159.462 164.983C159.583 165.08 159.694 165.198 159.795 165.337C159.902 165.476 160.001 165.635 160.093 165.815C160.186 165.996 160.278 166.199 160.371 166.426L161.175 168.402C161.24 168.569 161.282 168.686 161.3 168.756C161.319 168.82 161.328 168.871 161.328 168.908ZM159.532 162.605C159.532 162.253 159.453 161.957 159.296 161.717C159.139 161.472 158.875 161.296 158.505 161.19C158.39 161.157 158.258 161.134 158.11 161.12C157.967 161.107 157.777 161.1 157.541 161.1H156.536V164.123H157.701C158.015 164.123 158.286 164.086 158.512 164.012C158.743 163.934 158.935 163.827 159.088 163.693C159.24 163.555 159.351 163.393 159.421 163.208C159.495 163.023 159.532 162.822 159.532 162.605ZM172.812 168.908C172.812 168.945 172.803 168.978 172.784 169.005C172.766 169.033 172.733 169.056 172.687 169.075C172.641 169.089 172.581 169.1 172.507 169.109C172.437 169.123 172.345 169.13 172.229 169.13C172.123 169.13 172.031 169.123 171.952 169.109C171.878 169.1 171.818 169.089 171.772 169.075C171.73 169.056 171.7 169.033 171.682 169.005C171.663 168.978 171.654 168.945 171.654 168.908V161.093H171.64L168.443 168.943C168.429 168.975 168.408 169.003 168.381 169.026C168.357 169.049 168.32 169.07 168.27 169.089C168.223 169.102 168.166 169.112 168.096 169.116C168.032 169.126 167.953 169.13 167.86 169.13C167.763 169.13 167.68 169.126 167.611 169.116C167.541 169.107 167.484 169.096 167.437 169.082C167.391 169.063 167.354 169.042 167.326 169.019C167.303 168.996 167.287 168.971 167.278 168.943L164.22 161.093H164.213V168.908C164.213 168.945 164.204 168.978 164.185 169.005C164.167 169.033 164.134 169.056 164.088 169.075C164.042 169.089 163.982 169.1 163.908 169.109C163.834 169.123 163.739 169.13 163.623 169.13C163.512 169.13 163.42 169.123 163.346 169.109C163.272 169.1 163.212 169.089 163.166 169.075C163.124 169.056 163.094 169.033 163.075 169.005C163.062 168.978 163.055 168.945 163.055 168.908V160.656C163.055 160.462 163.105 160.323 163.207 160.24C163.309 160.157 163.422 160.115 163.547 160.115H164.268C164.416 160.115 164.546 160.129 164.657 160.157C164.768 160.184 164.865 160.228 164.948 160.288C165.031 160.348 165.1 160.425 165.156 160.517C165.211 160.61 165.26 160.718 165.302 160.843L167.902 167.341H167.937L170.641 160.864C170.692 160.725 170.748 160.607 170.808 160.51C170.868 160.413 170.933 160.337 171.002 160.281C171.076 160.221 171.157 160.18 171.245 160.157C171.333 160.129 171.434 160.115 171.55 160.115H172.306C172.375 160.115 172.44 160.127 172.5 160.15C172.565 160.168 172.618 160.2 172.659 160.247C172.706 160.288 172.743 160.344 172.77 160.413C172.798 160.478 172.812 160.559 172.812 160.656V168.908ZM181.924 168.666C181.961 168.767 181.98 168.851 181.98 168.915C181.984 168.975 181.968 169.022 181.931 169.054C181.894 169.086 181.832 169.107 181.744 169.116C181.661 169.126 181.548 169.13 181.404 169.13C181.261 169.13 181.145 169.126 181.057 169.116C180.974 169.112 180.91 169.102 180.863 169.089C180.822 169.07 180.789 169.047 180.766 169.019C180.748 168.992 180.729 168.957 180.711 168.915L179.941 166.731H176.21L175.475 168.888C175.461 168.929 175.443 168.966 175.419 168.998C175.396 169.026 175.362 169.052 175.315 169.075C175.274 169.093 175.211 169.107 175.128 169.116C175.05 169.126 174.946 169.13 174.816 169.13C174.682 169.13 174.571 169.123 174.483 169.109C174.4 169.1 174.34 169.079 174.303 169.047C174.271 169.015 174.254 168.968 174.254 168.908C174.259 168.844 174.28 168.76 174.317 168.659L177.327 160.323C177.345 160.272 177.368 160.231 177.396 160.198C177.428 160.166 177.472 160.14 177.528 160.122C177.588 160.103 177.662 160.092 177.75 160.087C177.842 160.078 177.958 160.073 178.096 160.073C178.244 160.073 178.367 160.078 178.464 160.087C178.561 160.092 178.64 160.103 178.7 160.122C178.76 160.14 178.806 160.168 178.838 160.205C178.871 160.237 178.896 160.279 178.915 160.33L181.924 168.666ZM178.062 161.308H178.055L176.508 165.781H179.629L178.062 161.308ZM187.944 160.628C187.944 160.716 187.939 160.792 187.93 160.857C187.921 160.922 187.904 160.975 187.881 161.016C187.863 161.053 187.837 161.081 187.805 161.1C187.777 161.118 187.745 161.127 187.708 161.127H185.184V168.908C185.184 168.945 185.174 168.978 185.156 169.005C185.137 169.033 185.105 169.056 185.059 169.075C185.013 169.089 184.95 169.1 184.872 169.109C184.798 169.123 184.703 169.13 184.587 169.13C184.476 169.13 184.382 169.123 184.303 169.109C184.224 169.1 184.162 169.089 184.116 169.075C184.069 169.056 184.037 169.033 184.019 169.005C184 168.978 183.991 168.945 183.991 168.908V161.127H181.467C181.43 161.127 181.395 161.118 181.363 161.1C181.335 161.081 181.312 161.053 181.293 161.016C181.275 160.975 181.259 160.922 181.245 160.857C181.235 160.792 181.231 160.716 181.231 160.628C181.231 160.54 181.235 160.464 181.245 160.399C181.259 160.33 181.275 160.274 181.293 160.233C181.312 160.191 181.335 160.161 181.363 160.143C181.395 160.124 181.43 160.115 181.467 160.115H187.708C187.745 160.115 187.777 160.124 187.805 160.143C187.837 160.161 187.863 160.191 187.881 160.233C187.904 160.274 187.921 160.33 187.93 160.399C187.939 160.464 187.944 160.54 187.944 160.628ZM190.433 168.908C190.433 168.945 190.424 168.978 190.406 169.005C190.387 169.033 190.355 169.056 190.309 169.075C190.262 169.089 190.2 169.1 190.121 169.109C190.047 169.123 189.953 169.13 189.837 169.13C189.726 169.13 189.631 169.123 189.553 169.109C189.474 169.1 189.412 169.089 189.365 169.075C189.319 169.056 189.287 169.033 189.268 169.005C189.25 168.978 189.241 168.945 189.241 168.908V160.295C189.241 160.258 189.25 160.226 189.268 160.198C189.291 160.17 189.326 160.15 189.372 160.136C189.423 160.117 189.486 160.103 189.56 160.094C189.638 160.08 189.731 160.073 189.837 160.073C189.953 160.073 190.047 160.08 190.121 160.094C190.2 160.103 190.262 160.117 190.309 160.136C190.355 160.15 190.387 160.17 190.406 160.198C190.424 160.226 190.433 160.258 190.433 160.295V168.908ZM198.811 167.82C198.811 167.894 198.808 167.958 198.804 168.014C198.799 168.069 198.79 168.118 198.776 168.159C198.767 168.201 198.753 168.238 198.734 168.27C198.716 168.303 198.683 168.342 198.637 168.388C198.591 168.434 198.494 168.506 198.346 168.603C198.198 168.696 198.013 168.788 197.791 168.881C197.574 168.968 197.322 169.042 197.035 169.102C196.753 169.167 196.444 169.2 196.106 169.2C195.524 169.2 194.996 169.102 194.525 168.908C194.058 168.714 193.658 168.427 193.325 168.048C192.997 167.669 192.743 167.202 192.562 166.648C192.387 166.088 192.299 165.446 192.299 164.72C192.299 163.975 192.394 163.312 192.583 162.729C192.777 162.147 193.048 161.654 193.395 161.252C193.741 160.845 194.155 160.536 194.636 160.323C195.121 160.11 195.658 160.004 196.245 160.004C196.504 160.004 196.756 160.029 197.001 160.08C197.246 160.127 197.472 160.187 197.68 160.261C197.888 160.335 198.073 160.42 198.235 160.517C198.397 160.614 198.508 160.695 198.568 160.76C198.633 160.82 198.674 160.866 198.693 160.899C198.711 160.931 198.725 160.97 198.734 161.016C198.748 161.058 198.757 161.109 198.762 161.169C198.771 161.229 198.776 161.301 198.776 161.384C198.776 161.476 198.771 161.555 198.762 161.62C198.753 161.685 198.739 161.74 198.72 161.786C198.702 161.828 198.679 161.86 198.651 161.883C198.628 161.902 198.598 161.911 198.561 161.911C198.496 161.911 198.406 161.867 198.291 161.779C198.175 161.687 198.025 161.587 197.84 161.481C197.659 161.37 197.438 161.271 197.174 161.183C196.915 161.09 196.603 161.044 196.238 161.044C195.84 161.044 195.477 161.125 195.149 161.287C194.825 161.444 194.548 161.678 194.317 161.987C194.086 162.297 193.905 162.676 193.776 163.125C193.651 163.568 193.589 164.077 193.589 164.65C193.589 165.219 193.649 165.723 193.769 166.162C193.894 166.597 194.07 166.962 194.296 167.258C194.527 167.549 194.809 167.771 195.142 167.924C195.475 168.072 195.852 168.145 196.272 168.145C196.628 168.145 196.938 168.102 197.202 168.014C197.47 167.926 197.696 167.829 197.881 167.722C198.071 167.611 198.226 167.512 198.346 167.424C198.466 167.336 198.561 167.292 198.63 167.292C198.663 167.292 198.69 167.299 198.714 167.313C198.737 167.327 198.755 167.355 198.769 167.397C198.783 167.434 198.792 167.487 198.797 167.556C198.806 167.625 198.811 167.713 198.811 167.82ZM207.112 168.666C207.149 168.767 207.167 168.851 207.167 168.915C207.172 168.975 207.156 169.022 207.119 169.054C207.082 169.086 207.019 169.107 206.931 169.116C206.848 169.126 206.735 169.13 206.592 169.13C206.448 169.13 206.333 169.126 206.245 169.116C206.162 169.112 206.097 169.102 206.051 169.089C206.009 169.07 205.977 169.047 205.953 169.019C205.935 168.992 205.917 168.957 205.898 168.915L205.128 166.731H201.397L200.662 168.888C200.648 168.929 200.63 168.966 200.607 168.998C200.584 169.026 200.549 169.052 200.503 169.075C200.461 169.093 200.399 169.107 200.315 169.116C200.237 169.126 200.133 169.13 200.003 169.13C199.869 169.13 199.758 169.123 199.671 169.109C199.587 169.1 199.527 169.079 199.49 169.047C199.458 169.015 199.442 168.968 199.442 168.908C199.446 168.844 199.467 168.76 199.504 168.659L202.514 160.323C202.532 160.272 202.555 160.231 202.583 160.198C202.616 160.166 202.659 160.14 202.715 160.122C202.775 160.103 202.849 160.092 202.937 160.087C203.029 160.078 203.145 160.073 203.284 160.073C203.432 160.073 203.554 160.078 203.651 160.087C203.748 160.092 203.827 160.103 203.887 160.122C203.947 160.14 203.993 160.168 204.026 160.205C204.058 160.237 204.083 160.279 204.102 160.33L207.112 168.666ZM203.249 161.308H203.242L201.696 165.781H204.816L203.249 161.308ZM214.449 171.398C214.449 171.435 214.439 171.467 214.421 171.495C214.407 171.523 214.379 171.546 214.338 171.564C214.296 171.583 214.241 171.597 214.171 171.606C214.102 171.615 214.014 171.62 213.908 171.62C213.806 171.62 213.721 171.615 213.651 171.606C213.582 171.597 213.526 171.583 213.485 171.564C213.443 171.546 213.413 171.523 213.395 171.495C213.381 171.467 213.374 171.435 213.374 171.398V159.359C213.374 159.327 213.381 159.297 213.395 159.269C213.413 159.241 213.443 159.218 213.485 159.2C213.526 159.181 213.582 159.167 213.651 159.158C213.721 159.149 213.806 159.144 213.908 159.144C214.014 159.144 214.102 159.149 214.171 159.158C214.241 159.167 214.296 159.181 214.338 159.2C214.379 159.218 214.407 159.241 214.421 159.269C214.439 159.297 214.449 159.327 214.449 159.359V171.398ZM226.592 168.596C226.592 168.679 226.587 168.753 226.578 168.818C226.568 168.878 226.552 168.929 226.529 168.971C226.506 169.012 226.478 169.042 226.446 169.061C226.418 169.079 226.386 169.089 226.349 169.089H222.042C221.936 169.089 221.834 169.054 221.737 168.985C221.645 168.911 221.598 168.783 221.598 168.603V160.6C221.598 160.42 221.645 160.295 221.737 160.226C221.834 160.152 221.936 160.115 222.042 160.115H226.3C226.337 160.115 226.37 160.124 226.397 160.143C226.43 160.161 226.455 160.191 226.474 160.233C226.492 160.274 226.506 160.328 226.515 160.392C226.529 160.452 226.536 160.529 226.536 160.621C226.536 160.704 226.529 160.778 226.515 160.843C226.506 160.903 226.492 160.954 226.474 160.996C226.455 161.033 226.43 161.06 226.397 161.079C226.37 161.097 226.337 161.107 226.3 161.107H222.791V163.922H225.801C225.838 163.922 225.87 163.934 225.898 163.957C225.93 163.975 225.956 164.003 225.974 164.04C225.997 164.077 226.014 164.128 226.023 164.193C226.032 164.257 226.037 164.334 226.037 164.421C226.037 164.505 226.032 164.576 226.023 164.636C226.014 164.697 225.997 164.745 225.974 164.782C225.956 164.819 225.93 164.847 225.898 164.865C225.87 164.879 225.838 164.886 225.801 164.886H222.791V168.097H226.349C226.386 168.097 226.418 168.106 226.446 168.125C226.478 168.143 226.506 168.173 226.529 168.215C226.552 168.252 226.568 168.303 226.578 168.367C226.587 168.427 226.592 168.504 226.592 168.596ZM233.187 168.569C233.187 168.661 233.182 168.74 233.173 168.804C233.163 168.864 233.147 168.918 233.124 168.964C233.106 169.005 233.08 169.038 233.048 169.061C233.02 169.079 232.985 169.089 232.944 169.089H228.977C228.871 169.089 228.769 169.054 228.672 168.985C228.58 168.911 228.533 168.783 228.533 168.603V160.295C228.533 160.258 228.543 160.226 228.561 160.198C228.58 160.17 228.612 160.15 228.658 160.136C228.704 160.117 228.767 160.103 228.845 160.094C228.924 160.08 229.019 160.073 229.13 160.073C229.245 160.073 229.34 160.08 229.414 160.094C229.493 160.103 229.555 160.117 229.601 160.136C229.648 160.15 229.68 160.17 229.698 160.198C229.717 160.226 229.726 160.258 229.726 160.295V168.055H232.944C232.985 168.055 233.02 168.067 233.048 168.09C233.08 168.108 233.106 168.139 233.124 168.18C233.147 168.217 233.163 168.268 233.173 168.333C233.182 168.397 233.187 168.476 233.187 168.569ZM239.504 168.596C239.504 168.679 239.5 168.753 239.49 168.818C239.481 168.878 239.465 168.929 239.442 168.971C239.419 169.012 239.391 169.042 239.359 169.061C239.331 169.079 239.298 169.089 239.261 169.089H234.955C234.849 169.089 234.747 169.054 234.65 168.985C234.557 168.911 234.511 168.783 234.511 168.603V160.6C234.511 160.42 234.557 160.295 234.65 160.226C234.747 160.152 234.849 160.115 234.955 160.115H239.213C239.25 160.115 239.282 160.124 239.31 160.143C239.342 160.161 239.368 160.191 239.386 160.233C239.405 160.274 239.419 160.328 239.428 160.392C239.442 160.452 239.449 160.529 239.449 160.621C239.449 160.704 239.442 160.778 239.428 160.843C239.419 160.903 239.405 160.954 239.386 160.996C239.368 161.033 239.342 161.06 239.31 161.079C239.282 161.097 239.25 161.107 239.213 161.107H235.704V163.922H238.714C238.751 163.922 238.783 163.934 238.811 163.957C238.843 163.975 238.869 164.003 238.887 164.04C238.91 164.077 238.926 164.128 238.936 164.193C238.945 164.257 238.949 164.334 238.949 164.421C238.949 164.505 238.945 164.576 238.936 164.636C238.926 164.697 238.91 164.745 238.887 164.782C238.869 164.819 238.843 164.847 238.811 164.865C238.783 164.879 238.751 164.886 238.714 164.886H235.704V168.097H239.261C239.298 168.097 239.331 168.106 239.359 168.125C239.391 168.143 239.419 168.173 239.442 168.215C239.465 168.252 239.481 168.303 239.49 168.367C239.5 168.427 239.504 168.504 239.504 168.596ZM247.271 167.82C247.271 167.894 247.269 167.958 247.264 168.014C247.26 168.069 247.25 168.118 247.237 168.159C247.227 168.201 247.213 168.238 247.195 168.27C247.176 168.303 247.144 168.342 247.098 168.388C247.052 168.434 246.955 168.506 246.807 168.603C246.659 168.696 246.474 168.788 246.252 168.881C246.035 168.968 245.783 169.042 245.496 169.102C245.214 169.167 244.904 169.2 244.567 169.2C243.984 169.2 243.457 169.102 242.985 168.908C242.519 168.714 242.119 168.427 241.786 168.048C241.458 167.669 241.203 167.202 241.023 166.648C240.847 166.088 240.759 165.446 240.759 164.72C240.759 163.975 240.854 163.312 241.044 162.729C241.238 162.147 241.508 161.654 241.855 161.252C242.202 160.845 242.616 160.536 243.096 160.323C243.582 160.11 244.118 160.004 244.705 160.004C244.964 160.004 245.216 160.029 245.461 160.08C245.706 160.127 245.933 160.187 246.141 160.261C246.349 160.335 246.534 160.42 246.696 160.517C246.857 160.614 246.968 160.695 247.028 160.76C247.093 160.82 247.135 160.866 247.153 160.899C247.172 160.931 247.186 160.97 247.195 161.016C247.209 161.058 247.218 161.109 247.223 161.169C247.232 161.229 247.237 161.301 247.237 161.384C247.237 161.476 247.232 161.555 247.223 161.62C247.213 161.685 247.2 161.74 247.181 161.786C247.163 161.828 247.139 161.86 247.112 161.883C247.089 161.902 247.059 161.911 247.022 161.911C246.957 161.911 246.867 161.867 246.751 161.779C246.636 161.687 246.485 161.587 246.3 161.481C246.12 161.37 245.898 161.271 245.635 161.183C245.376 161.09 245.064 161.044 244.698 161.044C244.301 161.044 243.938 161.125 243.61 161.287C243.286 161.444 243.009 161.678 242.777 161.987C242.546 162.297 242.366 162.676 242.237 163.125C242.112 163.568 242.049 164.077 242.049 164.65C242.049 165.219 242.109 165.723 242.23 166.162C242.354 166.597 242.53 166.962 242.757 167.258C242.988 167.549 243.27 167.771 243.603 167.924C243.936 168.072 244.312 168.145 244.733 168.145C245.089 168.145 245.399 168.102 245.662 168.014C245.93 167.926 246.157 167.829 246.342 167.722C246.531 167.611 246.686 167.512 246.807 167.424C246.927 167.336 247.022 167.292 247.091 167.292C247.123 167.292 247.151 167.299 247.174 167.313C247.197 167.327 247.216 167.355 247.23 167.397C247.243 167.434 247.253 167.487 247.257 167.556C247.267 167.625 247.271 167.713 247.271 167.82ZM254.546 160.628C254.546 160.716 254.541 160.792 254.532 160.857C254.523 160.922 254.507 160.975 254.483 161.016C254.465 161.053 254.44 161.081 254.407 161.1C254.379 161.118 254.347 161.127 254.31 161.127H251.786V168.908C251.786 168.945 251.777 168.978 251.758 169.005C251.74 169.033 251.707 169.056 251.661 169.075C251.615 169.089 251.552 169.1 251.474 169.109C251.4 169.123 251.305 169.13 251.189 169.13C251.078 169.13 250.984 169.123 250.905 169.109C250.826 169.1 250.764 169.089 250.718 169.075C250.672 169.056 250.639 169.033 250.621 169.005C250.602 168.978 250.593 168.945 250.593 168.908V161.127H248.069C248.032 161.127 247.997 161.118 247.965 161.1C247.937 161.081 247.914 161.053 247.895 161.016C247.877 160.975 247.861 160.922 247.847 160.857C247.838 160.792 247.833 160.716 247.833 160.628C247.833 160.54 247.838 160.464 247.847 160.399C247.861 160.33 247.877 160.274 247.895 160.233C247.914 160.191 247.937 160.161 247.965 160.143C247.997 160.124 248.032 160.115 248.069 160.115H254.31C254.347 160.115 254.379 160.124 254.407 160.143C254.44 160.161 254.465 160.191 254.483 160.233C254.507 160.274 254.523 160.33 254.532 160.399C254.541 160.464 254.546 160.54 254.546 160.628ZM261.827 168.908C261.827 168.945 261.82 168.978 261.807 169.005C261.793 169.033 261.763 169.056 261.716 169.075C261.67 169.093 261.606 169.107 261.522 169.116C261.439 169.126 261.328 169.13 261.189 169.13C261.069 169.13 260.97 169.126 260.891 169.116C260.817 169.107 260.757 169.093 260.711 169.075C260.665 169.052 260.628 169.022 260.6 168.985C260.577 168.948 260.556 168.901 260.538 168.846L259.712 166.731C259.615 166.49 259.513 166.271 259.407 166.072C259.305 165.869 259.183 165.695 259.04 165.552C258.896 165.404 258.728 165.291 258.533 165.212C258.339 165.129 258.106 165.087 257.833 165.087H257.035V168.908C257.035 168.945 257.024 168.978 257.001 169.005C256.982 169.033 256.95 169.056 256.904 169.075C256.862 169.089 256.802 169.1 256.723 169.109C256.649 169.123 256.555 169.13 256.439 169.13C256.323 169.13 256.226 169.123 256.148 169.109C256.074 169.1 256.014 169.089 255.967 169.075C255.921 169.056 255.889 169.033 255.87 169.005C255.852 168.978 255.843 168.945 255.843 168.908V160.6C255.843 160.42 255.889 160.295 255.981 160.226C256.078 160.152 256.18 160.115 256.286 160.115H258.194C258.42 160.115 258.607 160.122 258.755 160.136C258.908 160.145 259.044 160.157 259.164 160.17C259.511 160.231 259.816 160.325 260.08 160.455C260.348 160.584 260.572 160.748 260.753 160.947C260.933 161.146 261.067 161.375 261.155 161.634C261.247 161.888 261.293 162.17 261.293 162.48C261.293 162.78 261.252 163.051 261.169 163.291C261.09 163.527 260.974 163.737 260.822 163.922C260.669 164.102 260.487 164.26 260.274 164.394C260.061 164.528 259.823 164.641 259.56 164.734C259.708 164.798 259.842 164.881 259.962 164.983C260.082 165.08 260.193 165.198 260.295 165.337C260.401 165.476 260.501 165.635 260.593 165.815C260.685 165.996 260.778 166.199 260.87 166.426L261.675 168.402C261.74 168.569 261.781 168.686 261.8 168.756C261.818 168.82 261.827 168.871 261.827 168.908ZM260.031 162.605C260.031 162.253 259.953 161.957 259.796 161.717C259.638 161.472 259.375 161.296 259.005 161.19C258.889 161.157 258.758 161.134 258.61 161.12C258.466 161.107 258.277 161.1 258.041 161.1H257.035V164.123H258.201C258.515 164.123 258.785 164.086 259.012 164.012C259.243 163.934 259.435 163.827 259.587 163.693C259.74 163.555 259.851 163.393 259.92 163.208C259.994 163.023 260.031 162.822 260.031 162.605ZM264.747 168.908C264.747 168.945 264.738 168.978 264.719 169.005C264.701 169.033 264.668 169.056 264.622 169.075C264.576 169.089 264.514 169.1 264.435 169.109C264.361 169.123 264.266 169.13 264.151 169.13C264.04 169.13 263.945 169.123 263.866 169.109C263.788 169.1 263.725 169.089 263.679 169.075C263.633 169.056 263.6 169.033 263.582 169.005C263.563 168.978 263.554 168.945 263.554 168.908V160.295C263.554 160.258 263.563 160.226 263.582 160.198C263.605 160.17 263.64 160.15 263.686 160.136C263.737 160.117 263.799 160.103 263.873 160.094C263.952 160.08 264.044 160.073 264.151 160.073C264.266 160.073 264.361 160.08 264.435 160.094C264.514 160.103 264.576 160.117 264.622 160.136C264.668 160.15 264.701 160.17 264.719 160.198C264.738 160.226 264.747 160.258 264.747 160.295V168.908ZM273.124 167.82C273.124 167.894 273.122 167.958 273.117 168.014C273.113 168.069 273.103 168.118 273.09 168.159C273.08 168.201 273.066 168.238 273.048 168.27C273.029 168.303 272.997 168.342 272.951 168.388C272.905 168.434 272.808 168.506 272.66 168.603C272.512 168.696 272.327 168.788 272.105 168.881C271.888 168.968 271.636 169.042 271.349 169.102C271.067 169.167 270.757 169.2 270.42 169.2C269.837 169.2 269.31 169.102 268.839 168.908C268.372 168.714 267.972 168.427 267.639 168.048C267.311 167.669 267.056 167.202 266.876 166.648C266.7 166.088 266.612 165.446 266.612 164.72C266.612 163.975 266.707 163.312 266.897 162.729C267.091 162.147 267.361 161.654 267.708 161.252C268.055 160.845 268.469 160.536 268.95 160.323C269.435 160.11 269.971 160.004 270.558 160.004C270.817 160.004 271.069 160.029 271.314 160.08C271.559 160.127 271.786 160.187 271.994 160.261C272.202 160.335 272.387 160.42 272.549 160.517C272.71 160.614 272.821 160.695 272.882 160.76C272.946 160.82 272.988 160.866 273.006 160.899C273.025 160.931 273.039 160.97 273.048 161.016C273.062 161.058 273.071 161.109 273.076 161.169C273.085 161.229 273.09 161.301 273.09 161.384C273.09 161.476 273.085 161.555 273.076 161.62C273.066 161.685 273.053 161.74 273.034 161.786C273.016 161.828 272.993 161.86 272.965 161.883C272.942 161.902 272.912 161.911 272.875 161.911C272.81 161.911 272.72 161.867 272.604 161.779C272.489 161.687 272.338 161.587 272.153 161.481C271.973 161.37 271.751 161.271 271.488 161.183C271.229 161.09 270.917 161.044 270.551 161.044C270.154 161.044 269.791 161.125 269.463 161.287C269.139 161.444 268.862 161.678 268.631 161.987C268.399 162.297 268.219 162.676 268.09 163.125C267.965 163.568 267.902 164.077 267.902 164.65C267.902 165.219 267.962 165.723 268.083 166.162C268.207 166.597 268.383 166.962 268.61 167.258C268.841 167.549 269.123 167.771 269.456 167.924C269.789 168.072 270.165 168.145 270.586 168.145C270.942 168.145 271.252 168.102 271.515 168.014C271.784 167.926 272.01 167.829 272.195 167.722C272.385 167.611 272.539 167.512 272.66 167.424C272.78 167.336 272.875 167.292 272.944 167.292C272.976 167.292 273.004 167.299 273.027 167.313C273.05 167.327 273.069 167.355 273.083 167.397C273.097 167.434 273.106 167.487 273.11 167.556C273.12 167.625 273.124 167.713 273.124 167.82ZM275.898 168.908C275.898 168.945 275.889 168.978 275.87 169.005C275.852 169.033 275.82 169.056 275.773 169.075C275.727 169.089 275.665 169.1 275.586 169.109C275.512 169.123 275.417 169.13 275.302 169.13C275.191 169.13 275.096 169.123 275.017 169.109C274.939 169.1 274.876 169.089 274.83 169.075C274.784 169.056 274.752 169.033 274.733 169.005C274.715 168.978 274.705 168.945 274.705 168.908V160.295C274.705 160.258 274.715 160.226 274.733 160.198C274.756 160.17 274.791 160.15 274.837 160.136C274.888 160.117 274.95 160.103 275.024 160.094C275.103 160.08 275.195 160.073 275.302 160.073C275.417 160.073 275.512 160.08 275.586 160.094C275.665 160.103 275.727 160.117 275.773 160.136C275.82 160.15 275.852 160.17 275.87 160.198C275.889 160.226 275.898 160.258 275.898 160.295V168.908ZM285.184 164.47C285.184 165.247 285.085 165.926 284.886 166.509C284.687 167.087 284.396 167.568 284.012 167.951C283.633 168.33 283.166 168.615 282.611 168.804C282.056 168.994 281.395 169.089 280.628 169.089H278.728C278.621 169.089 278.52 169.054 278.422 168.985C278.33 168.911 278.284 168.783 278.284 168.603V160.6C278.284 160.42 278.33 160.295 278.422 160.226C278.52 160.152 278.621 160.115 278.728 160.115H280.759C281.536 160.115 282.193 160.217 282.729 160.42C283.265 160.619 283.714 160.908 284.074 161.287C284.44 161.661 284.715 162.117 284.9 162.653C285.089 163.189 285.184 163.795 285.184 164.47ZM283.929 164.519C283.929 164.033 283.869 163.582 283.748 163.166C283.628 162.746 283.439 162.383 283.18 162.078C282.925 161.772 282.602 161.534 282.209 161.363C281.816 161.192 281.31 161.107 280.69 161.107H279.477V168.09H280.704C281.277 168.09 281.76 168.018 282.153 167.875C282.546 167.732 282.875 167.512 283.138 167.216C283.402 166.92 283.598 166.55 283.728 166.107C283.862 165.658 283.929 165.129 283.929 164.519ZM293.533 168.666C293.57 168.767 293.589 168.851 293.589 168.915C293.594 168.975 293.577 169.022 293.54 169.054C293.503 169.086 293.441 169.107 293.353 169.116C293.27 169.126 293.157 169.13 293.013 169.13C292.87 169.13 292.754 169.126 292.667 169.116C292.583 169.112 292.519 169.102 292.472 169.089C292.431 169.07 292.398 169.047 292.375 169.019C292.357 168.992 292.338 168.957 292.32 168.915L291.55 166.731H287.819L287.084 168.888C287.07 168.929 287.052 168.966 287.029 168.998C287.005 169.026 286.971 169.052 286.925 169.075C286.883 169.093 286.821 169.107 286.737 169.116C286.659 169.126 286.555 169.13 286.425 169.13C286.291 169.13 286.18 169.123 286.092 169.109C286.009 169.1 285.949 169.079 285.912 169.047C285.88 169.015 285.864 168.968 285.864 168.908C285.868 168.844 285.889 168.76 285.926 168.659L288.936 160.323C288.954 160.272 288.977 160.231 289.005 160.198C289.037 160.166 289.081 160.14 289.137 160.122C289.197 160.103 289.271 160.092 289.359 160.087C289.451 160.078 289.567 160.073 289.705 160.073C289.853 160.073 289.976 160.078 290.073 160.087C290.17 160.092 290.249 160.103 290.309 160.122C290.369 160.14 290.415 160.168 290.447 160.205C290.48 160.237 290.505 160.279 290.524 160.33L293.533 168.666ZM289.671 161.308H289.664L288.117 165.781H291.238L289.671 161.308ZM301.938 164.47C301.938 165.247 301.839 165.926 301.64 166.509C301.441 167.087 301.15 167.568 300.766 167.951C300.387 168.33 299.92 168.615 299.366 168.804C298.811 168.994 298.15 169.089 297.382 169.089H295.482C295.376 169.089 295.274 169.054 295.177 168.985C295.085 168.911 295.038 168.783 295.038 168.603V160.6C295.038 160.42 295.085 160.295 295.177 160.226C295.274 160.152 295.376 160.115 295.482 160.115H297.514C298.291 160.115 298.947 160.217 299.484 160.42C300.02 160.619 300.468 160.908 300.829 161.287C301.194 161.661 301.469 162.117 301.654 162.653C301.844 163.189 301.938 163.795 301.938 164.47ZM300.683 164.519C300.683 164.033 300.623 163.582 300.503 163.166C300.383 162.746 300.193 162.383 299.934 162.078C299.68 161.772 299.356 161.534 298.963 161.363C298.57 161.192 298.064 161.107 297.445 161.107H296.231V168.09H297.459C298.032 168.09 298.515 168.018 298.908 167.875C299.301 167.732 299.629 167.512 299.893 167.216C300.156 166.92 300.353 166.55 300.482 166.107C300.616 165.658 300.683 165.129 300.683 164.519Z" fill="#454545"/>
<path d="M41.1014 43.6835C34.5596 24.2304 17.7174 16.6414 10.114 15.2785C17.6887 9.25317 28.4769 9.61181 32.9241 10.5443C39.5233 11.4768 54.4001 18.0329 61.114 36.7975C67.8279 55.562 89.8777 62.1181 100.063 63.0506C87.6684 72.519 74.5275 72.3038 69.5064 71.0127C62.7638 70.0084 47.6431 63.1367 41.1014 43.6835Z" fill="url(#paint0_linear_9_36)"/>
<path d="M68.8608 37.2278C64.9325 26.6835 57.0971 17.7173 51.6456 12.9114C70.7975 13.9873 70.152 22.5949 86.5064 38.3038C99.5899 50.8709 115.772 48.1308 122.228 45.1899C117.924 53.7975 107.523 55.3755 102.861 55.0886C80.6532 54.2279 72.7891 47.7722 68.8608 37.2278Z" fill="url(#paint1_linear_9_36)"/>
<circle cx="110.392" cy="21.3038" r="21.3038" fill="url(#paint2_radial_9_36)"/>
</svg>
