<svg width="78" height="78" viewBox="0 0 78 78" fill="none" xmlns="http://www.w3.org/2000/svg">
<path fill-rule="evenodd" clip-rule="evenodd" d="M15 0C6.71573 0 0 6.71573 0 15V63C0 71.2843 6.71573 78 15 78H63C71.2843 78 78 71.2843 78 63V15C78 6.71573 71.2843 0 63 0H15ZM11.1601 19.1601C9.77701 20.5432 9 22.419 9 24.375V28.0625C9 30.0185 9.77701 31.8943 11.1601 33.2774C12.5432 34.6605 14.419 35.4375 16.375 35.4375H36.6562V46.5C35.1893 46.5 33.7824 47.0828 32.7451 48.1201C31.7078 49.1574 31.125 50.5643 31.125 52.0312H10.8438C10.3548 52.0312 9.88579 52.2255 9.54002 52.5713C9.19425 52.917 9 53.386 9 53.875C9 54.364 9.19425 54.833 9.54002 55.1787C9.88579 55.5245 10.3548 55.7188 10.8438 55.7188H31.125C31.125 57.1857 31.7078 58.5926 32.7451 59.6299C33.7824 60.6672 35.1893 61.25 36.6562 61.25H40.3438C41.8107 61.25 43.2176 60.6672 44.2549 59.6299C45.2922 58.5926 45.875 57.1857 45.875 55.7188H66.1562C66.6452 55.7188 67.1142 55.5245 67.46 55.1787C67.8057 54.833 68 54.364 68 53.875C68 53.386 67.8057 52.917 67.46 52.5713C67.1142 52.2255 66.6452 52.0312 66.1562 52.0312H45.875C45.875 50.5643 45.2922 49.1574 44.2549 48.1201C43.2176 47.0828 41.8107 46.5 40.3438 46.5V35.4375H60.625C62.581 35.4375 64.4568 34.6605 65.8399 33.2774C67.223 31.8943 68 30.0185 68 28.0625V24.375C68 22.419 67.223 20.5432 65.8399 19.1601C64.4568 17.777 62.581 17 60.625 17H16.375C14.419 17 12.5432 17.777 11.1601 19.1601ZM12.6875 28.0625V24.375C12.6875 23.397 13.076 22.4591 13.7675 21.7675C14.4591 21.076 15.397 20.6875 16.375 20.6875H60.625C61.603 20.6875 62.5409 21.076 63.2325 21.7675C63.924 22.4591 64.3125 23.397 64.3125 24.375V28.0625C64.3125 29.0405 63.924 29.9784 63.2325 30.67C62.5409 31.3615 61.603 31.75 60.625 31.75H16.375C15.397 31.75 14.4591 31.3615 13.7675 30.67C13.076 29.9784 12.6875 29.0405 12.6875 28.0625ZM35.3525 57.0225C35.0068 56.6767 34.8125 56.2077 34.8125 55.7188V52.0312C34.8125 51.5423 35.0068 51.0733 35.3525 50.7275C35.6983 50.3818 36.1673 50.1875 36.6562 50.1875H40.3438C40.8327 50.1875 41.3017 50.3818 41.6475 50.7275C41.9932 51.0733 42.1875 51.5423 42.1875 52.0312V55.7188C42.1875 56.2077 41.9932 56.6767 41.6475 57.0225C41.3017 57.3682 40.8327 57.5625 40.3438 57.5625H36.6562C36.1673 57.5625 35.6983 57.3682 35.3525 57.0225ZM26.8975 27.5225C26.5517 27.8682 26.0827 28.0625 25.5938 28.0625C25.1048 28.0625 24.6358 27.8682 24.29 27.5225C23.9443 27.1767 23.75 26.7077 23.75 26.2188C23.75 25.7298 23.9443 25.2608 24.29 24.915C24.6358 24.5693 25.1048 24.375 25.5938 24.375C26.0827 24.375 26.5517 24.5693 26.8975 24.915C27.2432 25.2608 27.4375 25.7298 27.4375 26.2188C27.4375 26.7077 27.2432 27.1767 26.8975 27.5225ZM19.5225 27.5225C19.8682 27.1767 20.0625 26.7077 20.0625 26.2188C20.0625 25.7298 19.8682 25.2608 19.5225 24.915C19.1767 24.5693 18.7077 24.375 18.2188 24.375C17.7298 24.375 17.2608 24.5693 16.915 24.915C16.5693 25.2608 16.375 25.7298 16.375 26.2188C16.375 26.7077 16.5693 27.1767 16.915 27.5225C17.2608 27.8682 17.7298 28.0625 18.2188 28.0625C18.7077 28.0625 19.1767 27.8682 19.5225 27.5225Z" fill="#249ADA"/>
</svg>
