<svg width="159" height="143" viewBox="0 0 159 143" fill="none" xmlns="http://www.w3.org/2000/svg">
<path fill-rule="evenodd" clip-rule="evenodd" d="M71.5 143C110.988 143 143 110.988 143 71.5C143 32.0117 110.988 0 71.5 0C32.0116 0 0 32.0117 0 71.5C0 110.988 32.0116 143 71.5 143ZM72 121C99.062 121 121 99.062 121 72C121 44.938 99.062 23 72 23C44.938 23 23 44.938 23 72C23 99.062 44.938 121 72 121Z" fill="white"/>
<path fill-rule="evenodd" clip-rule="evenodd" d="M71.5 101C87.7924 101 101 87.7925 101 71.5C101 55.2075 87.7924 42 71.5 42C55.2076 42 42 55.2075 42 71.5C42 87.7925 55.2076 101 71.5 101ZM71.5 83C77.8513 83 83 77.8513 83 71.5C83 65.1487 77.8513 60 71.5 60C65.1487 60 60 65.1487 60 71.5C60 77.8513 65.1487 83 71.5 83Z" fill="white"/>
<path d="M111.199 33.4504L111.446 49.5083L141.759 34.0369L140.966 17.0001L111.199 33.4504Z" fill="#2266A4" stroke="#2266A4" stroke-linejoin="round"/>
<path d="M113.144 47.9623L141.5 34L158 46.4286L129 63L115.237 52.3088C115.043 52.5048 114.813 52.6725 114.552 52.8017L72.5309 73.5926C71.2639 74.2194 69.7288 73.7005 69.1019 72.4336C68.4751 71.1667 68.994 69.6315 70.2609 69.0047L112.282 48.2138C112.561 48.076 112.852 47.9936 113.144 47.9623Z" fill="#249ADA" stroke="#249ADA" stroke-linejoin="round"/>
</svg>
