<svg width="100" height="100" viewBox="0 0 100 100" fill="none" xmlns="http://www.w3.org/2000/svg">
<path d="M80 0C91.0457 0 100 8.95431 100 20V80C100 91.0457 91.0457 100 80 100H20C8.95431 100 1.61075e-07 91.0457 0 80V20C0 8.95431 8.95431 1.61064e-07 20 0H80ZM29.0947 13.3662C28.1643 13.2639 27.2226 13.4044 26.3633 13.7754C19.227 16.8343 13.0499 24.6675 13.3438 32.7314C13.5422 38.0232 15.61 53.0049 31.3037 68.6992C47.0014 84.39 61.9902 86.4616 67.2793 86.6562C75.3706 86.9537 83.1503 80.8473 86.2246 73.6758C86.6081 72.788 86.7452 71.8128 86.623 70.8535C86.5009 69.8945 86.1237 68.9859 85.5303 68.2227C81.1155 62.5713 75.0847 58.5864 69.917 55.0098C68.7445 54.1986 67.3031 53.8724 65.8955 54.0996C64.4879 54.3269 63.2228 55.0906 62.3652 56.2295L57.7002 63.3271C57.4568 63.7098 57.0765 63.985 56.6367 64.0957C56.1968 64.2063 55.7305 64.1439 55.335 63.9219C52.18 62.1152 47.5779 59.0382 44.2725 55.7334C40.967 52.4286 38.0805 48.0366 36.457 45.0879C36.2552 44.7116 36.1961 44.2744 36.292 43.8584C36.388 43.4425 36.6324 43.076 36.9785 42.8262L44.1445 37.5049C45.1692 36.6168 45.8314 35.3827 46.0049 34.0381C46.1783 32.6932 45.8501 31.3309 45.084 30.2119C41.6021 25.1187 37.5474 18.641 31.6709 14.3594C30.9129 13.8105 30.025 13.4686 29.0947 13.3662Z" fill="#249ADA"/>
</svg>
