<svg width="78" height="78" viewBox="0 0 78 78" fill="none" xmlns="http://www.w3.org/2000/svg">
<path fill-rule="evenodd" clip-rule="evenodd" d="M15 0C6.71573 0 0 6.71573 0 15V63C0 71.2843 6.71573 78 15 78H63C71.2843 78 78 71.2843 78 63V15C78 6.71573 71.2843 0 63 0H15ZM61 60.1667V26.125L44.875 10H25.1667C23.2659 10 21.4431 10.7551 20.0991 12.0991C18.7551 13.4431 18 15.2659 18 17.1667V60.1667C18 62.0674 18.7551 63.8903 20.0991 65.2343C21.4431 66.5783 23.2659 67.3333 25.1667 67.3333H53.8333C55.7341 67.3333 57.5569 66.5783 58.9009 65.2343C60.2449 63.8903 61 62.0674 61 60.1667ZM46.4493 24.5507C47.4573 25.5587 48.8245 26.125 50.25 26.125H57.4167V60.1667C57.4167 61.117 57.0391 62.0285 56.3671 62.7005C55.6951 63.3725 54.7837 63.75 53.8333 63.75H25.1667C24.2163 63.75 23.3049 63.3725 22.6329 62.7005C21.9609 62.0285 21.5833 61.117 21.5833 60.1667V17.1667C21.5833 16.2163 21.9609 15.3049 22.6329 14.6329C23.3049 13.9609 24.2163 13.5833 25.1667 13.5833H44.875V20.75C44.875 22.1755 45.4413 23.5427 46.4493 24.5507ZM42.3966 33.4253C42.179 33.5156 41.9813 33.648 41.8148 33.8148C41.648 33.9813 41.5156 34.179 41.4253 34.3966C41.335 34.6143 41.2885 34.8477 41.2885 35.0833C41.2885 35.319 41.335 35.5523 41.4253 35.77C41.5156 35.9877 41.648 36.1854 41.8148 36.3518L47.7166 42.25L41.8148 48.1482C41.4784 48.4846 41.2894 48.9409 41.2894 49.4167C41.2894 49.8924 41.4784 50.3487 41.8148 50.6852C42.1513 51.0216 42.6076 51.2106 43.0833 51.2106C43.5591 51.2106 44.0154 51.0216 44.3518 50.6852L51.5185 43.5185C51.6854 43.3521 51.8177 43.1544 51.9081 42.9367C51.9984 42.719 52.0449 42.4857 52.0449 42.25C52.0449 42.0143 51.9984 41.781 51.9081 41.5633C51.8177 41.3456 51.6854 41.1479 51.5185 40.9815L44.3518 33.8148C44.1854 33.648 43.9877 33.5156 43.77 33.4253C43.5523 33.335 43.319 33.2885 43.0833 33.2885C42.8477 33.2885 42.6143 33.335 42.3966 33.4253ZM36.6034 33.4253C36.821 33.5156 37.0187 33.648 37.1852 33.8148C37.352 33.9813 37.4844 34.179 37.5747 34.3966C37.665 34.6143 37.7115 34.8477 37.7115 35.0833C37.7115 35.319 37.665 35.5523 37.5747 35.77C37.4844 35.9877 37.352 36.1854 37.1852 36.3518L31.2834 42.25L37.1852 48.1482C37.5216 48.4846 37.7106 48.9409 37.7106 49.4167C37.7106 49.8924 37.5216 50.3487 37.1852 50.6852C36.8487 51.0216 36.3924 51.2106 35.9167 51.2106C35.4409 51.2106 34.9846 51.0216 34.6482 50.6852L27.4815 43.5185C27.3146 43.3521 27.1823 43.1544 27.0919 42.9367C27.0016 42.719 26.9551 42.4857 26.9551 42.25C26.9551 42.0143 27.0016 41.781 27.0919 41.5633C27.1823 41.3456 27.3146 41.1479 27.4815 40.9815L34.6482 33.8148C34.8146 33.648 35.0123 33.5156 35.23 33.4253C35.4476 33.335 35.681 33.2885 35.9167 33.2885C36.1523 33.2885 36.3857 33.335 36.6034 33.4253Z" fill="#249ADA"/>
</svg>
