<svg width="78" height="78" viewBox="0 0 78 78" fill="none" xmlns="http://www.w3.org/2000/svg">
<path fill-rule="evenodd" clip-rule="evenodd" d="M15 0C6.7157 0 0 6.71573 0 15V63C0 71.2842 6.7157 78 15 78H63C71.2843 78 78 71.2842 78 63V15C78 6.71573 71.2843 0 63 0H15ZM13 26.0938C13 17.6305 24.3743 11 38.875 11C53.3757 11 64.75 17.6305 64.75 26.0938V51.9688C64.75 60.432 53.3757 67.0625 38.875 67.0625C24.3743 67.0625 13 60.432 13 51.9688V26.0938ZM54.6156 46.2816C58.3082 44.2601 60.4375 41.6188 60.4375 39.0312V34.557C55.8285 38.5731 47.9851 41.1875 38.875 41.1875C29.7649 41.1875 21.9215 38.5731 17.3125 34.557V39.0312C17.3125 41.6188 19.4418 44.2601 23.1344 46.2816C27.3121 48.5726 32.8914 49.8125 38.875 49.8125C44.8586 49.8125 50.4379 48.5726 54.6156 46.2816ZM38.875 15.3125C32.8914 15.3125 27.3121 16.5523 23.1344 18.8434C19.4418 20.8648 17.3125 23.5063 17.3125 26.0938C17.3125 28.6812 19.4418 31.3227 23.1344 33.3441C27.3121 35.6352 32.8914 36.875 38.875 36.875C44.8586 36.875 50.4379 35.6352 54.6156 33.3441C58.3082 31.3227 60.4375 28.6812 60.4375 26.0938C60.4375 23.5063 58.3082 20.8648 54.6156 18.8434C50.4379 16.5523 44.8586 15.3125 38.875 15.3125ZM38.875 62.75C44.8586 62.75 50.4379 61.5101 54.6156 59.2191C58.3082 57.1976 60.4375 54.5563 60.4375 51.9688V47.4945C55.8285 51.5106 47.9851 54.125 38.875 54.125C29.7649 54.125 21.9215 51.5106 17.3125 47.4945V51.9688C17.3125 54.5563 19.4418 57.1976 23.1344 59.2191C27.3121 61.5101 32.8914 62.75 38.875 62.75Z" fill="#249ADA"/>
</svg>
