<svg width="143" height="143" viewBox="0 0 143 143" fill="none" xmlns="http://www.w3.org/2000/svg">
<path fill-rule="evenodd" clip-rule="evenodd" d="M143 71.5C143 110.988 110.988 143 71.5 143C32.0116 143 0 110.988 0 71.5C0 32.0117 32.0116 0 71.5 0C110.988 0 143 32.0117 143 71.5ZM68 19.5C68 17.5669 69.567 16 71.5 16C73.433 16 75 17.5669 75 19.5V30.5C75 32.4331 73.433 34 71.5 34C69.567 34 68 32.4331 68 30.5V19.5ZM23.9572 100.967C25.0381 102.57 27.2135 102.992 28.816 101.911L37.9354 95.7603C39.538 94.6794 39.9608 92.5042 38.8799 90.9016C37.799 89.2991 35.6235 88.8762 34.0211 89.957L24.9017 96.1082C23.2991 97.1892 22.8763 99.3645 23.9572 100.967ZM118.935 96.1082C120.538 97.1892 120.961 99.3645 119.88 100.967C118.799 102.57 116.624 102.992 115.021 101.912L105.902 95.7605C104.299 94.6794 103.876 92.5042 104.957 90.9016C106.038 89.2991 108.214 88.8762 109.816 89.957L118.935 96.1082ZM44.0311 23.75C42.3571 24.7166 41.7834 26.8572 42.75 28.531L48.25 38.0574C49.2166 39.7314 51.3571 40.3049 53.0311 39.3384C54.7051 38.3721 55.2787 36.2314 54.3121 34.5574L48.8121 25.031C47.8457 23.3572 45.7051 22.7834 44.0311 23.75ZM95.25 25.031C96.2166 23.3572 98.3571 22.7834 100.031 23.75C101.705 24.7166 102.279 26.8572 101.312 28.531L95.8121 38.0574C94.8457 39.7314 92.7051 40.3049 91.0311 39.3384C89.3571 38.3721 88.7834 36.2314 89.75 34.5574L95.25 25.031ZM23.75 44.0312C22.7835 45.7051 23.3571 47.8457 25.0311 48.8123L34.5574 54.3123C36.2314 55.2788 38.3719 54.7051 39.3385 53.0312C40.3049 51.3572 39.7314 49.2166 38.0574 48.25L28.5311 42.75C26.8571 41.7837 24.7165 42.3572 23.75 44.0312ZM115.557 42.75C117.231 41.7834 119.372 42.3572 120.339 44.031C121.305 45.7051 120.731 47.8457 119.057 48.8123L109.531 54.3123C107.857 55.2786 105.717 54.7051 104.75 53.031C103.784 51.3572 104.357 49.2166 106.031 48.25L115.557 42.75ZM110 71.5C110 73.4331 111.567 75 113.5 75H124.5C126.433 75 128 73.4331 128 71.5C128 69.5669 126.433 68 124.5 68H113.5C111.567 68 110 69.5669 110 71.5ZM19.5 75C17.567 75 16 73.4331 16 71.5C16 69.5669 17.567 68 19.5 68H30.5C32.433 68 34 69.5669 34 71.5C34 73.4331 32.433 75 30.5 75H19.5ZM105 72C105 84.824 97.6851 95.9395 87 101.402V105H57V101.402C46.3149 95.9395 39 84.824 39 72C39 53.7747 53.7747 39 72 39C90.2253 39 105 53.7747 105 72Z" fill="white"/>
<path d="M79 46.5C81.3333 47 87.7 50.2 94.5 59" stroke="#2266A4" stroke-width="5" stroke-linecap="round" stroke-linejoin="round"/>
<rect x="57" y="107" width="30" height="3" fill="#249ADA"/>
<rect x="57" y="112" width="30" height="3" fill="#249ADA"/>
<path d="M57 117H87V117C87 119.209 85.2091 121 83 121H61C58.7909 121 57 119.209 57 117V117Z" fill="#249ADA"/>
<path d="M62 123H82V123C82 125.761 79.7614 128 77 128H67C64.2386 128 62 125.761 62 123V123Z" fill="#249ADA"/>
<path d="M66.87 103.5V71.5C65.7033 69.1667 62.37 65.9 58.37 71.5C57.7033 73.3333 57.47 77.1 61.87 77.5H80.37C81.7033 77.5 84.57 76.6 85.37 73C85.7033 71.3333 85.17 68 80.37 68C79.0367 68.1667 76.37 69.1 76.37 71.5C76.37 73.9 76.37 93.8333 76.37 103.5" stroke="#249ADA" stroke-width="3" stroke-linecap="square" stroke-linejoin="round"/>
</svg>
