<svg width="100" height="100" viewBox="0 0 100 100" fill="none" xmlns="http://www.w3.org/2000/svg">
<path d="M80 0C91.0457 0 100 8.95431 100 20V80C100 91.0457 91.0457 100 80 100H20C8.95431 100 1.61075e-07 91.0457 0 80V20C0 8.95431 8.95431 1.61064e-07 20 0H80ZM13.7773 36.1904C13.6597 36.1905 13.5471 36.241 13.4639 36.3301C13.3805 36.4194 13.333 36.5407 13.333 36.667V86.1904C13.333 86.4532 13.5322 86.6668 13.7773 86.667H28C28.1178 86.667 28.2311 86.6166 28.3145 86.5273C28.3978 86.438 28.4443 86.3167 28.4443 86.1904V36.667C28.4443 36.5408 28.3977 36.4194 28.3145 36.3301C28.2311 36.2408 28.1178 36.1905 28 36.1904H13.7773ZM36.8887 36.1904C36.7708 36.1905 36.6575 36.2408 36.5742 36.3301C36.491 36.4194 36.4443 36.5408 36.4443 36.667V86.1904C36.4443 86.4532 36.6434 86.6669 36.8887 86.667H51.1113C51.2291 86.6669 51.3425 86.6166 51.4258 86.5273C51.509 86.4381 51.5557 86.3166 51.5557 86.1904V59.5234C51.5558 57.6292 52.2577 55.8121 53.5078 54.4727C54.7579 53.1333 56.4538 52.381 58.2217 52.3809C59.9898 52.3809 61.6863 53.1332 62.9365 54.4727C64.1867 55.8121 64.8886 57.6292 64.8887 59.5234V86.1904C64.8887 86.4532 65.0878 86.6668 65.333 86.667H79.5557C79.6735 86.6669 79.7868 86.6166 79.8701 86.5273C79.9534 86.4381 80 86.3167 80 86.1904V53.3525C80 44.1068 72.4978 36.8767 63.9111 37.7109C61.2547 37.972 58.6526 38.6758 56.1992 39.7979L51.5557 41.9316V36.667C51.5557 36.5408 51.509 36.4194 51.4258 36.3301C51.3425 36.2408 51.2291 36.1905 51.1113 36.1904H36.8887ZM20.8887 13.333C18.8849 13.333 16.9628 14.186 15.5459 15.7041C14.129 17.2223 13.333 19.2817 13.333 21.4287C13.333 23.5755 14.1292 25.6343 15.5459 27.1523C16.9628 28.6705 18.8849 29.5234 20.8887 29.5234C22.8925 29.5234 24.8145 28.6705 26.2314 27.1523C27.6482 25.6342 28.4443 23.5755 28.4443 21.4287C28.4443 19.2817 27.6484 17.2223 26.2314 15.7041C24.8145 14.186 22.8925 13.333 20.8887 13.333Z" fill="#249ADA"/>
</svg>
