<svg width="100" height="100" viewBox="0 0 100 100" fill="none" xmlns="http://www.w3.org/2000/svg">
<path d="M80 0C91.0457 0 100 8.95431 100 20V80C100 91.0457 91.0457 100 80 100H20C8.95431 100 1.61075e-07 91.0457 0 80V20C0 8.95431 8.95431 1.61064e-07 20 0H80ZM51.9424 54.4111L51.5361 54.6426C51.0578 54.8763 50.5324 54.998 50 54.998C49.4676 54.998 48.9422 54.8762 48.4639 54.6426L48.0576 54.4111L15 32.3721V65.499L15.0176 66.1152C15.1747 68.7888 16.3474 71.3013 18.2959 73.1387C20.2445 74.976 22.8218 75.9992 25.5 75.999H74.5L75.1162 75.9824C77.7897 75.8252 80.3023 74.6517 82.1396 72.7031C83.9769 70.7545 85.0001 68.1772 85 65.499V32.3721L51.9424 54.4111ZM25.499 20L24.7959 20.0244C23.1259 20.1362 21.5064 20.6452 20.0732 21.5098C18.6401 22.3743 17.4344 23.5691 16.5566 24.9941L49.999 47.2891L83.4414 24.9941C81.5934 21.9947 78.279 20 74.499 20H25.499Z" fill="#249ADA"/>
</svg>
